<svg xmlns="http://www.w3.org/2000/svg" width="1600" height="980" viewBox="0 0 1600 980">
  <rect width="1600" height="980" fill="#ffffff"/>
  <rect x="0" y="0" width="1600" height="116" fill="{{THEME_PRIMARY}}"/>
  <rect x="0" y="112" width="1600" height="6" fill="{{THEME_PRIMARY_ALT}}"/>
  <text x="52" y="58" font-family="Microsoft YaHei, Arial" font-size="38" font-weight="700" fill="#ffffff">{{TITLE}}</text>
  <text x="52" y="92" font-family="Microsoft YaHei, Arial" font-size="20" fill="#dbeefa">{{SUBTITLE}}</text>
  <text x="1548" y="48" text-anchor="end" font-family="Microsoft YaHei, Arial" font-size="17" fill="#dbeefa">{{DOCUMENT_TITLE}}</text>

  <g display="{{L1_VISIBLE}}">
    <rect x="64" y="170" width="1472" height="210" rx="12" fill="{{THEME_WASH}}" stroke="{{THEME_LINE}}" stroke-width="1.5"/>
    <rect x="64" y="170" width="1472" height="46" rx="12" fill="{{THEME_PRIMARY}}"/>
    <rect x="64" y="204" width="1472" height="14" fill="{{THEME_PRIMARY}}"/>
    <text x="88" y="201" font-family="Microsoft YaHei, Arial" font-size="22" font-weight="700" fill="#ffffff">{{L1_LABEL}}</text>
    <g display="{{L1I1_VISIBLE}}"><rect x="92" y="240" width="342" height="112" rx="10" fill="{{THEME_CARD}}" stroke="{{L1I1_ACCENT}}" stroke-width="1.8"/><circle cx="128" cy="275" r="18" fill="{{L1I1_ACCENT}}"/><text x="128" y="281" text-anchor="middle" font-family="Arial" font-size="14" font-weight="700" fill="#ffffff">{{L1I1_ICON}}</text><text x="160" y="274" font-family="Microsoft YaHei, Arial" font-size="20" font-weight="700" fill="{{THEME_TEXT}}">{{L1I1_TITLE}}</text><text x="114" y="318" font-family="Microsoft YaHei, Arial" font-size="16" fill="{{THEME_MUTED}}">{{L1I1_DESC}}</text></g>
    <g display="{{L1I2_VISIBLE}}"><rect x="454" y="240" width="342" height="112" rx="10" fill="{{THEME_CARD}}" stroke="{{L1I2_ACCENT}}" stroke-width="1.8"/><circle cx="490" cy="275" r="18" fill="{{L1I2_ACCENT}}"/><text x="490" y="281" text-anchor="middle" font-family="Arial" font-size="14" font-weight="700" fill="#ffffff">{{L1I2_ICON}}</text><text x="522" y="274" font-family="Microsoft YaHei, Arial" font-size="20" font-weight="700" fill="{{THEME_TEXT}}">{{L1I2_TITLE}}</text><text x="476" y="318" font-family="Microsoft YaHei, Arial" font-size="16" fill="{{THEME_MUTED}}">{{L1I2_DESC}}</text></g>
    <g display="{{L1I3_VISIBLE}}"><rect x="816" y="240" width="342" height="112" rx="10" fill="{{THEME_CARD}}" stroke="{{L1I3_ACCENT}}" stroke-width="1.8"/><circle cx="852" cy="275" r="18" fill="{{L1I3_ACCENT}}"/><text x="852" y="281" text-anchor="middle" font-family="Arial" font-size="14" font-weight="700" fill="#ffffff">{{L1I3_ICON}}</text><text x="884" y="274" font-family="Microsoft YaHei, Arial" font-size="20" font-weight="700" fill="{{THEME_TEXT}}">{{L1I3_TITLE}}</text><text x="838" y="318" font-family="Microsoft YaHei, Arial" font-size="16" fill="{{THEME_MUTED}}">{{L1I3_DESC}}</text></g>
    <g display="{{L1I4_VISIBLE}}"><rect x="1178" y="240" width="342" height="112" rx="10" fill="{{THEME_CARD}}" stroke="{{L1I4_ACCENT}}" stroke-width="1.8"/><circle cx="1214" cy="275" r="18" fill="{{L1I4_ACCENT}}"/><text x="1214" y="281" text-anchor="middle" font-family="Arial" font-size="14" font-weight="700" fill="#ffffff">{{L1I4_ICON}}</text><text x="1246" y="274" font-family="Microsoft YaHei, Arial" font-size="20" font-weight="700" fill="{{THEME_TEXT}}">{{L1I4_TITLE}}</text><text x="1200" y="318" font-family="Microsoft YaHei, Arial" font-size="16" fill="{{THEME_MUTED}}">{{L1I4_DESC}}</text></g>
  </g>

  <g display="{{L2_VISIBLE}}">
    <rect x="64" y="408" width="1472" height="210" rx="12" fill="{{THEME_WASH}}" stroke="{{THEME_LINE}}" stroke-width="1.5"/>
    <rect x="64" y="408" width="1472" height="46" rx="12" fill="{{THEME_PRIMARY}}"/>
    <rect x="64" y="442" width="1472" height="14" fill="{{THEME_PRIMARY}}"/>
    <text x="88" y="439" font-family="Microsoft YaHei, Arial" font-size="22" font-weight="700" fill="#ffffff">{{L2_LABEL}}</text>
    <g display="{{L2I1_VISIBLE}}"><rect x="92" y="478" width="342" height="112" rx="10" fill="{{THEME_CARD}}" stroke="{{L2I1_ACCENT}}" stroke-width="1.8"/><circle cx="128" cy="513" r="18" fill="{{L2I1_ACCENT}}"/><text x="128" y="519" text-anchor="middle" font-family="Arial" font-size="14" font-weight="700" fill="#ffffff">{{L2I1_ICON}}</text><text x="160" y="512" font-family="Microsoft YaHei, Arial" font-size="20" font-weight="700" fill="{{THEME_TEXT}}">{{L2I1_TITLE}}</text><text x="114" y="556" font-family="Microsoft YaHei, Arial" font-size="16" fill="{{THEME_MUTED}}">{{L2I1_DESC}}</text></g>
    <g display="{{L2I2_VISIBLE}}"><rect x="454" y="478" width="342" height="112" rx="10" fill="{{THEME_CARD}}" stroke="{{L2I2_ACCENT}}" stroke-width="1.8"/><circle cx="490" cy="513" r="18" fill="{{L2I2_ACCENT}}"/><text x="490" y="519" text-anchor="middle" font-family="Arial" font-size="14" font-weight="700" fill="#ffffff">{{L2I2_ICON}}</text><text x="522" y="512" font-family="Microsoft YaHei, Arial" font-size="20" font-weight="700" fill="{{THEME_TEXT}}">{{L2I2_TITLE}}</text><text x="476" y="556" font-family="Microsoft YaHei, Arial" font-size="16" fill="{{THEME_MUTED}}">{{L2I2_DESC}}</text></g>
    <g display="{{L2I3_VISIBLE}}"><rect x="816" y="478" width="342" height="112" rx="10" fill="{{THEME_CARD}}" stroke="{{L2I3_ACCENT}}" stroke-width="1.8"/><circle cx="852" cy="513" r="18" fill="{{L2I3_ACCENT}}"/><text x="852" y="519" text-anchor="middle" font-family="Arial" font-size="14" font-weight="700" fill="#ffffff">{{L2I3_ICON}}</text><text x="884" y="512" font-family="Microsoft YaHei, Arial" font-size="20" font-weight="700" fill="{{THEME_TEXT}}">{{L2I3_TITLE}}</text><text x="838" y="556" font-family="Microsoft YaHei, Arial" font-size="16" fill="{{THEME_MUTED}}">{{L2I3_DESC}}</text></g>
    <g display="{{L2I4_VISIBLE}}"><rect x="1178" y="478" width="342" height="112" rx="10" fill="{{THEME_CARD}}" stroke="{{L2I4_ACCENT}}" stroke-width="1.8"/><circle cx="1214" cy="513" r="18" fill="{{L2I4_ACCENT}}"/><text x="1214" y="519" text-anchor="middle" font-family="Arial" font-size="14" font-weight="700" fill="#ffffff">{{L2I4_ICON}}</text><text x="1246" y="512" font-family="Microsoft YaHei, Arial" font-size="20" font-weight="700" fill="{{THEME_TEXT}}">{{L2I4_TITLE}}</text><text x="1200" y="556" font-family="Microsoft YaHei, Arial" font-size="16" fill="{{THEME_MUTED}}">{{L2I4_DESC}}</text></g>
  </g>

  <g display="{{L3_VISIBLE}}">
    <rect x="64" y="646" width="1472" height="210" rx="12" fill="{{THEME_WASH}}" stroke="{{THEME_LINE}}" stroke-width="1.5"/>
    <rect x="64" y="646" width="1472" height="46" rx="12" fill="{{THEME_PRIMARY}}"/>
    <rect x="64" y="680" width="1472" height="14" fill="{{THEME_PRIMARY}}"/>
    <text x="88" y="677" font-family="Microsoft YaHei, Arial" font-size="22" font-weight="700" fill="#ffffff">{{L3_LABEL}}</text>
    <g display="{{L3I1_VISIBLE}}"><rect x="92" y="716" width="342" height="112" rx="10" fill="{{THEME_CARD}}" stroke="{{L3I1_ACCENT}}" stroke-width="1.8"/><circle cx="128" cy="751" r="18" fill="{{L3I1_ACCENT}}"/><text x="128" y="757" text-anchor="middle" font-family="Arial" font-size="14" font-weight="700" fill="#ffffff">{{L3I1_ICON}}</text><text x="160" y="750" font-family="Microsoft YaHei, Arial" font-size="20" font-weight="700" fill="{{THEME_TEXT}}">{{L3I1_TITLE}}</text><text x="114" y="794" font-family="Microsoft YaHei, Arial" font-size="16" fill="{{THEME_MUTED}}">{{L3I1_DESC}}</text></g>
    <g display="{{L3I2_VISIBLE}}"><rect x="454" y="716" width="342" height="112" rx="10" fill="{{THEME_CARD}}" stroke="{{L3I2_ACCENT}}" stroke-width="1.8"/><circle cx="490" cy="751" r="18" fill="{{L3I2_ACCENT}}"/><text x="490" y="757" text-anchor="middle" font-family="Arial" font-size="14" font-weight="700" fill="#ffffff">{{L3I2_ICON}}</text><text x="522" y="750" font-family="Microsoft YaHei, Arial" font-size="20" font-weight="700" fill="{{THEME_TEXT}}">{{L3I2_TITLE}}</text><text x="476" y="794" font-family="Microsoft YaHei, Arial" font-size="16" fill="{{THEME_MUTED}}">{{L3I2_DESC}}</text></g>
    <g display="{{L3I3_VISIBLE}}"><rect x="816" y="716" width="342" height="112" rx="10" fill="{{THEME_CARD}}" stroke="{{L3I3_ACCENT}}" stroke-width="1.8"/><circle cx="852" cy="751" r="18" fill="{{L3I3_ACCENT}}"/><text x="852" y="757" text-anchor="middle" font-family="Arial" font-size="14" font-weight="700" fill="#ffffff">{{L3I3_ICON}}</text><text x="884" y="750" font-family="Microsoft YaHei, Arial" font-size="20" font-weight="700" fill="{{THEME_TEXT}}">{{L3I3_TITLE}}</text><text x="838" y="794" font-family="Microsoft YaHei, Arial" font-size="16" fill="{{THEME_MUTED}}">{{L3I3_DESC}}</text></g>
    <g display="{{L3I4_VISIBLE}}"><rect x="1178" y="716" width="342" height="112" rx="10" fill="{{THEME_CARD}}" stroke="{{L3I4_ACCENT}}" stroke-width="1.8"/><circle cx="1214" cy="751" r="18" fill="{{L3I4_ACCENT}}"/><text x="1214" y="757" text-anchor="middle" font-family="Arial" font-size="14" font-weight="700" fill="#ffffff">{{L3I4_ICON}}</text><text x="1246" y="750" font-family="Microsoft YaHei, Arial" font-size="20" font-weight="700" fill="{{THEME_TEXT}}">{{L3I4_TITLE}}</text><text x="1200" y="794" font-family="Microsoft YaHei, Arial" font-size="16" fill="{{THEME_MUTED}}">{{L3I4_DESC}}</text></g>
  </g>

  <rect x="52" y="898" width="1496" height="42" rx="8" fill="{{THEME_WASH}}" stroke="{{THEME_LINE}}"/>
  <text x="76" y="925" font-family="Microsoft YaHei, Arial" font-size="16" fill="{{THEME_MUTED}}">{{NOTE}}</text>
</svg>
