<svg xmlns="http://www.w3.org/2000/svg" width="1600" height="1636" viewBox="0 0 1600 1636">
<defs>
  <linearGradient id="header" x2="1"><stop stop-color="#12324f"/><stop offset="1" stop-color="#1f5f8b"/></linearGradient>
  <filter id="shadow" x="-8%" y="-12%" width="116%" height="130%"><feDropShadow dx="0" dy="1" stdDeviation="1.5" flood-color="#183652" flood-opacity=".035"/></filter>
  <pattern id="grid" width="32" height="32" patternUnits="userSpaceOnUse"><circle cx="16" cy="16" r="1" fill="#cbd8e6" opacity=".35"/></pattern>
  <marker id="arrow" markerWidth="9" markerHeight="9" refX="8" refY="4.5" orient="auto"><path d="M0 0L9 4.5L0 9Z" fill="#526173"/></marker>
  <marker id="arrow-flow" markerWidth="10" markerHeight="10" refX="8.5" refY="5" orient="auto"><path d="M0 0L10 5L0 10Z" fill="#1f5f8b"/></marker>
  <marker id="arrow-data" markerWidth="10" markerHeight="10" refX="8.5" refY="5" orient="auto"><path d="M0 0L10 5L0 10Z" fill="#3b7280"/></marker>
  <marker id="arrow-control" markerWidth="10" markerHeight="10" refX="8.5" refY="5" orient="auto"><path d="M0 0L10 5L0 10Z" fill="#5d6680"/></marker>
  <marker id="arrow-alert" markerWidth="10" markerHeight="10" refX="8.5" refY="5" orient="auto"><path d="M0 0L10 5L0 10Z" fill="#9b3434"/></marker>
  <marker id="arrow-sync" markerWidth="10" markerHeight="10" refX="8.5" refY="5" orient="auto"><path d="M0 0L10 5L0 10Z" fill="#8a7245"/></marker>
  <symbol id="ico-government" viewBox="0 0 24 24" fill="none" stroke="currentColor" stroke-width="1.8" stroke-linecap="round" stroke-linejoin="round"><path d="M3 9h18M5 9V7l7-4 7 4v2M6 20h12M7 9v9M12 9v9M17 9v9"/></symbol>
  <symbol id="ico-organization" viewBox="0 0 24 24" fill="none" stroke="currentColor" stroke-width="1.8" stroke-linecap="round" stroke-linejoin="round"><path d="M4 21V5h10v16M14 10h6v11M8 9h2M8 13h2M8 17h2M17 14h1M17 18h1"/></symbol>
  <symbol id="ico-user" viewBox="0 0 24 24" fill="none" stroke="currentColor" stroke-width="1.8" stroke-linecap="round" stroke-linejoin="round"><circle cx="12" cy="7.5" r="3.5"/><path d="M5 21v-2.5a7 7 0 0 1 14 0V21"/></symbol>
  <symbol id="ico-admin" viewBox="0 0 24 24" fill="none" stroke="currentColor" stroke-width="1.8" stroke-linecap="round" stroke-linejoin="round"><circle cx="10" cy="7.5" r="3.2"/><path d="M3.5 19a6.5 6.5 0 0 1 10.5-5.1"/><path d="M18 14v7M14.5 17.5h7"/></symbol>
  <symbol id="ico-radiation" viewBox="0 0 24 24" fill="none" stroke="currentColor" stroke-width="1.8" stroke-linecap="round" stroke-linejoin="round"><circle cx="12" cy="12" r="2.2"/><path d="M12 9V3a6 6 0 0 1 5.2 3l-5.2 3ZM9.4 13.5l-5.2 3a6 6 0 0 1 0-6l5.2 3Zm5.2 0 5.2 3a6 6 0 0 1-5.2 3v-6Z"/></symbol>
  <symbol id="ico-location" viewBox="0 0 24 24" fill="none" stroke="currentColor" stroke-width="1.8" stroke-linecap="round" stroke-linejoin="round"><path d="M12 21s7-6.1 7-12A7 7 0 0 0 5 9c0 5.9 7 12 7 12Z"/><circle cx="12" cy="9" r="2.5"/></symbol>
  <symbol id="ico-map" viewBox="0 0 24 24" fill="none" stroke="currentColor" stroke-width="1.8" stroke-linecap="round" stroke-linejoin="round"><path d="M3 6.5 9 4l6 2.5L21 4v14l-6 2.5L9 18l-6 2.5v-14ZM9 4v14M15 6.5v14"/></symbol>
  <symbol id="ico-workflow" viewBox="0 0 24 24" fill="none" stroke="currentColor" stroke-width="1.8" stroke-linecap="round" stroke-linejoin="round"><rect x="3" y="4" width="7" height="5" rx="1"/><rect x="14" y="4" width="7" height="5" rx="1"/><rect x="9" y="15" width="7" height="5" rx="1"/><path d="M10 6.5h4M17.5 9v3.5H12v2.5"/></symbol>
  <symbol id="ico-dashboard" viewBox="0 0 24 24" fill="none" stroke="currentColor" stroke-width="1.8" stroke-linecap="round" stroke-linejoin="round"><path d="M4 20V10h4v10M10 20V4h4v16M16 20v-8h4v8M3 20h18"/></symbol>
  <symbol id="ico-report" viewBox="0 0 24 24" fill="none" stroke="currentColor" stroke-width="1.8" stroke-linecap="round" stroke-linejoin="round"><path d="M6 3h8l4 4v14H6V3Z"/><path d="M14 3v5h5M9 12h6M9 16h6"/></symbol>
  <symbol id="ico-form" viewBox="0 0 24 24" fill="none" stroke="currentColor" stroke-width="1.8" stroke-linecap="round" stroke-linejoin="round"><rect x="4" y="3" width="16" height="18" rx="2"/><path d="M8 8h8M8 12h8M8 16h4"/></symbol>
  <symbol id="ico-database" viewBox="0 0 24 24" fill="none" stroke="currentColor" stroke-width="1.8" stroke-linecap="round" stroke-linejoin="round"><ellipse cx="12" cy="6" rx="7" ry="3"/><path d="M5 6v12c0 1.7 3.1 3 7 3s7-1.3 7-3V6M5 12c0 1.7 3.1 3 7 3s7-1.3 7-3"/></symbol>
  <symbol id="ico-shield" viewBox="0 0 24 24" fill="none" stroke="currentColor" stroke-width="1.8" stroke-linecap="round" stroke-linejoin="round"><path d="M12 3 20 6v6c0 4.6-3.1 7.5-8 9-4.9-1.5-8-4.4-8-9V6l8-3Z"/><path d="m9 12 2 2 4-5"/></symbol>
  <symbol id="ico-server" viewBox="0 0 24 24" fill="none" stroke="currentColor" stroke-width="1.8" stroke-linecap="round" stroke-linejoin="round"><rect x="4" y="4" width="16" height="7" rx="2"/><rect x="4" y="13" width="16" height="7" rx="2"/><path d="M8 7h.1M8 16h.1M11 7h5M11 16h5"/></symbol>
  <symbol id="ico-api" viewBox="0 0 24 24" fill="none" stroke="currentColor" stroke-width="1.8" stroke-linecap="round" stroke-linejoin="round"><path d="M8 8 4 12l4 4M16 8l4 4-4 4M14 4 10 20"/></symbol>
  <symbol id="ico-message" viewBox="0 0 24 24" fill="none" stroke="currentColor" stroke-width="1.8" stroke-linecap="round" stroke-linejoin="round"><path d="M4 5h16v11H9l-5 4V5Z"/><path d="M8 9h8M8 12h5"/></symbol>
  <symbol id="ico-terminal" viewBox="0 0 24 24" fill="none" stroke="currentColor" stroke-width="1.8" stroke-linecap="round" stroke-linejoin="round"><rect x="6" y="3" width="12" height="18" rx="2"/><path d="M10 6h4M10 18h4"/></symbol>
  <symbol id="ico-settings" viewBox="0 0 24 24" fill="none" stroke="currentColor" stroke-width="1.8" stroke-linecap="round" stroke-linejoin="round"><circle cx="12" cy="12" r="3"/><path d="M12 2v4M12 18v4M2 12h4M18 12h4M4.9 4.9l2.8 2.8M16.3 16.3l2.8 2.8M19.1 4.9l-2.8 2.8M7.7 16.3l-2.8 2.8"/></symbol>
  <symbol id="ico-alert" viewBox="0 0 24 24" fill="none" stroke="currentColor" stroke-width="1.8" stroke-linecap="round" stroke-linejoin="round"><path d="M12 3 22 20H2L12 3Z"/><path d="M12 9v5M12 17h.1"/></symbol>
  <symbol id="ico-check" viewBox="0 0 24 24" fill="none" stroke="currentColor" stroke-width="1.8" stroke-linecap="round" stroke-linejoin="round"><circle cx="12" cy="12" r="9"/><path d="m8 12 3 3 5-7"/></symbol>
  <symbol id="ico-vehicle" viewBox="0 0 24 24" fill="none" stroke="currentColor" stroke-width="1.8" stroke-linecap="round" stroke-linejoin="round"><path d="M4 16V9h12l4 4v3M6 16h12"/><circle cx="7" cy="17" r="2"/><circle cx="17" cy="17" r="2"/></symbol>
  <symbol id="ico-sensor" viewBox="0 0 24 24" fill="none" stroke="currentColor" stroke-width="1.8" stroke-linecap="round" stroke-linejoin="round"><path d="M12 18v3M8 21h8"/><circle cx="12" cy="12" r="2"/><path d="M8.5 8.5a5 5 0 0 0 0 7M15.5 8.5a5 5 0 0 1 0 7M5.5 5.5a9 9 0 0 0 0 13M18.5 5.5a9 9 0 0 1 0 13"/></symbol>
  <symbol id="ico-cloud" viewBox="0 0 24 24" fill="none" stroke="currentColor" stroke-width="1.8" stroke-linecap="round" stroke-linejoin="round"><path d="M7 18a4 4 0 0 1-.5-8A6 6 0 0 1 18 8.5 4 4 0 1 1 18 18H7Z"/></symbol>
  <symbol id="ico-network" viewBox="0 0 24 24" fill="none" stroke="currentColor" stroke-width="1.8" stroke-linecap="round" stroke-linejoin="round"><circle cx="5" cy="12" r="2"/><circle cx="12" cy="5" r="2"/><circle cx="19" cy="12" r="2"/><circle cx="12" cy="19" r="2"/><path d="M6.5 10.5 10.5 6.5M13.5 6.5l4 4M17.5 13.5l-4 4M10.5 17.5l-4-4"/></symbol>
  <symbol id="ico-lock" viewBox="0 0 24 24" fill="none" stroke="currentColor" stroke-width="1.8" stroke-linecap="round" stroke-linejoin="round"><rect x="5" y="10" width="14" height="11" rx="2"/><path d="M8 10V7a4 4 0 0 1 8 0v3M12 14v3"/></symbol>
  <symbol id="ico-audit" viewBox="0 0 24 24" fill="none" stroke="currentColor" stroke-width="1.8" stroke-linecap="round" stroke-linejoin="round"><path d="M6 3h10l3 3v15H6V3Z"/><path d="M9 10h6M9 14h4"/><circle cx="16.5" cy="16.5" r="3"/><path d="m19 19 2 2"/></symbol>
  <symbol id="ico-ai" viewBox="0 0 24 24" fill="none" stroke="currentColor" stroke-width="1.8" stroke-linecap="round" stroke-linejoin="round"><path d="M8 3v4M16 3v4M5 9h14v10H5V9Z"/><path d="M3 12h2M19 12h2M9 13h.1M15 13h.1M9 16h6"/></symbol>
  <symbol id="ico-browser" viewBox="0 0 24 24" fill="none" stroke="currentColor" stroke-width="1.8" stroke-linecap="round" stroke-linejoin="round"><rect x="3" y="4" width="18" height="16" rx="2"/><path d="M3 9h18M7 6.5h.1M10 6.5h.1"/></symbol>
  <symbol id="ico-mobile" viewBox="0 0 24 24" fill="none" stroke="currentColor" stroke-width="1.8" stroke-linecap="round" stroke-linejoin="round"><rect x="7" y="2.5" width="10" height="19" rx="2"/><path d="M10 5h4M11 18.5h2"/></symbol>
  <symbol id="ico-camera" viewBox="0 0 24 24" fill="none" stroke="currentColor" stroke-width="1.8" stroke-linecap="round" stroke-linejoin="round"><path d="M4 7h5l2-2h4l2 2h3v12H4V7Z"/><circle cx="12" cy="13" r="4"/></symbol>
  <symbol id="ico-gps" viewBox="0 0 24 24" fill="none" stroke="currentColor" stroke-width="1.8" stroke-linecap="round" stroke-linejoin="round"><circle cx="12" cy="12" r="3"/><path d="M12 2v6M12 16v6M2 12h6M16 12h6M5 5l4 4M15 15l4 4M19 5l-4 4M9 15l-4 4"/></symbol>
  <symbol id="ico-gateway" viewBox="0 0 24 24" fill="none" stroke="currentColor" stroke-width="1.8" stroke-linecap="round" stroke-linejoin="round"><path d="M3 12h18M12 3v18"/><path d="m7 8 5-5 5 5M7 16l5 5 5-5"/></symbol>
  <symbol id="ico-queue" viewBox="0 0 24 24" fill="none" stroke="currentColor" stroke-width="1.8" stroke-linecap="round" stroke-linejoin="round"><rect x="3" y="5" width="18" height="4" rx="1"/><rect x="3" y="11" width="14" height="4" rx="1"/><rect x="3" y="17" width="10" height="4" rx="1"/></symbol>
  <symbol id="ico-file" viewBox="0 0 24 24" fill="none" stroke="currentColor" stroke-width="1.8" stroke-linecap="round" stroke-linejoin="round"><path d="M6 3h9l4 4v14H6V3Z"/><path d="M15 3v5h4M9 12h7M9 16h7"/></symbol>
  <symbol id="ico-search" viewBox="0 0 24 24" fill="none" stroke="currentColor" stroke-width="1.8" stroke-linecap="round" stroke-linejoin="round"><circle cx="10" cy="10" r="6"/><path d="m15 15 6 6"/></symbol>
  <symbol id="ico-chart" viewBox="0 0 24 24" fill="none" stroke="currentColor" stroke-width="1.8" stroke-linecap="round" stroke-linejoin="round"><path d="M4 20h17M5 20V10h4v10M11 20V5h4v15M17 20v-8h4"/></symbol>
  <symbol id="ico-calendar" viewBox="0 0 24 24" fill="none" stroke="currentColor" stroke-width="1.8" stroke-linecap="round" stroke-linejoin="round"><rect x="4" y="5" width="16" height="15" rx="2"/><path d="M8 3v5M16 3v5M4 10h16M8 14h3M13 14h3"/></symbol>
  <symbol id="ico-bell" viewBox="0 0 24 24" fill="none" stroke="currentColor" stroke-width="1.8" stroke-linecap="round" stroke-linejoin="round"><path d="M5 17h14l-2-3V9a5 5 0 0 0-10 0v5l-2 3ZM10 20h4"/></symbol>
  <symbol id="ico-email" viewBox="0 0 24 24" fill="none" stroke="currentColor" stroke-width="1.8" stroke-linecap="round" stroke-linejoin="round"><rect x="3" y="5" width="18" height="14" rx="2"/><path d="m4 7 8 6 8-6"/></symbol>
  <symbol id="ico-key" viewBox="0 0 24 24" fill="none" stroke="currentColor" stroke-width="1.8" stroke-linecap="round" stroke-linejoin="round"><circle cx="8" cy="12" r="5"/><path d="M13 12h8M18 12v4M15 12v3"/></symbol>
  <symbol id="ico-firewall" viewBox="0 0 24 24" fill="none" stroke="currentColor" stroke-width="1.8" stroke-linecap="round" stroke-linejoin="round"><path d="M4 5h16v14H4V5ZM4 10h16M4 15h16M9 5v5M15 10v5M9 15v4"/></symbol>
  <symbol id="ico-backup" viewBox="0 0 24 24" fill="none" stroke="currentColor" stroke-width="1.8" stroke-linecap="round" stroke-linejoin="round"><ellipse cx="10" cy="7" rx="6" ry="3"/><path d="M4 7v8c0 1.7 2.7 3 6 3M16 7v4"/><path d="M14 17a4 4 0 1 0 1-4M14 13v4h4"/></symbol>
  <symbol id="ico-cluster" viewBox="0 0 24 24" fill="none" stroke="currentColor" stroke-width="1.8" stroke-linecap="round" stroke-linejoin="round"><rect x="3" y="4" width="8" height="6" rx="1"/><rect x="13" y="4" width="8" height="6" rx="1"/><rect x="8" y="15" width="8" height="6" rx="1"/><path d="M7 10v2h10v-2M12 12v3"/></symbol>
  <symbol id="ico-monitor" viewBox="0 0 24 24" fill="none" stroke="currentColor" stroke-width="1.8" stroke-linecap="round" stroke-linejoin="round"><rect x="3" y="4" width="18" height="12" rx="2"/><path d="M8 21h8M12 16v5M6 11h3l2-4 3 6 2-3h2"/></symbol>
  <symbol id="ico-upload" viewBox="0 0 24 24" fill="none" stroke="currentColor" stroke-width="1.8" stroke-linecap="round" stroke-linejoin="round"><path d="M12 16V3M7 8l5-5 5 5M4 16v5h16v-5"/></symbol>
  <symbol id="ico-download" viewBox="0 0 24 24" fill="none" stroke="currentColor" stroke-width="1.8" stroke-linecap="round" stroke-linejoin="round"><path d="M12 3v13M7 11l5 5 5-5M4 16v5h16v-5"/></symbol>
  <symbol id="ico-contract" viewBox="0 0 24 24" fill="none" stroke="currentColor" stroke-width="1.8" stroke-linecap="round" stroke-linejoin="round"><path d="M6 3h12v18H6V3Z"/><path d="M9 8h6M9 12h6M9 16h3M14 17l3-3"/></symbol>
  <style>
    .fm { font-family:"SimHei","Microsoft YaHei","Noto Sans SC",sans-serif; }
    .title { font-weight:700; font-size:56px; font-family:"SimHei","Microsoft YaHei","Noto Sans SC",sans-serif; fill:#fff; letter-spacing:1px; }
    .subtitle { font-weight:500; font-size:28px; font-family:"SimHei","Microsoft YaHei","Noto Sans SC",sans-serif; fill:#e8f2fb; }
    .section { font-weight:700; font-size:39px; font-family:"SimHei","Microsoft YaHei","Noto Sans SC",sans-serif; fill:#1e293b; }
    .section-en { font-weight:600; font-size:23px; font-family:Arial,sans-serif; fill:#526173; letter-spacing:1.3px; }
    .node { font-weight:600; font-size:38px; font-family:"SimHei","Microsoft YaHei","Noto Sans SC",sans-serif; fill:#1e293b; }
    .node-lg { font-weight:700; font-size:45px; font-family:"SimHei","Microsoft YaHei","Noto Sans SC",sans-serif; fill:#1e293b; }
    .desc { font-weight:500; font-size:28px; font-family:"SimHei","Microsoft YaHei","Noto Sans SC",sans-serif; fill:#526173; }
    .dark-node { font-weight:600; font-size:38px; font-family:"SimHei","Microsoft YaHei","Noto Sans SC",sans-serif; fill:#fff; }
    .note { font-weight:500; font-size:24px; font-family:"SimHei","Microsoft YaHei","Noto Sans SC",sans-serif; fill:#526173; }
    .edge-label { font-weight:700; font-size:28px; font-family:"SimHei","Microsoft YaHei","Noto Sans SC",sans-serif; fill:#1e293b; }
  </style>
</defs>
<rect x="0" y="0" width="1600" height="1636" rx="0" fill="#ffffff" stroke="none" />
<rect width="1600" height="1636" fill="url(#grid)" opacity="0"/>
<rect x="0" y="0" width="1600" height="116" rx="0" fill="url(#header)" stroke="none" />
<rect x="0" y="114" width="1600" height="3" rx="0" fill="#1f5f8b" stroke="none" />
<text x="50" y="57" class="title" text-anchor="start">高风险放射源监管平台系统总体架构图</text>
<text x="52" y="92" class="subtitle" text-anchor="start">统一接入·业务协同·数据赋能·安全保障 — 四层架构体系</text>

<style>
  .title { font-size:46px; letter-spacing:0; }
  .subtitle { font-size:24px; }
  .section { font-size:28px; }
  .node-lg { font-size:28px; }
  .node { font-size:24px; }
  .desc { font-size:20px; }
  .dark-node { font-size:26px; }
  .note { font-size:18px; }
  .edge-label { font-size:21px; }
</style>
<style>.node{font-size:20px}.desc{font-size:16px}.section{font-size:26px}.dark-node{font-size:22px}</style>
<rect x="42" y="148" width="1198" height="140" rx="12" fill="#f3f7fb" stroke="#1f5f8b" filter="url(#shadow)"/>
<rect x="42" y="148" width="1198" height="52" rx="12" fill="#1f5f8b" stroke="#1f5f8b" />
<rect x="42" y="186" width="1198" height="16" rx="0" fill="#1f5f8b" stroke="#1f5f8b" />

<text x="110" y="184" class="dark-node" text-anchor="start">服务对象 / 用户</text>
<rect x="82" y="210" width="264" height="62" rx="8" fill="#ffffff" stroke="#3b7280" filter="url(#shadow)"/>

<text x="126" y="248" class="node" text-anchor="start">省级监管部门</text>
<text x="126" y="266" class="desc" text-anchor="start">监测研判 · 决策指挥</text>
<rect x="366" y="210" width="264" height="62" rx="8" fill="#ffffff" stroke="#456f96" filter="url(#shadow)"/>

<text x="410" y="248" class="node" text-anchor="start">涉源企业用户</text>
<text x="410" y="266" class="desc" text-anchor="start">业务办理 · 数据上报</text>
<rect x="650" y="210" width="264" height="62" rx="8" fill="#ffffff" stroke="#3b7280" filter="url(#shadow)"/>

<text x="694" y="248" class="node" text-anchor="start">现场执法人员</text>
<text x="694" y="266" class="desc" text-anchor="start">移动巡检 · 应急处置</text>
<rect x="934" y="210" width="264" height="62" rx="8" fill="#ffffff" stroke="#5d6680" filter="url(#shadow)"/>

<text x="978" y="248" class="node" text-anchor="start">上级监管平台</text>
<text x="978" y="266" class="desc" text-anchor="start">数据对接 · 指令接收</text>
<rect x="42" y="306" width="1198" height="226" rx="12" fill="#ffffff" stroke="#1f5f8b" filter="url(#shadow)"/>
<rect x="42" y="306" width="1198" height="56" rx="12" fill="#1f5f8b" stroke="#1f5f8b" />
<rect x="42" y="350" width="1198" height="14" rx="0" fill="#1f5f8b" stroke="#1f5f8b" />
<circle cx="74" cy="334" r="16" fill="#ffffff"/>
<text x="74" y="341" class="dark-node" text-anchor="middle">1</text>
<text x="102" y="342" class="dark-node" text-anchor="start">业务应用层 · 场景赋能</text>
<text x="102" y="358" class="desc" text-anchor="start">APPLICATION LAYER</text>
<rect x="60" y="376" width="281" height="86" rx="6" fill="#ffffff" stroke="#3b7280" filter="url(#shadow)"/>
<rect x="60" y="376" width="281" height="5" rx="6" fill="#3b7280" stroke="#3b7280" />

<text x="98" y="396" class="node" text-anchor="start">放射源实时监控</text>
<text x="98" y="444" class="desc" text-anchor="start">GPS/北斗定位 · 辐射剂量 · 电子围栏</text>
<rect x="353" y="376" width="281" height="86" rx="6" fill="#ffffff" stroke="#9b3434" filter="url(#shadow)"/>
<rect x="353" y="376" width="281" height="5" rx="6" fill="#9b3434" stroke="#9b3434" />

<text x="391" y="396" class="node" text-anchor="start">智能预警处置</text>
<text x="391" y="444" class="desc" text-anchor="start">规则引擎 · 三级预警 · 闭环处置</text>
<rect x="646" y="376" width="281" height="86" rx="6" fill="#ffffff" stroke="#3b7280" filter="url(#shadow)"/>
<rect x="646" y="376" width="281" height="5" rx="6" fill="#3b7280" stroke="#3b7280" />
<g color="#3b7280"><use href="#ico-chart" x="654" y="390" width="24" height="24"/></g>
<text x="684" y="396" class="node" text-anchor="start">多维统计分析</text>
<text x="684" y="444" class="desc" text-anchor="start">趋势分析 · 同比环比 · 大屏展示</text>
<rect x="939" y="376" width="281" height="86" rx="6" fill="#ffffff" stroke="#5d6680" filter="url(#shadow)"/>
<rect x="939" y="376" width="281" height="5" rx="6" fill="#5d6680" stroke="#5d6680" />
<g color="#5d6680"><use href="#ico-search" x="947" y="390" width="24" height="24"/></g>
<text x="977" y="396" class="node" text-anchor="start">综合查询追溯</text>
<text x="977" y="444" class="desc" text-anchor="start">全文检索 · 生命周期追溯 · 档案查询</text>
<rect x="42" y="550" width="1198" height="332" rx="12" fill="#ffffff" stroke="#456f96" filter="url(#shadow)"/>
<rect x="42" y="550" width="1198" height="56" rx="12" fill="#f3f7fb" stroke="#456f96" />
<rect x="42" y="594" width="1198" height="14" rx="0" fill="#f3f7fb" stroke="#456f96" />
<circle cx="74" cy="578" r="16" fill="#ffffff"/>
<text x="74" y="585" class="node" text-anchor="middle">2</text>
<text x="102" y="586" class="node" text-anchor="start">平台服务层 · 能力中台</text>
<text x="102" y="602" class="desc" text-anchor="start">PLATFORM LAYER</text>
<rect x="60" y="620" width="281" height="86" rx="6" fill="#ffffff" stroke="#3f7d62" filter="url(#shadow)"/>
<rect x="60" y="620" width="281" height="5" rx="6" fill="#3f7d62" stroke="#3f7d62" />

<text x="98" y="640" class="node" text-anchor="start">统一接入网关</text>
<text x="98" y="688" class="desc" text-anchor="start">多协议适配 · 负载均衡 · 限流熔断</text>
<rect x="353" y="620" width="281" height="86" rx="6" fill="#ffffff" stroke="#456f96" filter="url(#shadow)"/>
<rect x="353" y="620" width="281" height="5" rx="6" fill="#456f96" stroke="#456f96" />

<text x="391" y="640" class="node" text-anchor="start">业务流程引擎</text>
<text x="391" y="688" class="desc" text-anchor="start">可视化流程 · 条件分支 · SLA监控</text>
<rect x="646" y="620" width="281" height="86" rx="6" fill="#ffffff" stroke="#3b7280" filter="url(#shadow)"/>
<rect x="646" y="620" width="281" height="5" rx="6" fill="#3b7280" stroke="#3b7280" />

<text x="684" y="640" class="node" text-anchor="start">消息推送中心</text>
<text x="684" y="688" class="desc" text-anchor="start">短信·APP·邮件·微信 多通道触达</text>
<rect x="939" y="620" width="281" height="86" rx="6" fill="#ffffff" stroke="#5d6680" filter="url(#shadow)"/>
<rect x="939" y="620" width="281" height="5" rx="6" fill="#5d6680" stroke="#5d6680" />

<text x="977" y="640" class="node" text-anchor="start">数据交换平台</text>
<text x="977" y="688" class="desc" text-anchor="start">RESTful API · 批量同步 · 实时推送</text>
<rect x="60" y="718" width="281" height="86" rx="6" fill="#ffffff" stroke="#1f5f8b" filter="url(#shadow)"/>
<rect x="60" y="718" width="281" height="5" rx="6" fill="#1f5f8b" stroke="#1f5f8b" />
<g color="#1f5f8b"><use href="#ico-shield" x="68" y="732" width="24" height="24"/></g>
<text x="98" y="738" class="node" text-anchor="start">统一身份认证</text>
<text x="98" y="786" class="desc" text-anchor="start">SSO单点登录 · RBAC权限 · 操作审计</text>
<rect x="353" y="718" width="281" height="86" rx="6" fill="#ffffff" stroke="#456f96" filter="url(#shadow)"/>
<rect x="353" y="718" width="281" height="5" rx="6" fill="#456f96" stroke="#456f96" />

<text x="391" y="738" class="node" text-anchor="start">低代码配置中心</text>
<text x="391" y="786" class="desc" text-anchor="start">表单设计 · 报表配置 · 规则编排</text>
<rect x="42" y="900" width="1198" height="332" rx="12" fill="#ffffff" stroke="#1f5f8b" filter="url(#shadow)"/>
<rect x="42" y="900" width="1198" height="56" rx="12" fill="#1f5f8b" stroke="#1f5f8b" />
<rect x="42" y="944" width="1198" height="14" rx="0" fill="#1f5f8b" stroke="#1f5f8b" />
<circle cx="74" cy="928" r="16" fill="#ffffff"/>
<text x="74" y="935" class="dark-node" text-anchor="middle">3</text>
<text x="102" y="936" class="dark-node" text-anchor="start">数据资源层 · 数据底座</text>
<text x="102" y="952" class="desc" text-anchor="start">DATA LAYER</text>
<rect x="60" y="970" width="281" height="86" rx="6" fill="#ffffff" stroke="#3b7280" filter="url(#shadow)"/>
<rect x="60" y="970" width="281" height="5" rx="6" fill="#3b7280" stroke="#3b7280" />
<g color="#3b7280"><use href="#ico-database" x="68" y="984" width="24" height="24"/></g>
<text x="98" y="990" class="node" text-anchor="start">放射源基础库</text>
<text x="98" y="1038" class="desc" text-anchor="start">源档案 · 许可证 · 台账信息</text>
<rect x="353" y="970" width="281" height="86" rx="6" fill="#ffffff" stroke="#456f96" filter="url(#shadow)"/>
<rect x="353" y="970" width="281" height="5" rx="6" fill="#456f96" stroke="#456f96" />

<text x="391" y="990" class="node" text-anchor="start">实时定位库</text>
<text x="391" y="1038" class="desc" text-anchor="start">轨迹数据 · 电子围栏 · 报警记录</text>
<rect x="646" y="970" width="281" height="86" rx="6" fill="#ffffff" stroke="#3b7280" filter="url(#shadow)"/>
<rect x="646" y="970" width="281" height="5" rx="6" fill="#3b7280" stroke="#3b7280" />

<text x="684" y="990" class="node" text-anchor="start">监管业务库</text>
<text x="684" y="1038" class="desc" text-anchor="start">审批流程 · 巡检记录 · 执法文书</text>
<rect x="939" y="970" width="281" height="86" rx="6" fill="#ffffff" stroke="#3f7d62" filter="url(#shadow)"/>
<rect x="939" y="970" width="281" height="5" rx="6" fill="#3f7d62" stroke="#3f7d62" />
<g color="#3f7d62"><use href="#ico-settings" x="947" y="984" width="24" height="24"/></g>
<text x="977" y="990" class="node" text-anchor="start">数据治理中心</text>
<text x="977" y="1038" class="desc" text-anchor="start">质量稽核 · 标准管理 · 数据血缘</text>
<rect x="60" y="1068" width="281" height="86" rx="6" fill="#ffffff" stroke="#9a6a24" filter="url(#shadow)"/>
<rect x="60" y="1068" width="281" height="5" rx="6" fill="#9a6a24" stroke="#9a6a24" />

<text x="98" y="1088" class="node" text-anchor="start">数据备份恢复</text>
<text x="98" y="1136" class="desc" text-anchor="start">全量+增量 · 异地灾备 · RPO&lt;5min</text>
<rect x="42" y="1250" width="1198" height="226" rx="12" fill="#ffffff" stroke="#5d6680" filter="url(#shadow)"/>
<rect x="42" y="1250" width="1198" height="56" rx="12" fill="#f6f7fa" stroke="#5d6680" />
<rect x="42" y="1294" width="1198" height="14" rx="0" fill="#f6f7fa" stroke="#5d6680" />
<circle cx="74" cy="1278" r="16" fill="#ffffff"/>
<text x="74" y="1285" class="node" text-anchor="middle">4</text>
<text x="102" y="1286" class="node" text-anchor="start">基础设施层 · 运行底座</text>
<text x="102" y="1302" class="desc" text-anchor="start">INFRASTRUCTURE LAYER</text>
<rect x="60" y="1320" width="379" height="86" rx="6" fill="#ffffff" stroke="#3f7d62" filter="url(#shadow)"/>
<rect x="60" y="1320" width="379" height="5" rx="6" fill="#3f7d62" stroke="#3f7d62" />
<g color="#3f7d62"><use href="#ico-server" x="68" y="1334" width="24" height="24"/></g>
<text x="98" y="1340" class="node" text-anchor="start">政务云平台</text>
<text x="98" y="1388" class="desc" text-anchor="start">信创适配 · 弹性扩容 · 高可用</text>
<rect x="451" y="1320" width="379" height="86" rx="6" fill="#ffffff" stroke="#9a6a24" filter="url(#shadow)"/>
<rect x="451" y="1320" width="379" height="5" rx="6" fill="#9a6a24" stroke="#9a6a24" />

<text x="489" y="1340" class="node" text-anchor="start">安全防护体系</text>
<text x="489" y="1388" class="desc" text-anchor="start">WAF·防火墙·态势感知·零信任</text>
<rect x="842" y="1320" width="379" height="86" rx="6" fill="#ffffff" stroke="#3b7280" filter="url(#shadow)"/>
<rect x="842" y="1320" width="379" height="5" rx="6" fill="#3b7280" stroke="#3b7280" />

<text x="880" y="1340" class="node" text-anchor="start">北斗定位终端</text>
<text x="880" y="1388" class="desc" text-anchor="start">4G/5G通信 · 防拆报警 · 低功耗</text>
<path d="M641 290V300" stroke="#526173" stroke-width="1.5" stroke-dasharray="5 4" marker-end="url(#arrow)"/>
<path d="M641 534V544" stroke="#526173" stroke-width="1.5" stroke-dasharray="5 4" marker-end="url(#arrow)"/>
<path d="M641 884V894" stroke="#526173" stroke-width="1.5" stroke-dasharray="5 4" marker-end="url(#arrow)"/>
<path d="M641 1234V1244" stroke="#526173" stroke-width="1.5" stroke-dasharray="5 4" marker-end="url(#arrow)"/>
<rect x="1258" y="304" width="300" height="1174" rx="12" fill="#ffffff" stroke="#5d6680" filter="url(#shadow)"/>
<rect x="1258" y="304" width="300" height="68" rx="12" fill="#5d6680" stroke="#5d6680" />
<rect x="1258" y="352" width="300" height="22" rx="0" fill="#5d6680" stroke="#5d6680" />

<text x="1318" y="332" class="dark-node" text-anchor="start">外部协同与交换</text>
<text x="1318" y="354" class="subtitle" text-anchor="start">INTEGRATION</text>
<rect x="1272" y="390" width="272" height="66" rx="8" fill="#f6f7fa" stroke="#5d6680" />
<text x="1284" y="418" class="node" text-anchor="start">国家核安全局平台</text>
<text x="1284" y="440" class="desc" text-anchor="start">数据上报 · 指令接收 · 季度报告</text>
<rect x="1272" y="468" width="272" height="66" rx="8" fill="#f6f7fa" stroke="#5d6680" />
<text x="1284" y="496" class="node" text-anchor="start">省级政务数据平台</text>
<text x="1284" y="518" class="desc" text-anchor="start">数据共享 · 接口调用 · 单点登录</text>
<rect x="1272" y="546" width="272" height="66" rx="8" fill="#f6f7fa" stroke="#5d6680" />
<text x="1284" y="574" class="node" text-anchor="start">公安应急联动系统</text>
<text x="1284" y="596" class="desc" text-anchor="start">110/119/120 应急联动 · 一键调度</text>
<rect x="1272" y="624" width="272" height="66" rx="8" fill="#f6f7fa" stroke="#5d6680" />
<text x="1284" y="652" class="node" text-anchor="start">第三方检测机构</text>
<text x="1284" y="674" class="desc" text-anchor="start">检测报告上传 · 资质核验</text>
<path d="M1240 419H1253" stroke="#5d6680" stroke-width="1.3" stroke-dasharray="6 4" marker-end="url(#arrow)"/>
<path d="M1240 716H1253" stroke="#5d6680" stroke-width="1.3" stroke-dasharray="6 4" marker-end="url(#arrow)"/>
<path d="M1240 1066H1253" stroke="#5d6680" stroke-width="1.3" stroke-dasharray="6 4" marker-end="url(#arrow)"/>
<path d="M1240 1363H1253" stroke="#5d6680" stroke-width="1.3" stroke-dasharray="6 4" marker-end="url(#arrow)"/>
<rect x="42" y="1508" width="1198" height="78" rx="10" fill="#f3f7fb" stroke="#1f5f8b" filter="url(#shadow)"/>
<g color="#1f5f8b"><use href="#ico-shield" x="60" y="1528" width="38" height="38"/></g>
<text x="110" y="1544" class="section" text-anchor="start">核心要求</text>
<text x="110" y="1566" class="desc" text-anchor="start"></text>
<rect x="302" y="1524" width="171" height="46" rx="6" fill="#f3f7fb" stroke="#1f5f8b" />
<text x="387.5" y="1554" class="node" text-anchor="middle">等保三级合规</text>
<rect x="485" y="1524" width="171" height="46" rx="6" fill="#f3f7fb" stroke="#456f96" />
<text x="570.5" y="1554" class="node" text-anchor="middle">数据加密传输</text>
<rect x="668" y="1524" width="171" height="46" rx="6" fill="#f3f8fa" stroke="#3b7280" />
<text x="753.5" y="1554" class="node" text-anchor="middle">可用性 ≥ 99.9%</text>
<rect x="851" y="1524" width="171" height="46" rx="6" fill="#f6f7fa" stroke="#5d6680" />
<text x="936.5" y="1554" class="node" text-anchor="middle">接口响应 ≤ 500ms</text>
<rect x="1034" y="1524" width="171" height="46" rx="6" fill="#f3f7fb" stroke="#1f5f8b" />
<text x="1119.5" y="1554" class="node" text-anchor="middle">全量操作审计</text>
<rect x="42" y="1558" width="1516" height="60" rx="8" fill="#f6f9fc" stroke="#cbd8e6" />
<text x="59" y="1596" class="note" text-anchor="start">注：本架构满足 GB/T 22239-2019 等保三级要求，数据加密传输、操作全量审计</text>
</svg>