<svg xmlns="http://www.w3.org/2000/svg" width="1600" height="980" viewBox="0 0 1600 980">
<defs><marker id="arrow-0" markerWidth="14" markerHeight="10" refX="13" refY="5" orient="auto"><path d="M0,0 L14,5 L0,10 Z" fill="#1f78b4"/></marker>
<marker id="arrow-dash-0" markerWidth="14" markerHeight="10" refX="13" refY="5" orient="auto"><path d="M0,0 L14,5 L0,10 Z" fill="#1f78b4"/></marker><marker id="arrow-1" markerWidth="14" markerHeight="10" refX="13" refY="5" orient="auto"><path d="M0,0 L14,5 L0,10 Z" fill="#3f8f5f"/></marker>
<marker id="arrow-dash-1" markerWidth="14" markerHeight="10" refX="13" refY="5" orient="auto"><path d="M0,0 L14,5 L0,10 Z" fill="#3f8f5f"/></marker><marker id="arrow-2" markerWidth="14" markerHeight="10" refX="13" refY="5" orient="auto"><path d="M0,0 L14,5 L0,10 Z" fill="#ef7d22"/></marker>
<marker id="arrow-dash-2" markerWidth="14" markerHeight="10" refX="13" refY="5" orient="auto"><path d="M0,0 L14,5 L0,10 Z" fill="#ef7d22"/></marker><marker id="arrow-3" markerWidth="14" markerHeight="10" refX="13" refY="5" orient="auto"><path d="M0,0 L14,5 L0,10 Z" fill="#7357a6"/></marker>
<marker id="arrow-dash-3" markerWidth="14" markerHeight="10" refX="13" refY="5" orient="auto"><path d="M0,0 L14,5 L0,10 Z" fill="#7357a6"/></marker><marker id="arrow-4" markerWidth="14" markerHeight="10" refX="13" refY="5" orient="auto"><path d="M0,0 L14,5 L0,10 Z" fill="#2c7a7b"/></marker>
<marker id="arrow-dash-4" markerWidth="14" markerHeight="10" refX="13" refY="5" orient="auto"><path d="M0,0 L14,5 L0,10 Z" fill="#2c7a7b"/></marker></defs>
<rect width="1600" height="980" fill="#ffffff"/>
<text x="800" y="46" text-anchor="middle" font-family="Microsoft YaHei, Arial" font-size="38" font-weight="800" fill="#10253f">2025 Data Exchange Interface Architecture</text>
<text x="800" y="82" text-anchor="middle" font-family="Microsoft YaHei, Arial" font-size="20" font-weight="700" fill="#2379b7">Bidirectional reporting, feedback, traceability and audit</text>
<text x="1540" y="54" text-anchor="end" font-family="Microsoft YaHei, Arial" font-size="14" fill="#55708c">Radiation Monitoring Bid Technical Proposal</text>
<g>
<rect x="28" y="130" width="540" height="612" rx="6" fill="#fbfdff" stroke="#2b7fc8" stroke-width="2"/>
<rect x="50" y="130" width="496" height="48" rx="5" fill="#2b7fc8"/>
<text x="298.0" y="162" text-anchor="middle" font-family="Microsoft YaHei, Arial" font-size="22" font-weight="700" fill="#ffffff">Provincial Monitoring Platform</text>
<g>
<rect x="50" y="200" width="496" height="113" rx="5" fill="#fbfdff" stroke="#2b7fc8" opacity="0.9"/>
<text x="298.0" y="230" text-anchor="middle" font-family="Microsoft YaHei, Arial" font-size="19" font-weight="700" fill="#2b7fc8">Application Services</text>
<rect x="66" y="252" width="108" height="55" rx="6" fill="#ffffff" stroke="#2b7fc8" opacity="0.95"/>
<text x="120.0" y="285.5" text-anchor="middle" font-family="Microsoft YaHei, Arial" font-size="15" fill="#10253f">Source Mgmt</text><rect x="184" y="252" width="108" height="55" rx="6" fill="#ffffff" stroke="#2b7fc8" opacity="0.95"/>
<text x="238.0" y="285.5" text-anchor="middle" font-family="Microsoft YaHei, Arial" font-size="15" fill="#10253f">Positioning</text><rect x="302" y="252" width="108" height="55" rx="6" fill="#ffffff" stroke="#2b7fc8" opacity="0.95"/>
<text x="356.0" y="285.5" text-anchor="middle" font-family="Microsoft YaHei, Arial" font-size="15" fill="#10253f">Warning</text><rect x="420" y="252" width="108" height="55" rx="6" fill="#ffffff" stroke="#2b7fc8" opacity="0.95"/>
<text x="474.0" y="285.5" text-anchor="middle" font-family="Microsoft YaHei, Arial" font-size="15" fill="#10253f">Statistics</text>
</g><g>
<rect x="50" y="331" width="496" height="113" rx="5" fill="#fbfdff" stroke="#2b7fc8" opacity="0.9"/>
<text x="298.0" y="361" text-anchor="middle" font-family="Microsoft YaHei, Arial" font-size="19" font-weight="700" fill="#2b7fc8">Data Processing</text>
<rect x="66" y="383" width="108" height="55" rx="6" fill="#ffffff" stroke="#2b7fc8" opacity="0.95"/>
<text x="120.0" y="416.5" text-anchor="middle" font-family="Microsoft YaHei, Arial" font-size="15" fill="#10253f">Parse</text><rect x="184" y="383" width="108" height="55" rx="6" fill="#ffffff" stroke="#2b7fc8" opacity="0.95"/>
<text x="238.0" y="416.5" text-anchor="middle" font-family="Microsoft YaHei, Arial" font-size="15" fill="#10253f">Verify</text><rect x="302" y="383" width="108" height="55" rx="6" fill="#ffffff" stroke="#2b7fc8" opacity="0.95"/>
<text x="356.0" y="416.5" text-anchor="middle" font-family="Microsoft YaHei, Arial" font-size="15" fill="#10253f">Deduplicate</text><rect x="420" y="383" width="108" height="55" rx="6" fill="#ffffff" stroke="#2b7fc8" opacity="0.95"/>
<text x="474.0" y="416.5" text-anchor="middle" font-family="Microsoft YaHei, Arial" font-size="15" fill="#10253f">Cache</text>
</g><g>
<rect x="50" y="462" width="496" height="113" rx="5" fill="#fbfdff" stroke="#2b7fc8" opacity="0.9"/>
<text x="298.0" y="492" text-anchor="middle" font-family="Microsoft YaHei, Arial" font-size="19" font-weight="700" fill="#2b7fc8">Interface Services</text>
<rect x="66" y="514" width="108" height="55" rx="6" fill="#ffffff" stroke="#2b7fc8" opacity="0.95"/>
<text x="120.0" y="547.5" text-anchor="middle" font-family="Microsoft YaHei, Arial" font-size="15" fill="#10253f">Gateway</text><rect x="184" y="514" width="108" height="55" rx="6" fill="#ffffff" stroke="#2b7fc8" opacity="0.95"/>
<text x="238.0" y="547.5" text-anchor="middle" font-family="Microsoft YaHei, Arial" font-size="15" fill="#10253f">Auth</text><rect x="302" y="514" width="108" height="55" rx="6" fill="#ffffff" stroke="#2b7fc8" opacity="0.95"/>
<text x="356.0" y="547.5" text-anchor="middle" font-family="Microsoft YaHei, Arial" font-size="15" fill="#10253f">Signature</text><rect x="420" y="514" width="108" height="55" rx="6" fill="#ffffff" stroke="#2b7fc8" opacity="0.95"/>
<text x="474.0" y="547.5" text-anchor="middle" font-family="Microsoft YaHei, Arial" font-size="15" fill="#10253f">Audit</text>
</g><g>
<rect x="50" y="593" width="496" height="113" rx="5" fill="#fbfdff" stroke="#2b7fc8" opacity="0.9"/>
<text x="298.0" y="623" text-anchor="middle" font-family="Microsoft YaHei, Arial" font-size="19" font-weight="700" fill="#2b7fc8">Infrastructure</text>
<rect x="66" y="645" width="108" height="55" rx="6" fill="#ffffff" stroke="#2b7fc8" opacity="0.95"/>
<text x="120.0" y="678.5" text-anchor="middle" font-family="Microsoft YaHei, Arial" font-size="15" fill="#10253f">Server</text><rect x="184" y="645" width="108" height="55" rx="6" fill="#ffffff" stroke="#2b7fc8" opacity="0.95"/>
<text x="238.0" y="678.5" text-anchor="middle" font-family="Microsoft YaHei, Arial" font-size="15" fill="#10253f">Database</text><rect x="302" y="645" width="108" height="55" rx="6" fill="#ffffff" stroke="#2b7fc8" opacity="0.95"/>
<text x="356.0" y="678.5" text-anchor="middle" font-family="Microsoft YaHei, Arial" font-size="15" fill="#10253f">Queue</text><rect x="420" y="645" width="108" height="55" rx="6" fill="#ffffff" stroke="#2b7fc8" opacity="0.95"/>
<text x="474.0" y="678.5" text-anchor="middle" font-family="Microsoft YaHei, Arial" font-size="15" fill="#10253f">Logs</text>
</g>
</g>
<g>
<rect x="1032" y="130" width="540" height="612" rx="6" fill="#fbfdff" stroke="#5a8f45" stroke-width="2"/>
<rect x="1054" y="130" width="496" height="48" rx="5" fill="#5a8f45"/>
<text x="1302.0" y="162" text-anchor="middle" font-family="Microsoft YaHei, Arial" font-size="22" font-weight="700" fill="#ffffff">National Online Monitoring Platform</text>
<g>
<rect x="1054" y="200" width="496" height="113" rx="5" fill="#fbfdff" stroke="#5a8f45" opacity="0.9"/>
<text x="1302.0" y="230" text-anchor="middle" font-family="Microsoft YaHei, Arial" font-size="19" font-weight="700" fill="#5a8f45">Application Services</text>
<rect x="1070" y="252" width="108" height="55" rx="6" fill="#ffffff" stroke="#5a8f45" opacity="0.95"/>
<text x="1124.0" y="285.5" text-anchor="middle" font-family="Microsoft YaHei, Arial" font-size="15" fill="#10253f">Supervision</text><rect x="1188" y="252" width="108" height="55" rx="6" fill="#ffffff" stroke="#5a8f45" opacity="0.95"/>
<text x="1242.0" y="285.5" text-anchor="middle" font-family="Microsoft YaHei, Arial" font-size="15" fill="#10253f">Display</text><rect x="1306" y="252" width="108" height="55" rx="6" fill="#ffffff" stroke="#5a8f45" opacity="0.95"/>
<text x="1360.0" y="285.5" text-anchor="middle" font-family="Microsoft YaHei, Arial" font-size="15" fill="#10253f">Warning</text><rect x="1424" y="252" width="108" height="55" rx="6" fill="#ffffff" stroke="#5a8f45" opacity="0.95"/>
<text x="1478.0" y="285.5" text-anchor="middle" font-family="Microsoft YaHei, Arial" font-size="15" fill="#10253f">Assessment</text>
</g><g>
<rect x="1054" y="331" width="496" height="113" rx="5" fill="#fbfdff" stroke="#5a8f45" opacity="0.9"/>
<text x="1302.0" y="361" text-anchor="middle" font-family="Microsoft YaHei, Arial" font-size="19" font-weight="700" fill="#5a8f45">Data Processing</text>
<rect x="1070" y="383" width="108" height="55" rx="6" fill="#ffffff" stroke="#5a8f45" opacity="0.95"/>
<text x="1124.0" y="416.5" text-anchor="middle" font-family="Microsoft YaHei, Arial" font-size="15" fill="#10253f">Inbound</text><rect x="1188" y="383" width="108" height="55" rx="6" fill="#ffffff" stroke="#5a8f45" opacity="0.95"/>
<text x="1242.0" y="416.5" text-anchor="middle" font-family="Microsoft YaHei, Arial" font-size="15" fill="#10253f">Fusion</text><rect x="1306" y="383" width="108" height="55" rx="6" fill="#ffffff" stroke="#5a8f45" opacity="0.95"/>
<text x="1360.0" y="416.5" text-anchor="middle" font-family="Microsoft YaHei, Arial" font-size="15" fill="#10253f">Linkage</text><rect x="1424" y="383" width="108" height="55" rx="6" fill="#ffffff" stroke="#5a8f45" opacity="0.95"/>
<text x="1478.0" y="416.5" text-anchor="middle" font-family="Microsoft YaHei, Arial" font-size="15" fill="#10253f">Archive</text>
</g><g>
<rect x="1054" y="462" width="496" height="113" rx="5" fill="#fbfdff" stroke="#5a8f45" opacity="0.9"/>
<text x="1302.0" y="492" text-anchor="middle" font-family="Microsoft YaHei, Arial" font-size="19" font-weight="700" fill="#5a8f45">Interface Services</text>
<rect x="1070" y="514" width="108" height="55" rx="6" fill="#ffffff" stroke="#5a8f45" opacity="0.95"/>
<text x="1124.0" y="547.5" text-anchor="middle" font-family="Microsoft YaHei, Arial" font-size="15" fill="#10253f">Gateway</text><rect x="1188" y="514" width="108" height="55" rx="6" fill="#ffffff" stroke="#5a8f45" opacity="0.95"/>
<text x="1242.0" y="547.5" text-anchor="middle" font-family="Microsoft YaHei, Arial" font-size="15" fill="#10253f">Auth</text><rect x="1306" y="514" width="108" height="55" rx="6" fill="#ffffff" stroke="#5a8f45" opacity="0.95"/>
<text x="1360.0" y="547.5" text-anchor="middle" font-family="Microsoft YaHei, Arial" font-size="15" fill="#10253f">Signature</text><rect x="1424" y="514" width="108" height="55" rx="6" fill="#ffffff" stroke="#5a8f45" opacity="0.95"/>
<text x="1478.0" y="547.5" text-anchor="middle" font-family="Microsoft YaHei, Arial" font-size="15" fill="#10253f">Audit</text>
</g><g>
<rect x="1054" y="593" width="496" height="113" rx="5" fill="#fbfdff" stroke="#5a8f45" opacity="0.9"/>
<text x="1302.0" y="623" text-anchor="middle" font-family="Microsoft YaHei, Arial" font-size="19" font-weight="700" fill="#5a8f45">Infrastructure</text>
<rect x="1070" y="645" width="108" height="55" rx="6" fill="#ffffff" stroke="#5a8f45" opacity="0.95"/>
<text x="1124.0" y="678.5" text-anchor="middle" font-family="Microsoft YaHei, Arial" font-size="15" fill="#10253f">Server</text><rect x="1188" y="645" width="108" height="55" rx="6" fill="#ffffff" stroke="#5a8f45" opacity="0.95"/>
<text x="1242.0" y="678.5" text-anchor="middle" font-family="Microsoft YaHei, Arial" font-size="15" fill="#10253f">Database</text><rect x="1306" y="645" width="108" height="55" rx="6" fill="#ffffff" stroke="#5a8f45" opacity="0.95"/>
<text x="1360.0" y="678.5" text-anchor="middle" font-family="Microsoft YaHei, Arial" font-size="15" fill="#10253f">Queue</text><rect x="1424" y="645" width="108" height="55" rx="6" fill="#ffffff" stroke="#5a8f45" opacity="0.95"/>
<text x="1478.0" y="678.5" text-anchor="middle" font-family="Microsoft YaHei, Arial" font-size="15" fill="#10253f">Logs</text>
</g>
</g>
<g>
<text x="800" y="208" text-anchor="middle" font-family="Microsoft YaHei, Arial" font-size="21" font-weight="700" fill="#1f78b4">1. Source Data Report</text>
<line x1="600" y1="230" x2="1000" y2="230" stroke="#1f78b4" stroke-width="6" marker-end="url(#arrow-0)"/>
<text x="800" y="268" text-anchor="middle" font-family="Microsoft YaHei, Arial" font-size="18" fill="#10253f">HTTPS JSON push</text>
<line x1="1000" y1="284" x2="600" y2="284" stroke="#1f78b4" stroke-width="2" stroke-dasharray="8 7" marker-end="url(#arrow-dash-0)"/>
</g><g>
<text x="800" y="312" text-anchor="middle" font-family="Microsoft YaHei, Arial" font-size="21" font-weight="700" fill="#3f8f5f">2. Location Data Push</text>
<line x1="600" y1="334" x2="1000" y2="334" stroke="#3f8f5f" stroke-width="6" marker-end="url(#arrow-1)"/>
<text x="800" y="372" text-anchor="middle" font-family="Microsoft YaHei, Arial" font-size="18" fill="#10253f">MQTT / HTTPS JSON</text>
<line x1="1000" y1="388" x2="600" y2="388" stroke="#3f8f5f" stroke-width="2" stroke-dasharray="8 7" marker-end="url(#arrow-dash-1)"/>
</g><g>
<text x="800" y="416" text-anchor="middle" font-family="Microsoft YaHei, Arial" font-size="21" font-weight="700" fill="#ef7d22">3. Warning Data Push</text>
<line x1="600" y1="438" x2="1000" y2="438" stroke="#ef7d22" stroke-width="6" marker-end="url(#arrow-2)"/>
<text x="800" y="476" text-anchor="middle" font-family="Microsoft YaHei, Arial" font-size="18" fill="#10253f">HTTPS JSON push</text>
<line x1="1000" y1="492" x2="600" y2="492" stroke="#ef7d22" stroke-width="2" stroke-dasharray="8 7" marker-end="url(#arrow-dash-2)"/>
</g><g>
<text x="800" y="520" text-anchor="middle" font-family="Microsoft YaHei, Arial" font-size="21" font-weight="700" fill="#7357a6">4. Handling Feedback</text>
<line x1="1000" y1="542" x2="600" y2="542" stroke="#7357a6" stroke-width="6" marker-end="url(#arrow-3)"/>
<text x="800" y="580" text-anchor="middle" font-family="Microsoft YaHei, Arial" font-size="18" fill="#10253f">HTTPS JSON feedback</text>
<line x1="600" y1="596" x2="1000" y2="596" stroke="#7357a6" stroke-width="2" stroke-dasharray="8 7" marker-end="url(#arrow-dash-3)"/>
</g>
<rect x="28" y="782" width="1544" height="112" rx="8" fill="#f7fbff" stroke="#c9d8e8" stroke-dasharray="4 4"/>
<rect x="44" y="802" width="102" height="72" rx="6" fill="#2379b7"/>
<text x="95" y="832" text-anchor="middle" font-family="Microsoft YaHei, Arial" font-size="19" font-weight="700" fill="#ffffff">Security</text>
<text x="95" y="858" text-anchor="middle" font-family="Microsoft YaHei, Arial" font-size="19" font-weight="700" fill="#ffffff">Controls</text>
<g>
<circle cx="186" cy="842" r="23" fill="#ffffff" stroke="#2379b7" stroke-width="3"/>
<text x="186" y="850" text-anchor="middle" font-family="Arial" font-size="17" font-weight="700" fill="#2379b7">LO</text>
<text x="224" y="833" font-family="Microsoft YaHei, Arial" font-size="19" font-weight="700" fill="#0f4f8a">Protocol</text>
<text x="224" y="861" font-family="Microsoft YaHei, Arial" font-size="15" fill="#55708c">HTTPS/MQTT TLS</text>
</g><g>
<circle cx="402" cy="842" r="23" fill="#ffffff" stroke="#2379b7" stroke-width="3"/>
<text x="402" y="850" text-anchor="middle" font-family="Arial" font-size="17" font-weight="700" fill="#2379b7">ID</text>
<text x="440" y="833" font-family="Microsoft YaHei, Arial" font-size="19" font-weight="700" fill="#0f4f8a">Auth</text>
<text x="440" y="861" font-family="Microsoft YaHei, Arial" font-size="15" fill="#55708c">CA and token</text>
</g><g>
<circle cx="618" cy="842" r="23" fill="#ffffff" stroke="#2379b7" stroke-width="3"/>
<text x="618" y="850" text-anchor="middle" font-family="Arial" font-size="17" font-weight="700" fill="#2379b7">SG</text>
<text x="656" y="833" font-family="Microsoft YaHei, Arial" font-size="19" font-weight="700" fill="#0f4f8a">Signature</text>
<text x="656" y="861" font-family="Microsoft YaHei, Arial" font-size="15" fill="#55708c">HMAC SHA256</text>
</g><g>
<circle cx="834" cy="842" r="23" fill="#ffffff" stroke="#2379b7" stroke-width="3"/>
<text x="834" y="850" text-anchor="middle" font-family="Arial" font-size="17" font-weight="700" fill="#2379b7">SH</text>
<text x="872" y="833" font-family="Microsoft YaHei, Arial" font-size="19" font-weight="700" fill="#0f4f8a">Transport</text>
<text x="872" y="861" font-family="Microsoft YaHei, Arial" font-size="15" fill="#55708c">Encrypted channel</text>
</g><g>
<circle cx="1050" cy="842" r="23" fill="#ffffff" stroke="#2379b7" stroke-width="3"/>
<text x="1050" y="850" text-anchor="middle" font-family="Arial" font-size="17" font-weight="700" fill="#2379b7">TM</text>
<text x="1088" y="833" font-family="Microsoft YaHei, Arial" font-size="19" font-weight="700" fill="#0f4f8a">Time Sync</text>
<text x="1088" y="861" font-family="Microsoft YaHei, Arial" font-size="15" fill="#55708c">UTC timestamp</text>
</g><g>
<circle cx="1266" cy="842" r="23" fill="#ffffff" stroke="#2379b7" stroke-width="3"/>
<text x="1266" y="850" text-anchor="middle" font-family="Arial" font-size="17" font-weight="700" fill="#2379b7">DO</text>
<text x="1304" y="833" font-family="Microsoft YaHei, Arial" font-size="19" font-weight="700" fill="#0f4f8a">Spec</text>
<text x="1304" y="861" font-family="Microsoft YaHei, Arial" font-size="15" fill="#55708c">2025 fields</text>
</g>
<rect x="616" y="916" width="368" height="38" rx="6" fill="#eef8ff" stroke="#9dcced"/>
<text x="800" y="941" text-anchor="middle" font-family="Microsoft YaHei, Arial" font-size="19" font-weight="700" fill="#2379b7">All data exchange remains traceable, auditable and recoverable</text>
</svg>