<svg xmlns="http://www.w3.org/2000/svg" width="1600" height="980" viewBox="0 0 1600 980">
<defs><marker id="arrow-0" markerWidth="14" markerHeight="10" refX="13" refY="5" orient="auto"><path d="M0,0 L14,5 L0,10 Z" fill="#2b7fc8"/></marker>
<marker id="arrow-dash-0" markerWidth="14" markerHeight="10" refX="13" refY="5" orient="auto"><path d="M0,0 L14,5 L0,10 Z" fill="#2b7fc8"/></marker><marker id="arrow-1" markerWidth="14" markerHeight="10" refX="13" refY="5" orient="auto"><path d="M0,0 L14,5 L0,10 Z" fill="#d64b3b"/></marker>
<marker id="arrow-dash-1" markerWidth="14" markerHeight="10" refX="13" refY="5" orient="auto"><path d="M0,0 L14,5 L0,10 Z" fill="#d64b3b"/></marker><marker id="arrow-2" markerWidth="14" markerHeight="10" refX="13" refY="5" orient="auto"><path d="M0,0 L14,5 L0,10 Z" fill="#f6a126"/></marker>
<marker id="arrow-dash-2" markerWidth="14" markerHeight="10" refX="13" refY="5" orient="auto"><path d="M0,0 L14,5 L0,10 Z" fill="#f6a126"/></marker><marker id="arrow-3" markerWidth="14" markerHeight="10" refX="13" refY="5" orient="auto"><path d="M0,0 L14,5 L0,10 Z" fill="#41a56a"/></marker>
<marker id="arrow-dash-3" markerWidth="14" markerHeight="10" refX="13" refY="5" orient="auto"><path d="M0,0 L14,5 L0,10 Z" fill="#41a56a"/></marker><marker id="arrow-4" markerWidth="14" markerHeight="10" refX="13" refY="5" orient="auto"><path d="M0,0 L14,5 L0,10 Z" fill="#7357a6"/></marker>
<marker id="arrow-dash-4" markerWidth="14" markerHeight="10" refX="13" refY="5" orient="auto"><path d="M0,0 L14,5 L0,10 Z" fill="#7357a6"/></marker></defs>
<rect width="1600" height="980" fill="#ffffff"/>
<text x="800" y="46" text-anchor="middle" font-family="Microsoft YaHei, Arial" font-size="38" font-weight="800" fill="#10253f">Data Reporting Fault Tolerance Mechanism</text>
<text x="800" y="82" text-anchor="middle" font-family="Microsoft YaHei, Arial" font-size="20" font-weight="700" fill="#2b7fc8">Prevent missing report, wrong report and repeated report</text>
<text x="1540" y="54" text-anchor="end" font-family="Microsoft YaHei, Arial" font-size="14" fill="#55708c">Radiation Monitoring Bid Technical Proposal</text>
<rect x="22" y="126" width="1556" height="126" rx="8" fill="#f7fbff" stroke="#9db8d6"/>
<rect x="30" y="116" width="170" height="42" rx="6" fill="#2b7fc8"/>
<text x="115" y="144" text-anchor="middle" font-family="Microsoft YaHei, Arial" font-size="20" font-weight="700" fill="#ffffff">Normal Reporting Flow</text>
<g>
<rect x="32" y="150" width="154" height="82" rx="7" fill="#f8fbff" stroke="#a9bfda"/>
<circle cx="62" cy="180" r="18" fill="#2b7fc8"/>
<text x="62" y="187" text-anchor="middle" font-family="Arial" font-size="15" font-weight="700" fill="#ffffff">1</text>
<text x="90" y="176" font-family="Microsoft YaHei, Arial" font-size="16" font-weight="700" fill="#10253f">Terminal</text>
<text x="48" y="204" font-family="Microsoft YaHei, Arial" font-size="13" font-weight="400" fill="#55708c">Locate st</text><text x="48" y="225" font-family="Microsoft YaHei, Arial" font-size="13" font-weight="400" fill="#55708c">atus warn</text><text x="48" y="246" font-family="Microsoft YaHei, Arial" font-size="13" font-weight="400" fill="#55708c">ing</text>
</g><line x1="186" y1="191" x2="216" y2="191" stroke="#2b7fc8" stroke-width="4" marker-end="url(#arrow-0)"/><g>
<rect x="219" y="150" width="154" height="82" rx="7" fill="#f8fbff" stroke="#a9bfda"/>
<circle cx="249" cy="180" r="18" fill="#2b7fc8"/>
<text x="249" y="187" text-anchor="middle" font-family="Arial" font-size="15" font-weight="700" fill="#ffffff">2</text>
<text x="277" y="176" font-family="Microsoft YaHei, Arial" font-size="16" font-weight="700" fill="#10253f">Receive</text>
<text x="235" y="204" font-family="Microsoft YaHei, Arial" font-size="13" font-weight="400" fill="#55708c">Raw messa</text><text x="235" y="225" font-family="Microsoft YaHei, Arial" font-size="13" font-weight="400" fill="#55708c">ge intake</text>
</g><line x1="373" y1="191" x2="403" y2="191" stroke="#2b7fc8" stroke-width="4" marker-end="url(#arrow-0)"/><g>
<rect x="406" y="150" width="154" height="82" rx="7" fill="#f8fbff" stroke="#a9bfda"/>
<circle cx="436" cy="180" r="18" fill="#2b7fc8"/>
<text x="436" y="187" text-anchor="middle" font-family="Arial" font-size="15" font-weight="700" fill="#ffffff">3</text>
<text x="464" y="176" font-family="Microsoft YaHei, Arial" font-size="16" font-weight="700" fill="#10253f">Parse</text>
<text x="422" y="204" font-family="Microsoft YaHei, Arial" font-size="13" font-weight="400" fill="#55708c">Field and</text><text x="422" y="225" font-family="Microsoft YaHei, Arial" font-size="13" font-weight="400" fill="#55708c"> format c</text><text x="422" y="246" font-family="Microsoft YaHei, Arial" font-size="13" font-weight="400" fill="#55708c">heck</text>
</g><line x1="560" y1="191" x2="590" y2="191" stroke="#2b7fc8" stroke-width="4" marker-end="url(#arrow-0)"/><g>
<rect x="593" y="150" width="154" height="82" rx="7" fill="#f8fbff" stroke="#a9bfda"/>
<circle cx="623" cy="180" r="18" fill="#2b7fc8"/>
<text x="623" y="187" text-anchor="middle" font-family="Arial" font-size="15" font-weight="700" fill="#ffffff">4</text>
<text x="651" y="176" font-family="Microsoft YaHei, Arial" font-size="16" font-weight="700" fill="#10253f">Dedup</text>
<text x="609" y="204" font-family="Microsoft YaHei, Arial" font-size="13" font-weight="400" fill="#55708c">Unique in</text><text x="609" y="225" font-family="Microsoft YaHei, Arial" font-size="13" font-weight="400" fill="#55708c">dex check</text>
</g><line x1="747" y1="191" x2="777" y2="191" stroke="#2b7fc8" stroke-width="4" marker-end="url(#arrow-0)"/><g>
<rect x="780" y="150" width="154" height="82" rx="7" fill="#f8fbff" stroke="#a9bfda"/>
<circle cx="810" cy="180" r="18" fill="#2b7fc8"/>
<text x="810" y="187" text-anchor="middle" font-family="Arial" font-size="15" font-weight="700" fill="#ffffff">5</text>
<text x="838" y="176" font-family="Microsoft YaHei, Arial" font-size="16" font-weight="700" fill="#10253f">Store</text>
<text x="796" y="204" font-family="Microsoft YaHei, Arial" font-size="13" font-weight="400" fill="#55708c">Business </text><text x="796" y="225" font-family="Microsoft YaHei, Arial" font-size="13" font-weight="400" fill="#55708c">library</text>
</g><line x1="934" y1="191" x2="964" y2="191" stroke="#2b7fc8" stroke-width="4" marker-end="url(#arrow-0)"/><g>
<rect x="967" y="150" width="154" height="82" rx="7" fill="#f8fbff" stroke="#a9bfda"/>
<circle cx="997" cy="180" r="18" fill="#2b7fc8"/>
<text x="997" y="187" text-anchor="middle" font-family="Arial" font-size="15" font-weight="700" fill="#ffffff">6</text>
<text x="1025" y="176" font-family="Microsoft YaHei, Arial" font-size="16" font-weight="700" fill="#10253f">Detect</text>
<text x="983" y="204" font-family="Microsoft YaHei, Arial" font-size="13" font-weight="400" fill="#55708c">Rule and </text><text x="983" y="225" font-family="Microsoft YaHei, Arial" font-size="13" font-weight="400" fill="#55708c">value che</text><text x="983" y="246" font-family="Microsoft YaHei, Arial" font-size="13" font-weight="400" fill="#55708c">ck</text>
</g><line x1="1121" y1="191" x2="1151" y2="191" stroke="#2b7fc8" stroke-width="4" marker-end="url(#arrow-0)"/><g>
<rect x="1154" y="150" width="154" height="82" rx="7" fill="#f8fbff" stroke="#a9bfda"/>
<circle cx="1184" cy="180" r="18" fill="#2b7fc8"/>
<text x="1184" y="187" text-anchor="middle" font-family="Arial" font-size="15" font-weight="700" fill="#ffffff">7</text>
<text x="1212" y="176" font-family="Microsoft YaHei, Arial" font-size="16" font-weight="700" fill="#10253f">Report</text>
<text x="1170" y="204" font-family="Microsoft YaHei, Arial" font-size="13" font-weight="400" fill="#55708c">HTTPS/MQT</text><text x="1170" y="225" font-family="Microsoft YaHei, Arial" font-size="13" font-weight="400" fill="#55708c">T</text>
</g><line x1="1308" y1="191" x2="1338" y2="191" stroke="#2b7fc8" stroke-width="4" marker-end="url(#arrow-0)"/><g>
<rect x="1341" y="150" width="154" height="82" rx="7" fill="#f8fbff" stroke="#a9bfda"/>
<circle cx="1371" cy="180" r="18" fill="#2b7fc8"/>
<text x="1371" y="187" text-anchor="middle" font-family="Arial" font-size="15" font-weight="700" fill="#ffffff">8</text>
<text x="1399" y="176" font-family="Microsoft YaHei, Arial" font-size="16" font-weight="700" fill="#10253f">Record</text>
<text x="1357" y="204" font-family="Microsoft YaHei, Arial" font-size="13" font-weight="400" fill="#55708c">Result st</text><text x="1357" y="225" font-family="Microsoft YaHei, Arial" font-size="13" font-weight="400" fill="#55708c">atus</text>
</g>
<rect x="24" y="286" width="312" height="478" rx="10" fill="#fffafa" stroke="#efb4a7"/>
<rect x="40" y="270" width="156" height="44" rx="5" fill="#f0523d"/>
<text x="118" y="299" text-anchor="middle" font-family="Microsoft YaHei, Arial" font-size="20" font-weight="700" fill="#ffffff">Exception Scenarios</text>
<g>
<rect x="28" y="310" width="290" height="64" rx="7" fill="#ffffff" stroke="#efc1b9"/>
<circle cx="62" cy="342" r="18" fill="#ffffff" stroke="#d64b3b" stroke-width="3"/>
<text x="62" y="349" text-anchor="middle" font-family="Arial" font-size="17" font-weight="700" fill="#d64b3b">!</text>
<text x="98" y="337" font-family="Microsoft YaHei, Arial" font-size="17" font-weight="700" fill="#d64b3b">Report Timeout</text>
<text x="98" y="361" font-family="Microsoft YaHei, Arial" font-size="13" fill="#55708c">Network or service unavailable</text>
</g><g>
<rect x="28" y="390" width="290" height="64" rx="7" fill="#ffffff" stroke="#efc1b9"/>
<circle cx="62" cy="422" r="18" fill="#ffffff" stroke="#d64b3b" stroke-width="3"/>
<text x="62" y="429" text-anchor="middle" font-family="Arial" font-size="17" font-weight="700" fill="#d64b3b">!</text>
<text x="98" y="417" font-family="Microsoft YaHei, Arial" font-size="17" font-weight="700" fill="#d64b3b">Permission Error</text>
<text x="98" y="441" font-family="Microsoft YaHei, Arial" font-size="13" fill="#55708c">Certificate or account invalid</text>
</g><g>
<rect x="28" y="470" width="290" height="64" rx="7" fill="#ffffff" stroke="#efc1b9"/>
<circle cx="62" cy="502" r="18" fill="#ffffff" stroke="#d64b3b" stroke-width="3"/>
<text x="62" y="509" text-anchor="middle" font-family="Arial" font-size="17" font-weight="700" fill="#d64b3b">!</text>
<text x="98" y="497" font-family="Microsoft YaHei, Arial" font-size="17" font-weight="700" fill="#d64b3b">Format Error</text>
<text x="98" y="521" font-family="Microsoft YaHei, Arial" font-size="13" fill="#55708c">Required field missing</text>
</g><g>
<rect x="28" y="550" width="290" height="64" rx="7" fill="#ffffff" stroke="#efc1b9"/>
<circle cx="62" cy="582" r="18" fill="#ffffff" stroke="#d64b3b" stroke-width="3"/>
<text x="62" y="589" text-anchor="middle" font-family="Arial" font-size="17" font-weight="700" fill="#d64b3b">!</text>
<text x="98" y="577" font-family="Microsoft YaHei, Arial" font-size="17" font-weight="700" fill="#d64b3b">Server Error</text>
<text x="98" y="601" font-family="Microsoft YaHei, Arial" font-size="13" fill="#55708c">Upper platform 5xx</text>
</g><g>
<rect x="28" y="630" width="290" height="64" rx="7" fill="#ffffff" stroke="#efc1b9"/>
<circle cx="62" cy="662" r="18" fill="#ffffff" stroke="#d64b3b" stroke-width="3"/>
<text x="62" y="669" text-anchor="middle" font-family="Arial" font-size="17" font-weight="700" fill="#d64b3b">!</text>
<text x="98" y="657" font-family="Microsoft YaHei, Arial" font-size="17" font-weight="700" fill="#d64b3b">Duplicate Data</text>
<text x="98" y="681" font-family="Microsoft YaHei, Arial" font-size="13" fill="#55708c">Same key reported repeatedly</text>
</g><g>
<rect x="28" y="710" width="290" height="64" rx="7" fill="#ffffff" stroke="#efc1b9"/>
<circle cx="62" cy="742" r="18" fill="#ffffff" stroke="#d64b3b" stroke-width="3"/>
<text x="62" y="749" text-anchor="middle" font-family="Arial" font-size="17" font-weight="700" fill="#d64b3b">!</text>
<text x="98" y="737" font-family="Microsoft YaHei, Arial" font-size="17" font-weight="700" fill="#d64b3b">Offline Cache</text>
<text x="98" y="761" font-family="Microsoft YaHei, Arial" font-size="13" fill="#55708c">Terminal stores then reports</text>
</g>
<rect x="370" y="286" width="820" height="478" rx="10" fill="#fffdf8" stroke="#efcc84"/>
<rect x="388" y="270" width="220" height="44" rx="5" fill="#f59b23"/>
<text x="498" y="299" text-anchor="middle" font-family="Microsoft YaHei, Arial" font-size="20" font-weight="700" fill="#ffffff">Exception Handling And Compensation</text>
<g>
<rect x="390" y="360" width="180" height="86" rx="8" fill="#ffffff" stroke="#f6a126" stroke-width="2"/>
<text x="480.0" y="392" text-anchor="middle" font-family="Microsoft YaHei, Arial" font-size="17" font-weight="700" fill="#f6a126">Capture</text>
<text x="406" y="414" font-family="Microsoft YaHei, Arial" font-size="13" font-weight="400" fill="#10253f">Record reas</text><text x="406" y="435" font-family="Microsoft YaHei, Arial" font-size="13" font-weight="400" fill="#10253f">on time sou</text><text x="406" y="456" font-family="Microsoft YaHei, Arial" font-size="13" font-weight="400" fill="#10253f">rce</text>
</g><g>
<rect x="610" y="286" width="180" height="86" rx="8" fill="#ffffff" stroke="#41a56a" stroke-width="2"/>
<text x="700.0" y="318" text-anchor="middle" font-family="Microsoft YaHei, Arial" font-size="17" font-weight="700" fill="#41a56a">Auto Retry</text>
<text x="626" y="340" font-family="Microsoft YaHei, Arial" font-size="13" font-weight="400" fill="#10253f">Retry by po</text><text x="626" y="361" font-family="Microsoft YaHei, Arial" font-size="13" font-weight="400" fill="#10253f">licy</text>
</g><g>
<rect x="860" y="360" width="180" height="86" rx="8" fill="#ffffff" stroke="#7357a6" stroke-width="2"/>
<text x="950.0" y="392" text-anchor="middle" font-family="Microsoft YaHei, Arial" font-size="17" font-weight="700" fill="#7357a6">Success?</text>
<text x="876" y="414" font-family="Microsoft YaHei, Arial" font-size="13" font-weight="400" fill="#10253f">Verify comp</text><text x="876" y="435" font-family="Microsoft YaHei, Arial" font-size="13" font-weight="400" fill="#10253f">ensation re</text><text x="876" y="456" font-family="Microsoft YaHei, Arial" font-size="13" font-weight="400" fill="#10253f">sult</text>
</g><g>
<rect x="650" y="500" width="180" height="86" rx="8" fill="#ffffff" stroke="#2b7fc8" stroke-width="2"/>
<text x="740.0" y="532" text-anchor="middle" font-family="Microsoft YaHei, Arial" font-size="17" font-weight="700" fill="#2b7fc8">Manual Review</text>
<text x="666" y="554" font-family="Microsoft YaHei, Arial" font-size="13" font-weight="400" fill="#10253f">Repair and </text><text x="666" y="575" font-family="Microsoft YaHei, Arial" font-size="13" font-weight="400" fill="#10253f">resubmit</text>
</g>
<line x1="570" y1="404" x2="610" y2="340" stroke="#41a56a" stroke-width="4" marker-end="url(#arrow-0)"/><line x1="790" y1="340" x2="860" y2="404" stroke="#41a56a" stroke-width="4" marker-end="url(#arrow-0)"/><line x1="950" y1="446" x2="860" y2="540" stroke="#d64b3b" stroke-width="4" marker-end="url(#arrow-0)"/><line x1="650" y1="540" x2="570" y2="446" stroke="#7357a6" stroke-width="4" marker-end="url(#arrow-0)"/>
<g>
<rect x="1240" y="298" width="306" height="154" rx="4" fill="#fbfffb" stroke="#cbd9d0"/>
<text x="1393.0" y="330" text-anchor="middle" font-family="Microsoft YaHei, Arial" font-size="20" font-weight="700" fill="#3f8f5f">Dedup Logic</text>
<text x="1274" y="364" font-family="Microsoft YaHei, Arial" font-size="16" fill="#10253f">•</text><text x="1296" y="364" font-family="Microsoft YaHei, Arial" font-size="16" font-weight="400" fill="#10253f">Terminal ID</text><text x="1274" y="396" font-family="Microsoft YaHei, Arial" font-size="16" fill="#10253f">•</text><text x="1296" y="396" font-family="Microsoft YaHei, Arial" font-size="16" font-weight="400" fill="#10253f">Report timesta</text><text x="1296" y="420" font-family="Microsoft YaHei, Arial" font-size="16" font-weight="400" fill="#10253f">mp</text><text x="1274" y="428" font-family="Microsoft YaHei, Arial" font-size="16" fill="#10253f">•</text><text x="1296" y="428" font-family="Microsoft YaHei, Arial" font-size="16" font-weight="400" fill="#10253f">Serial number</text><text x="1274" y="460" font-family="Microsoft YaHei, Arial" font-size="16" fill="#10253f">•</text><text x="1296" y="460" font-family="Microsoft YaHei, Arial" font-size="16" font-weight="400" fill="#10253f">Data type</text>
</g><g>
<rect x="1240" y="488" width="306" height="154" rx="4" fill="#fbfffb" stroke="#cbd9d0"/>
<text x="1393.0" y="520" text-anchor="middle" font-family="Microsoft YaHei, Arial" font-size="20" font-weight="700" fill="#7357a6">Audit Closure</text>
<text x="1274" y="554" font-family="Microsoft YaHei, Arial" font-size="16" fill="#10253f">•</text><text x="1296" y="554" font-family="Microsoft YaHei, Arial" font-size="16" font-weight="400" fill="#10253f">Check content</text><text x="1274" y="586" font-family="Microsoft YaHei, Arial" font-size="16" fill="#10253f">•</text><text x="1296" y="586" font-family="Microsoft YaHei, Arial" font-size="16" font-weight="400" fill="#10253f">Check method</text><text x="1274" y="618" font-family="Microsoft YaHei, Arial" font-size="16" fill="#10253f">•</text><text x="1296" y="618" font-family="Microsoft YaHei, Arial" font-size="16" font-weight="400" fill="#10253f">Record issue</text><text x="1274" y="650" font-family="Microsoft YaHei, Arial" font-size="16" fill="#10253f">•</text><text x="1296" y="650" font-family="Microsoft YaHei, Arial" font-size="16" font-weight="400" fill="#10253f">Archive result</text>
</g>
<rect x="24" y="812" width="1552" height="76" rx="4" fill="#f7fbff" stroke="#9dcced"/>
<text x="58" y="856" font-family="Microsoft YaHei, Arial" font-size="19" font-weight="700" fill="#104f94">Key Guarantees</text>
<g>
<circle cx="122" cy="842" r="14" fill="#39a86b"/>
<text x="122" y="847" text-anchor="middle" font-family="Arial" font-size="10" font-weight="700" fill="#ffffff">OK</text>
<text x="148" y="848" font-family="Microsoft YaHei, Arial" font-size="17" font-weight="700" fill="#104f94">No Missing</text>
<text x="148" y="872" font-family="Microsoft YaHei, Arial" font-size="14" fill="#55708c">Cache plus retry</text>
</g><g>
<circle cx="408" cy="842" r="14" fill="#39a86b"/>
<text x="408" y="847" text-anchor="middle" font-family="Arial" font-size="10" font-weight="700" fill="#ffffff">OK</text>
<text x="434" y="848" font-family="Microsoft YaHei, Arial" font-size="17" font-weight="700" fill="#104f94">No Wrong</text>
<text x="434" y="872" font-family="Microsoft YaHei, Arial" font-size="14" fill="#55708c">Format plus rule</text>
</g><g>
<circle cx="694" cy="842" r="14" fill="#39a86b"/>
<text x="694" y="847" text-anchor="middle" font-family="Arial" font-size="10" font-weight="700" fill="#ffffff">OK</text>
<text x="720" y="848" font-family="Microsoft YaHei, Arial" font-size="17" font-weight="700" fill="#104f94">No Repeat</text>
<text x="720" y="872" font-family="Microsoft YaHei, Arial" font-size="14" fill="#55708c">Unique index</text>
</g><g>
<circle cx="980" cy="842" r="14" fill="#39a86b"/>
<text x="980" y="847" text-anchor="middle" font-family="Arial" font-size="10" font-weight="700" fill="#ffffff">OK</text>
<text x="1006" y="848" font-family="Microsoft YaHei, Arial" font-size="17" font-weight="700" fill="#104f94">Traceable</text>
<text x="1006" y="872" font-family="Microsoft YaHei, Arial" font-size="14" fill="#55708c">Full logs</text>
</g><g>
<circle cx="1266" cy="842" r="14" fill="#39a86b"/>
<text x="1266" y="847" text-anchor="middle" font-family="Arial" font-size="10" font-weight="700" fill="#ffffff">OK</text>
<text x="1292" y="848" font-family="Microsoft YaHei, Arial" font-size="17" font-weight="700" fill="#104f94">Verifiable</text>
<text x="1292" y="872" font-family="Microsoft YaHei, Arial" font-size="14" fill="#55708c">Dual review</text>
</g>
<text x="60" y="938" font-family="Microsoft YaHei, Arial" font-size="15" fill="#55708c">Solid line: normal flow / dashed line: exception and retry flow</text>
</svg>