<svg xmlns="http://www.w3.org/2000/svg" width="1600" height="980" viewBox="0 0 1600 980">
<defs><marker id="arrow-0" markerWidth="14" markerHeight="10" refX="13" refY="5" orient="auto"><path d="M0,0 L14,5 L0,10 Z" fill="#2b72c4"/></marker>
<marker id="arrow-dash-0" markerWidth="14" markerHeight="10" refX="13" refY="5" orient="auto"><path d="M0,0 L14,5 L0,10 Z" fill="#2b72c4"/></marker><marker id="arrow-1" markerWidth="14" markerHeight="10" refX="13" refY="5" orient="auto"><path d="M0,0 L14,5 L0,10 Z" fill="#d9363e"/></marker>
<marker id="arrow-dash-1" markerWidth="14" markerHeight="10" refX="13" refY="5" orient="auto"><path d="M0,0 L14,5 L0,10 Z" fill="#d9363e"/></marker><marker id="arrow-2" markerWidth="14" markerHeight="10" refX="13" refY="5" orient="auto"><path d="M0,0 L14,5 L0,10 Z" fill="#f58a23"/></marker>
<marker id="arrow-dash-2" markerWidth="14" markerHeight="10" refX="13" refY="5" orient="auto"><path d="M0,0 L14,5 L0,10 Z" fill="#f58a23"/></marker><marker id="arrow-3" markerWidth="14" markerHeight="10" refX="13" refY="5" orient="auto"><path d="M0,0 L14,5 L0,10 Z" fill="#4ba34f"/></marker>
<marker id="arrow-dash-3" markerWidth="14" markerHeight="10" refX="13" refY="5" orient="auto"><path d="M0,0 L14,5 L0,10 Z" fill="#4ba34f"/></marker></defs>
<rect width="1600" height="980" fill="#ffffff"/>
<text x="800" y="42" text-anchor="middle" font-family="Microsoft YaHei, Arial" font-size="38" font-weight="800" fill="#10253f">Fault Severity Response And Issue Closure</text>
<text x="800" y="78" text-anchor="middle" font-family="Microsoft YaHei, Arial" font-size="20" font-weight="700" fill="#2b72c4">Define fault severity response and issue closure workflow.</text>
<text x="1540" y="50" text-anchor="end" font-family="Microsoft YaHei, Arial" font-size="14" fill="#55708c">Radiation Monitoring Bid Technical Proposal</text>
<text x="28" y="82" font-family="Microsoft YaHei, Arial" font-size="22" font-weight="700" fill="#0b4c94">Severity Response Standard</text>
<rect x="22" y="106" width="164" height="44" fill="#0b4c94" stroke="#ffffff"/><text x="104.0" y="134" text-anchor="middle" font-family="Microsoft YaHei, Arial" font-size="18" font-weight="700" fill="#ffffff">Level</text><rect x="186" y="106" width="194" height="44" fill="#0b4c94" stroke="#ffffff"/><text x="283.0" y="134" text-anchor="middle" font-family="Microsoft YaHei, Arial" font-size="18" font-weight="700" fill="#ffffff">Definition</text><rect x="380" y="106" width="324" height="44" fill="#0b4c94" stroke="#ffffff"/><text x="542.0" y="134" text-anchor="middle" font-family="Microsoft YaHei, Arial" font-size="18" font-weight="700" fill="#ffffff">Scenario</text><rect x="704" y="106" width="184" height="44" fill="#0b4c94" stroke="#ffffff"/><text x="796.0" y="134" text-anchor="middle" font-family="Microsoft YaHei, Arial" font-size="18" font-weight="700" fill="#ffffff">Response</text><rect x="888" y="106" width="192" height="44" fill="#0b4c94" stroke="#ffffff"/><text x="984.0" y="134" text-anchor="middle" font-family="Microsoft YaHei, Arial" font-size="18" font-weight="700" fill="#ffffff">Handling</text><rect x="1080" y="106" width="194" height="44" fill="#0b4c94" stroke="#ffffff"/><text x="1177.0" y="134" text-anchor="middle" font-family="Microsoft YaHei, Arial" font-size="18" font-weight="700" fill="#ffffff">Service</text><rect x="1274" y="106" width="282" height="44" fill="#0b4c94" stroke="#ffffff"/><text x="1415.0" y="134" text-anchor="middle" font-family="Microsoft YaHei, Arial" font-size="18" font-weight="700" fill="#ffffff">Escalation</text><rect x="22" y="150" width="164" height="102" fill="#fffafa" stroke="#c8c8c8"/><rect x="186" y="150" width="194" height="102" fill="#fffafa" stroke="#c8c8c8"/><rect x="380" y="150" width="324" height="102" fill="#fffafa" stroke="#c8c8c8"/><rect x="704" y="150" width="184" height="102" fill="#fffafa" stroke="#c8c8c8"/><rect x="888" y="150" width="192" height="102" fill="#fffafa" stroke="#c8c8c8"/><rect x="1080" y="150" width="194" height="102" fill="#fffafa" stroke="#c8c8c8"/><rect x="1274" y="150" width="282" height="102" fill="#fffafa" stroke="#c8c8c8"/><circle cx="72" cy="201" r="24" fill="#d9363e"/><text x="72" y="210" text-anchor="middle" font-family="Arial" font-size="18" font-weight="700" fill="#ffffff">1</text><text x="92" y="184" font-family="Microsoft YaHei, Arial" font-size="17" font-weight="700" fill="#10253f">Leve</text><text x="92" y="209" font-family="Microsoft YaHei, Arial" font-size="17" font-weight="700" fill="#10253f">l 1</text><text x="198" y="184" font-family="Microsoft YaHei, Arial" font-size="17" font-weight="400" fill="#10253f">Major issu</text><text x="198" y="209" font-family="Microsoft YaHei, Arial" font-size="17" font-weight="400" fill="#10253f">e</text><text x="392" y="184" font-family="Microsoft YaHei, Arial" font-size="17" font-weight="400" fill="#10253f">Business interrup</text><text x="392" y="209" font-family="Microsoft YaHei, Arial" font-size="17" font-weight="400" fill="#10253f">tion / Large data</text><text x="392" y="234" font-family="Microsoft YaHei, Arial" font-size="17" font-weight="400" fill="#10253f"> outage / Securit</text><text x="392" y="259" font-family="Microsoft YaHei, Arial" font-size="17" font-weight="400" fill="#10253f">y incident</text><text x="716" y="184" font-family="Microsoft YaHei, Arial" font-size="17" font-weight="400" fill="#10253f">2h respon</text><text x="716" y="209" font-family="Microsoft YaHei, Arial" font-size="17" font-weight="400" fill="#10253f">se</text><text x="900" y="184" font-family="Microsoft YaHei, Arial" font-size="17" font-weight="400" fill="#10253f">4h plan</text><text x="1092" y="184" font-family="Microsoft YaHei, Arial" font-size="17" font-weight="400" fill="#10253f">7x24 onsit</text><text x="1092" y="209" font-family="Microsoft YaHei, Arial" font-size="17" font-weight="400" fill="#10253f">e</text><text x="1286" y="184" font-family="Microsoft YaHei, Arial" font-size="17" font-weight="400" fill="#10253f">Scope expands</text><rect x="22" y="252" width="164" height="102" fill="#fffdf7" stroke="#c8c8c8"/><rect x="186" y="252" width="194" height="102" fill="#fffdf7" stroke="#c8c8c8"/><rect x="380" y="252" width="324" height="102" fill="#fffdf7" stroke="#c8c8c8"/><rect x="704" y="252" width="184" height="102" fill="#fffdf7" stroke="#c8c8c8"/><rect x="888" y="252" width="192" height="102" fill="#fffdf7" stroke="#c8c8c8"/><rect x="1080" y="252" width="194" height="102" fill="#fffdf7" stroke="#c8c8c8"/><rect x="1274" y="252" width="282" height="102" fill="#fffdf7" stroke="#c8c8c8"/><circle cx="72" cy="303" r="24" fill="#f58a23"/><text x="72" y="312" text-anchor="middle" font-family="Arial" font-size="18" font-weight="700" fill="#ffffff">2</text><text x="92" y="286" font-family="Microsoft YaHei, Arial" font-size="17" font-weight="700" fill="#10253f">Leve</text><text x="92" y="311" font-family="Microsoft YaHei, Arial" font-size="17" font-weight="700" fill="#10253f">l 2</text><text x="198" y="286" font-family="Microsoft YaHei, Arial" font-size="17" font-weight="400" fill="#10253f">General fa</text><text x="198" y="311" font-family="Microsoft YaHei, Arial" font-size="17" font-weight="400" fill="#10253f">ult</text><text x="392" y="286" font-family="Microsoft YaHei, Arial" font-size="17" font-weight="400" fill="#10253f">Module exception </text><text x="392" y="311" font-family="Microsoft YaHei, Arial" font-size="17" font-weight="400" fill="#10253f">/ Data delay / In</text><text x="392" y="336" font-family="Microsoft YaHei, Arial" font-size="17" font-weight="400" fill="#10253f">terface error</text><text x="716" y="286" font-family="Microsoft YaHei, Arial" font-size="17" font-weight="400" fill="#10253f">1 workday</text><text x="900" y="286" font-family="Microsoft YaHei, Arial" font-size="17" font-weight="400" fill="#10253f">2 workday</text><text x="900" y="311" font-family="Microsoft YaHei, Arial" font-size="17" font-weight="400" fill="#10253f">s</text><text x="1092" y="286" font-family="Microsoft YaHei, Arial" font-size="17" font-weight="400" fill="#10253f">Remote sup</text><text x="1092" y="311" font-family="Microsoft YaHei, Arial" font-size="17" font-weight="400" fill="#10253f">port</text><text x="1286" y="286" font-family="Microsoft YaHei, Arial" font-size="17" font-weight="400" fill="#10253f">Upgrade to L1</text><rect x="22" y="354" width="164" height="102" fill="#f8fff8" stroke="#c8c8c8"/><rect x="186" y="354" width="194" height="102" fill="#f8fff8" stroke="#c8c8c8"/><rect x="380" y="354" width="324" height="102" fill="#f8fff8" stroke="#c8c8c8"/><rect x="704" y="354" width="184" height="102" fill="#f8fff8" stroke="#c8c8c8"/><rect x="888" y="354" width="192" height="102" fill="#f8fff8" stroke="#c8c8c8"/><rect x="1080" y="354" width="194" height="102" fill="#f8fff8" stroke="#c8c8c8"/><rect x="1274" y="354" width="282" height="102" fill="#f8fff8" stroke="#c8c8c8"/><circle cx="72" cy="405" r="24" fill="#4ba34f"/><text x="72" y="414" text-anchor="middle" font-family="Arial" font-size="18" font-weight="700" fill="#ffffff">3</text><text x="92" y="388" font-family="Microsoft YaHei, Arial" font-size="17" font-weight="700" fill="#10253f">Leve</text><text x="92" y="413" font-family="Microsoft YaHei, Arial" font-size="17" font-weight="700" fill="#10253f">l 3</text><text x="198" y="388" font-family="Microsoft YaHei, Arial" font-size="17" font-weight="400" fill="#10253f">Common ite</text><text x="198" y="413" font-family="Microsoft YaHei, Arial" font-size="17" font-weight="400" fill="#10253f">m</text><text x="392" y="388" font-family="Microsoft YaHei, Arial" font-size="17" font-weight="400" fill="#10253f">Consultation / UI</text><text x="392" y="413" font-family="Microsoft YaHei, Arial" font-size="17" font-weight="400" fill="#10253f"> advice / Log che</text><text x="392" y="438" font-family="Microsoft YaHei, Arial" font-size="17" font-weight="400" fill="#10253f">ck</text><text x="716" y="388" font-family="Microsoft YaHei, Arial" font-size="17" font-weight="400" fill="#10253f">2 workday</text><text x="716" y="413" font-family="Microsoft YaHei, Arial" font-size="17" font-weight="400" fill="#10253f">s</text><text x="900" y="388" font-family="Microsoft YaHei, Arial" font-size="17" font-weight="400" fill="#10253f">5 workday</text><text x="900" y="413" font-family="Microsoft YaHei, Arial" font-size="17" font-weight="400" fill="#10253f">s</text><text x="1092" y="388" font-family="Microsoft YaHei, Arial" font-size="17" font-weight="400" fill="#10253f">Ticket sup</text><text x="1092" y="413" font-family="Microsoft YaHei, Arial" font-size="17" font-weight="400" fill="#10253f">port</text><text x="1286" y="388" font-family="Microsoft YaHei, Arial" font-size="17" font-weight="400" fill="#10253f">May upgrade</text>
<text x="28" y="584" font-family="Microsoft YaHei, Arial" font-size="22" font-weight="700" fill="#0b4c94">Issue Closure Process</text>
<g>
<rect x="34" y="616" width="154" height="140" rx="7" fill="#f8fbff" stroke="#a9bfda"/>
<circle cx="64" cy="646" r="18" fill="#2b72c4"/>
<text x="64" y="653" text-anchor="middle" font-family="Arial" font-size="15" font-weight="700" fill="#ffffff">1</text>
<text x="92" y="642" font-family="Microsoft YaHei, Arial" font-size="16" font-weight="700" fill="#10253f">Discover</text>
<text x="50" y="670" font-family="Microsoft YaHei, Arial" font-size="13" font-weight="400" fill="#55708c">Alarm pat</text><text x="50" y="691" font-family="Microsoft YaHei, Arial" font-size="13" font-weight="400" fill="#55708c">rol feedb</text><text x="50" y="712" font-family="Microsoft YaHei, Arial" font-size="13" font-weight="400" fill="#55708c">ack</text>
</g><line x1="188" y1="686" x2="222" y2="686" stroke="#2b72c4" stroke-width="4" marker-end="url(#arrow-0)"/><g>
<rect x="228" y="616" width="154" height="140" rx="7" fill="#f8fbff" stroke="#a9bfda"/>
<circle cx="258" cy="646" r="18" fill="#2b72c4"/>
<text x="258" y="653" text-anchor="middle" font-family="Arial" font-size="15" font-weight="700" fill="#ffffff">2</text>
<text x="286" y="642" font-family="Microsoft YaHei, Arial" font-size="16" font-weight="700" fill="#10253f">Register</text>
<text x="244" y="670" font-family="Microsoft YaHei, Arial" font-size="13" font-weight="400" fill="#55708c">Issue tic</text><text x="244" y="691" font-family="Microsoft YaHei, Arial" font-size="13" font-weight="400" fill="#55708c">ket</text>
</g><line x1="382" y1="686" x2="416" y2="686" stroke="#2b72c4" stroke-width="4" marker-end="url(#arrow-0)"/><g>
<rect x="422" y="616" width="154" height="140" rx="7" fill="#f8fbff" stroke="#a9bfda"/>
<circle cx="452" cy="646" r="18" fill="#2b72c4"/>
<text x="452" y="653" text-anchor="middle" font-family="Arial" font-size="15" font-weight="700" fill="#ffffff">3</text>
<text x="480" y="642" font-family="Microsoft YaHei, Arial" font-size="16" font-weight="700" fill="#10253f">Classify</text>
<text x="438" y="670" font-family="Microsoft YaHei, Arial" font-size="13" font-weight="400" fill="#55708c">Severity </text><text x="438" y="691" font-family="Microsoft YaHei, Arial" font-size="13" font-weight="400" fill="#55708c">and owner</text>
</g><line x1="576" y1="686" x2="610" y2="686" stroke="#2b72c4" stroke-width="4" marker-end="url(#arrow-0)"/><g>
<rect x="616" y="616" width="154" height="140" rx="7" fill="#f8fbff" stroke="#a9bfda"/>
<circle cx="646" cy="646" r="18" fill="#2b72c4"/>
<text x="646" y="653" text-anchor="middle" font-family="Arial" font-size="15" font-weight="700" fill="#ffffff">4</text>
<text x="674" y="642" font-family="Microsoft YaHei, Arial" font-size="16" font-weight="700" fill="#10253f">Resolve</text>
<text x="632" y="670" font-family="Microsoft YaHei, Arial" font-size="13" font-weight="400" fill="#55708c">Plan and </text><text x="632" y="691" font-family="Microsoft YaHei, Arial" font-size="13" font-weight="400" fill="#55708c">repair</text>
</g><line x1="770" y1="686" x2="804" y2="686" stroke="#2b72c4" stroke-width="4" marker-end="url(#arrow-0)"/><g>
<rect x="810" y="616" width="154" height="140" rx="7" fill="#f8fbff" stroke="#a9bfda"/>
<circle cx="840" cy="646" r="18" fill="#2b72c4"/>
<text x="840" y="653" text-anchor="middle" font-family="Arial" font-size="15" font-weight="700" fill="#ffffff">5</text>
<text x="868" y="642" font-family="Microsoft YaHei, Arial" font-size="16" font-weight="700" fill="#10253f">Verify</text>
<text x="826" y="670" font-family="Microsoft YaHei, Arial" font-size="13" font-weight="400" fill="#55708c">Recover c</text><text x="826" y="691" font-family="Microsoft YaHei, Arial" font-size="13" font-weight="400" fill="#55708c">heck</text>
</g><line x1="964" y1="686" x2="998" y2="686" stroke="#2b72c4" stroke-width="4" marker-end="url(#arrow-0)"/><g>
<rect x="1004" y="616" width="154" height="140" rx="7" fill="#f8fbff" stroke="#a9bfda"/>
<circle cx="1034" cy="646" r="18" fill="#2b72c4"/>
<text x="1034" y="653" text-anchor="middle" font-family="Arial" font-size="15" font-weight="700" fill="#ffffff">6</text>
<text x="1062" y="642" font-family="Microsoft YaHei, Arial" font-size="16" font-weight="700" fill="#10253f">Archive</text>
<text x="1020" y="670" font-family="Microsoft YaHei, Arial" font-size="13" font-weight="400" fill="#55708c">Ticket an</text><text x="1020" y="691" font-family="Microsoft YaHei, Arial" font-size="13" font-weight="400" fill="#55708c">d logs</text>
</g><line x1="1158" y1="686" x2="1192" y2="686" stroke="#2b72c4" stroke-width="4" marker-end="url(#arrow-0)"/><g>
<rect x="1198" y="616" width="154" height="140" rx="7" fill="#f8fbff" stroke="#a9bfda"/>
<circle cx="1228" cy="646" r="18" fill="#2b72c4"/>
<text x="1228" y="653" text-anchor="middle" font-family="Arial" font-size="15" font-weight="700" fill="#ffffff">7</text>
<text x="1256" y="642" font-family="Microsoft YaHei, Arial" font-size="16" font-weight="700" fill="#10253f">Improve</text>
<text x="1214" y="670" font-family="Microsoft YaHei, Arial" font-size="13" font-weight="400" fill="#55708c">Analysis </text><text x="1214" y="691" font-family="Microsoft YaHei, Arial" font-size="13" font-weight="400" fill="#55708c">and optim</text><text x="1214" y="712" font-family="Microsoft YaHei, Arial" font-size="13" font-weight="400" fill="#55708c">ization</text>
</g>
<path d="M 1340 778 C 1000 824 560 824 214 778" fill="none" stroke="#2b72c4" stroke-width="3" stroke-dasharray="9 8" marker-end="url(#arrow-dash-0)"/>
<rect x="30" y="836" width="1540" height="70" rx="8" fill="#f7fbff" stroke="#9dcced"/>
<text x="58" y="878" font-family="Microsoft YaHei, Arial" font-size="19" font-weight="700" fill="#0b4c94">Key Guarantees</text>
<g>
<circle cx="150" cy="860" r="14" fill="#39a86b"/>
<text x="150" y="865" text-anchor="middle" font-family="Arial" font-size="10" font-weight="700" fill="#ffffff">OK</text>
<text x="176" y="866" font-family="Microsoft YaHei, Arial" font-size="17" font-weight="700" fill="#0b4c94">Owner</text>
<text x="176" y="890" font-family="Microsoft YaHei, Arial" font-size="14" fill="#55708c">Clear contact</text>
</g><g>
<circle cx="436" cy="860" r="14" fill="#39a86b"/>
<text x="436" y="865" text-anchor="middle" font-family="Arial" font-size="10" font-weight="700" fill="#ffffff">OK</text>
<text x="462" y="866" font-family="Microsoft YaHei, Arial" font-size="17" font-weight="700" fill="#0b4c94">Tracking</text>
<text x="462" y="890" font-family="Microsoft YaHei, Arial" font-size="14" fill="#55708c">Status visible</text>
</g><g>
<circle cx="722" cy="860" r="14" fill="#39a86b"/>
<text x="722" y="865" text-anchor="middle" font-family="Arial" font-size="10" font-weight="700" fill="#ffffff">OK</text>
<text x="748" y="866" font-family="Microsoft YaHei, Arial" font-size="17" font-weight="700" fill="#0b4c94">Trace</text>
<text x="748" y="890" font-family="Microsoft YaHei, Arial" font-size="14" fill="#55708c">Full record</text>
</g><g>
<circle cx="1008" cy="860" r="14" fill="#39a86b"/>
<text x="1008" y="865" text-anchor="middle" font-family="Arial" font-size="10" font-weight="700" fill="#ffffff">OK</text>
<text x="1034" y="866" font-family="Microsoft YaHei, Arial" font-size="17" font-weight="700" fill="#0b4c94">Audit</text>
<text x="1034" y="890" font-family="Microsoft YaHei, Arial" font-size="14" fill="#55708c">Compliance</text>
</g><g>
<circle cx="1294" cy="860" r="14" fill="#39a86b"/>
<text x="1294" y="865" text-anchor="middle" font-family="Arial" font-size="10" font-weight="700" fill="#ffffff">OK</text>
<text x="1320" y="866" font-family="Microsoft YaHei, Arial" font-size="17" font-weight="700" fill="#0b4c94">Data</text>
<text x="1320" y="890" font-family="Microsoft YaHei, Arial" font-size="14" fill="#55708c">Driven improvement</text>
</g>
</svg>