<svg xmlns="http://www.w3.org/2000/svg" width="1600" height="1080" viewBox="0 0 1600 1080">
<defs>
  <linearGradient id="header" x2="1"><stop stop-color="#12324f"/><stop offset="1" stop-color="#1f5f8b"/></linearGradient>
  <filter id="shadow" x="-8%" y="-12%" width="116%" height="130%"><feDropShadow dx="0" dy="1" stdDeviation="1.5" flood-color="#183652" flood-opacity=".035"/></filter>
  <pattern id="grid" width="32" height="32" patternUnits="userSpaceOnUse"><circle cx="16" cy="16" r="1" fill="#cbd8e6" opacity=".35"/></pattern>
  <marker id="arrow" markerWidth="9" markerHeight="9" refX="8" refY="4.5" orient="auto"><path d="M0 0L9 4.5L0 9Z" fill="#526173"/></marker>
  <marker id="arrow-flow" markerWidth="10" markerHeight="10" refX="8.5" refY="5" orient="auto"><path d="M0 0L10 5L0 10Z" fill="#1f5f8b"/></marker>
  <marker id="arrow-data" markerWidth="10" markerHeight="10" refX="8.5" refY="5" orient="auto"><path d="M0 0L10 5L0 10Z" fill="#3b7280"/></marker>
  <marker id="arrow-control" markerWidth="10" markerHeight="10" refX="8.5" refY="5" orient="auto"><path d="M0 0L10 5L0 10Z" fill="#5d6680"/></marker>
  <marker id="arrow-alert" markerWidth="10" markerHeight="10" refX="8.5" refY="5" orient="auto"><path d="M0 0L10 5L0 10Z" fill="#9b3434"/></marker>
  <marker id="arrow-sync" markerWidth="10" markerHeight="10" refX="8.5" refY="5" orient="auto"><path d="M0 0L10 5L0 10Z" fill="#8a7245"/></marker>
  <symbol id="ico-government" viewBox="0 0 24 24" fill="none" stroke="currentColor" stroke-width="1.8" stroke-linecap="round" stroke-linejoin="round"><path d="M3 9h18M5 9V7l7-4 7 4v2M6 20h12M7 9v9M12 9v9M17 9v9"/></symbol>
  <symbol id="ico-organization" viewBox="0 0 24 24" fill="none" stroke="currentColor" stroke-width="1.8" stroke-linecap="round" stroke-linejoin="round"><path d="M4 21V5h10v16M14 10h6v11M8 9h2M8 13h2M8 17h2M17 14h1M17 18h1"/></symbol>
  <symbol id="ico-user" viewBox="0 0 24 24" fill="none" stroke="currentColor" stroke-width="1.8" stroke-linecap="round" stroke-linejoin="round"><circle cx="12" cy="7.5" r="3.5"/><path d="M5 21v-2.5a7 7 0 0 1 14 0V21"/></symbol>
  <symbol id="ico-admin" viewBox="0 0 24 24" fill="none" stroke="currentColor" stroke-width="1.8" stroke-linecap="round" stroke-linejoin="round"><circle cx="10" cy="7.5" r="3.2"/><path d="M3.5 19a6.5 6.5 0 0 1 10.5-5.1"/><path d="M18 14v7M14.5 17.5h7"/></symbol>
  <symbol id="ico-radiation" viewBox="0 0 24 24" fill="none" stroke="currentColor" stroke-width="1.8" stroke-linecap="round" stroke-linejoin="round"><circle cx="12" cy="12" r="2.2"/><path d="M12 9V3a6 6 0 0 1 5.2 3l-5.2 3ZM9.4 13.5l-5.2 3a6 6 0 0 1 0-6l5.2 3Zm5.2 0 5.2 3a6 6 0 0 1-5.2 3v-6Z"/></symbol>
  <symbol id="ico-location" viewBox="0 0 24 24" fill="none" stroke="currentColor" stroke-width="1.8" stroke-linecap="round" stroke-linejoin="round"><path d="M12 21s7-6.1 7-12A7 7 0 0 0 5 9c0 5.9 7 12 7 12Z"/><circle cx="12" cy="9" r="2.5"/></symbol>
  <symbol id="ico-map" viewBox="0 0 24 24" fill="none" stroke="currentColor" stroke-width="1.8" stroke-linecap="round" stroke-linejoin="round"><path d="M3 6.5 9 4l6 2.5L21 4v14l-6 2.5L9 18l-6 2.5v-14ZM9 4v14M15 6.5v14"/></symbol>
  <symbol id="ico-workflow" viewBox="0 0 24 24" fill="none" stroke="currentColor" stroke-width="1.8" stroke-linecap="round" stroke-linejoin="round"><rect x="3" y="4" width="7" height="5" rx="1"/><rect x="14" y="4" width="7" height="5" rx="1"/><rect x="9" y="15" width="7" height="5" rx="1"/><path d="M10 6.5h4M17.5 9v3.5H12v2.5"/></symbol>
  <symbol id="ico-dashboard" viewBox="0 0 24 24" fill="none" stroke="currentColor" stroke-width="1.8" stroke-linecap="round" stroke-linejoin="round"><path d="M4 20V10h4v10M10 20V4h4v16M16 20v-8h4v8M3 20h18"/></symbol>
  <symbol id="ico-report" viewBox="0 0 24 24" fill="none" stroke="currentColor" stroke-width="1.8" stroke-linecap="round" stroke-linejoin="round"><path d="M6 3h8l4 4v14H6V3Z"/><path d="M14 3v5h5M9 12h6M9 16h6"/></symbol>
  <symbol id="ico-form" viewBox="0 0 24 24" fill="none" stroke="currentColor" stroke-width="1.8" stroke-linecap="round" stroke-linejoin="round"><rect x="4" y="3" width="16" height="18" rx="2"/><path d="M8 8h8M8 12h8M8 16h4"/></symbol>
  <symbol id="ico-database" viewBox="0 0 24 24" fill="none" stroke="currentColor" stroke-width="1.8" stroke-linecap="round" stroke-linejoin="round"><ellipse cx="12" cy="6" rx="7" ry="3"/><path d="M5 6v12c0 1.7 3.1 3 7 3s7-1.3 7-3V6M5 12c0 1.7 3.1 3 7 3s7-1.3 7-3"/></symbol>
  <symbol id="ico-shield" viewBox="0 0 24 24" fill="none" stroke="currentColor" stroke-width="1.8" stroke-linecap="round" stroke-linejoin="round"><path d="M12 3 20 6v6c0 4.6-3.1 7.5-8 9-4.9-1.5-8-4.4-8-9V6l8-3Z"/><path d="m9 12 2 2 4-5"/></symbol>
  <symbol id="ico-server" viewBox="0 0 24 24" fill="none" stroke="currentColor" stroke-width="1.8" stroke-linecap="round" stroke-linejoin="round"><rect x="4" y="4" width="16" height="7" rx="2"/><rect x="4" y="13" width="16" height="7" rx="2"/><path d="M8 7h.1M8 16h.1M11 7h5M11 16h5"/></symbol>
  <symbol id="ico-api" viewBox="0 0 24 24" fill="none" stroke="currentColor" stroke-width="1.8" stroke-linecap="round" stroke-linejoin="round"><path d="M8 8 4 12l4 4M16 8l4 4-4 4M14 4 10 20"/></symbol>
  <symbol id="ico-message" viewBox="0 0 24 24" fill="none" stroke="currentColor" stroke-width="1.8" stroke-linecap="round" stroke-linejoin="round"><path d="M4 5h16v11H9l-5 4V5Z"/><path d="M8 9h8M8 12h5"/></symbol>
  <symbol id="ico-terminal" viewBox="0 0 24 24" fill="none" stroke="currentColor" stroke-width="1.8" stroke-linecap="round" stroke-linejoin="round"><rect x="6" y="3" width="12" height="18" rx="2"/><path d="M10 6h4M10 18h4"/></symbol>
  <symbol id="ico-settings" viewBox="0 0 24 24" fill="none" stroke="currentColor" stroke-width="1.8" stroke-linecap="round" stroke-linejoin="round"><circle cx="12" cy="12" r="3"/><path d="M12 2v4M12 18v4M2 12h4M18 12h4M4.9 4.9l2.8 2.8M16.3 16.3l2.8 2.8M19.1 4.9l-2.8 2.8M7.7 16.3l-2.8 2.8"/></symbol>
  <symbol id="ico-alert" viewBox="0 0 24 24" fill="none" stroke="currentColor" stroke-width="1.8" stroke-linecap="round" stroke-linejoin="round"><path d="M12 3 22 20H2L12 3Z"/><path d="M12 9v5M12 17h.1"/></symbol>
  <symbol id="ico-check" viewBox="0 0 24 24" fill="none" stroke="currentColor" stroke-width="1.8" stroke-linecap="round" stroke-linejoin="round"><circle cx="12" cy="12" r="9"/><path d="m8 12 3 3 5-7"/></symbol>
  <symbol id="ico-vehicle" viewBox="0 0 24 24" fill="none" stroke="currentColor" stroke-width="1.8" stroke-linecap="round" stroke-linejoin="round"><path d="M4 16V9h12l4 4v3M6 16h12"/><circle cx="7" cy="17" r="2"/><circle cx="17" cy="17" r="2"/></symbol>
  <symbol id="ico-sensor" viewBox="0 0 24 24" fill="none" stroke="currentColor" stroke-width="1.8" stroke-linecap="round" stroke-linejoin="round"><path d="M12 18v3M8 21h8"/><circle cx="12" cy="12" r="2"/><path d="M8.5 8.5a5 5 0 0 0 0 7M15.5 8.5a5 5 0 0 1 0 7M5.5 5.5a9 9 0 0 0 0 13M18.5 5.5a9 9 0 0 1 0 13"/></symbol>
  <symbol id="ico-cloud" viewBox="0 0 24 24" fill="none" stroke="currentColor" stroke-width="1.8" stroke-linecap="round" stroke-linejoin="round"><path d="M7 18a4 4 0 0 1-.5-8A6 6 0 0 1 18 8.5 4 4 0 1 1 18 18H7Z"/></symbol>
  <symbol id="ico-network" viewBox="0 0 24 24" fill="none" stroke="currentColor" stroke-width="1.8" stroke-linecap="round" stroke-linejoin="round"><circle cx="5" cy="12" r="2"/><circle cx="12" cy="5" r="2"/><circle cx="19" cy="12" r="2"/><circle cx="12" cy="19" r="2"/><path d="M6.5 10.5 10.5 6.5M13.5 6.5l4 4M17.5 13.5l-4 4M10.5 17.5l-4-4"/></symbol>
  <symbol id="ico-lock" viewBox="0 0 24 24" fill="none" stroke="currentColor" stroke-width="1.8" stroke-linecap="round" stroke-linejoin="round"><rect x="5" y="10" width="14" height="11" rx="2"/><path d="M8 10V7a4 4 0 0 1 8 0v3M12 14v3"/></symbol>
  <symbol id="ico-audit" viewBox="0 0 24 24" fill="none" stroke="currentColor" stroke-width="1.8" stroke-linecap="round" stroke-linejoin="round"><path d="M6 3h10l3 3v15H6V3Z"/><path d="M9 10h6M9 14h4"/><circle cx="16.5" cy="16.5" r="3"/><path d="m19 19 2 2"/></symbol>
  <symbol id="ico-ai" viewBox="0 0 24 24" fill="none" stroke="currentColor" stroke-width="1.8" stroke-linecap="round" stroke-linejoin="round"><path d="M8 3v4M16 3v4M5 9h14v10H5V9Z"/><path d="M3 12h2M19 12h2M9 13h.1M15 13h.1M9 16h6"/></symbol>
  <symbol id="ico-browser" viewBox="0 0 24 24" fill="none" stroke="currentColor" stroke-width="1.8" stroke-linecap="round" stroke-linejoin="round"><rect x="3" y="4" width="18" height="16" rx="2"/><path d="M3 9h18M7 6.5h.1M10 6.5h.1"/></symbol>
  <symbol id="ico-mobile" viewBox="0 0 24 24" fill="none" stroke="currentColor" stroke-width="1.8" stroke-linecap="round" stroke-linejoin="round"><rect x="7" y="2.5" width="10" height="19" rx="2"/><path d="M10 5h4M11 18.5h2"/></symbol>
  <symbol id="ico-camera" viewBox="0 0 24 24" fill="none" stroke="currentColor" stroke-width="1.8" stroke-linecap="round" stroke-linejoin="round"><path d="M4 7h5l2-2h4l2 2h3v12H4V7Z"/><circle cx="12" cy="13" r="4"/></symbol>
  <symbol id="ico-gps" viewBox="0 0 24 24" fill="none" stroke="currentColor" stroke-width="1.8" stroke-linecap="round" stroke-linejoin="round"><circle cx="12" cy="12" r="3"/><path d="M12 2v6M12 16v6M2 12h6M16 12h6M5 5l4 4M15 15l4 4M19 5l-4 4M9 15l-4 4"/></symbol>
  <symbol id="ico-gateway" viewBox="0 0 24 24" fill="none" stroke="currentColor" stroke-width="1.8" stroke-linecap="round" stroke-linejoin="round"><path d="M3 12h18M12 3v18"/><path d="m7 8 5-5 5 5M7 16l5 5 5-5"/></symbol>
  <symbol id="ico-queue" viewBox="0 0 24 24" fill="none" stroke="currentColor" stroke-width="1.8" stroke-linecap="round" stroke-linejoin="round"><rect x="3" y="5" width="18" height="4" rx="1"/><rect x="3" y="11" width="14" height="4" rx="1"/><rect x="3" y="17" width="10" height="4" rx="1"/></symbol>
  <symbol id="ico-file" viewBox="0 0 24 24" fill="none" stroke="currentColor" stroke-width="1.8" stroke-linecap="round" stroke-linejoin="round"><path d="M6 3h9l4 4v14H6V3Z"/><path d="M15 3v5h4M9 12h7M9 16h7"/></symbol>
  <symbol id="ico-search" viewBox="0 0 24 24" fill="none" stroke="currentColor" stroke-width="1.8" stroke-linecap="round" stroke-linejoin="round"><circle cx="10" cy="10" r="6"/><path d="m15 15 6 6"/></symbol>
  <symbol id="ico-chart" viewBox="0 0 24 24" fill="none" stroke="currentColor" stroke-width="1.8" stroke-linecap="round" stroke-linejoin="round"><path d="M4 20h17M5 20V10h4v10M11 20V5h4v15M17 20v-8h4"/></symbol>
  <symbol id="ico-calendar" viewBox="0 0 24 24" fill="none" stroke="currentColor" stroke-width="1.8" stroke-linecap="round" stroke-linejoin="round"><rect x="4" y="5" width="16" height="15" rx="2"/><path d="M8 3v5M16 3v5M4 10h16M8 14h3M13 14h3"/></symbol>
  <symbol id="ico-bell" viewBox="0 0 24 24" fill="none" stroke="currentColor" stroke-width="1.8" stroke-linecap="round" stroke-linejoin="round"><path d="M5 17h14l-2-3V9a5 5 0 0 0-10 0v5l-2 3ZM10 20h4"/></symbol>
  <symbol id="ico-email" viewBox="0 0 24 24" fill="none" stroke="currentColor" stroke-width="1.8" stroke-linecap="round" stroke-linejoin="round"><rect x="3" y="5" width="18" height="14" rx="2"/><path d="m4 7 8 6 8-6"/></symbol>
  <symbol id="ico-key" viewBox="0 0 24 24" fill="none" stroke="currentColor" stroke-width="1.8" stroke-linecap="round" stroke-linejoin="round"><circle cx="8" cy="12" r="5"/><path d="M13 12h8M18 12v4M15 12v3"/></symbol>
  <symbol id="ico-firewall" viewBox="0 0 24 24" fill="none" stroke="currentColor" stroke-width="1.8" stroke-linecap="round" stroke-linejoin="round"><path d="M4 5h16v14H4V5ZM4 10h16M4 15h16M9 5v5M15 10v5M9 15v4"/></symbol>
  <symbol id="ico-backup" viewBox="0 0 24 24" fill="none" stroke="currentColor" stroke-width="1.8" stroke-linecap="round" stroke-linejoin="round"><ellipse cx="10" cy="7" rx="6" ry="3"/><path d="M4 7v8c0 1.7 2.7 3 6 3M16 7v4"/><path d="M14 17a4 4 0 1 0 1-4M14 13v4h4"/></symbol>
  <symbol id="ico-cluster" viewBox="0 0 24 24" fill="none" stroke="currentColor" stroke-width="1.8" stroke-linecap="round" stroke-linejoin="round"><rect x="3" y="4" width="8" height="6" rx="1"/><rect x="13" y="4" width="8" height="6" rx="1"/><rect x="8" y="15" width="8" height="6" rx="1"/><path d="M7 10v2h10v-2M12 12v3"/></symbol>
  <symbol id="ico-monitor" viewBox="0 0 24 24" fill="none" stroke="currentColor" stroke-width="1.8" stroke-linecap="round" stroke-linejoin="round"><rect x="3" y="4" width="18" height="12" rx="2"/><path d="M8 21h8M12 16v5M6 11h3l2-4 3 6 2-3h2"/></symbol>
  <symbol id="ico-upload" viewBox="0 0 24 24" fill="none" stroke="currentColor" stroke-width="1.8" stroke-linecap="round" stroke-linejoin="round"><path d="M12 16V3M7 8l5-5 5 5M4 16v5h16v-5"/></symbol>
  <symbol id="ico-download" viewBox="0 0 24 24" fill="none" stroke="currentColor" stroke-width="1.8" stroke-linecap="round" stroke-linejoin="round"><path d="M12 3v13M7 11l5 5 5-5M4 16v5h16v-5"/></symbol>
  <symbol id="ico-contract" viewBox="0 0 24 24" fill="none" stroke="currentColor" stroke-width="1.8" stroke-linecap="round" stroke-linejoin="round"><path d="M6 3h12v18H6V3Z"/><path d="M9 8h6M9 12h6M9 16h3M14 17l3-3"/></symbol>
  <style>
    .fm { font-family:"SimHei","Microsoft YaHei","Noto Sans SC",sans-serif; }
    .title { font-weight:700; font-size:56px; font-family:"SimHei","Microsoft YaHei","Noto Sans SC",sans-serif; fill:#fff; letter-spacing:1px; }
    .subtitle { font-weight:500; font-size:28px; font-family:"SimHei","Microsoft YaHei","Noto Sans SC",sans-serif; fill:#e8f2fb; }
    .section { font-weight:700; font-size:39px; font-family:"SimHei","Microsoft YaHei","Noto Sans SC",sans-serif; fill:#1e293b; }
    .section-en { font-weight:600; font-size:23px; font-family:Arial,sans-serif; fill:#526173; letter-spacing:1.3px; }
    .node { font-weight:600; font-size:38px; font-family:"SimHei","Microsoft YaHei","Noto Sans SC",sans-serif; fill:#1e293b; }
    .node-lg { font-weight:700; font-size:45px; font-family:"SimHei","Microsoft YaHei","Noto Sans SC",sans-serif; fill:#1e293b; }
    .desc { font-weight:500; font-size:28px; font-family:"SimHei","Microsoft YaHei","Noto Sans SC",sans-serif; fill:#526173; }
    .dark-node { font-weight:600; font-size:38px; font-family:"SimHei","Microsoft YaHei","Noto Sans SC",sans-serif; fill:#fff; }
    .note { font-weight:500; font-size:24px; font-family:"SimHei","Microsoft YaHei","Noto Sans SC",sans-serif; fill:#526173; }
    .edge-label { font-weight:700; font-size:28px; font-family:"SimHei","Microsoft YaHei","Noto Sans SC",sans-serif; fill:#1e293b; }
  </style>
</defs>
<rect x="0" y="0" width="1600" height="1080" rx="0" fill="#ffffff" stroke="none" />
<rect width="1600" height="1080" fill="url(#grid)" opacity="0"/>
<rect x="0" y="0" width="1600" height="116" rx="0" fill="url(#header)" stroke="none" />
<rect x="0" y="114" width="1600" height="3" rx="0" fill="#1f5f8b" stroke="none" />
<text x="50" y="57" class="title" text-anchor="start">独立绘图工具接口架构</text>
<text x="52" y="92" class="subtitle" text-anchor="start">外部 JSON 输入 · 渲染规划 · 产物清单输出</text>
<rect x="42" y="148" width="1520" height="165" rx="12" fill="#ffffff" stroke="#cbd8e6" filter="url(#shadow)"/>
<rect x="42" y="148" width="255" height="165" rx="12" fill="#f6f9fc" stroke="#cbd8e6" />
<text x="66" y="195" class="section" text-anchor="start">服务对象</text>
<text x="66" y="225" class="section-en" text-anchor="start">USERS &amp; ACCESS</text>
<rect x="331" y="176" width="391" height="116" rx="9" fill="#ffffff" stroke="#cbd8e6" filter="url(#shadow)"/>
<rect x="331" y="185" width="4" height="98" rx="2" fill="#cbd8e6" stroke="none" />
<g color="#1f5f8b"><use href="#ico-api" x="347" y="215" width="38" height="38"/></g>
<text x="395" y="227.5" class="node" text-anchor="start">外部系统</text>
<text x="395" y="267.5" class="desc" text-anchor="start">生成 v2 JSON</text>
<rect x="738" y="176" width="391" height="116" rx="9" fill="#ffffff" stroke="#cbd8e6" filter="url(#shadow)"/>
<rect x="738" y="185" width="4" height="98" rx="2" fill="#cbd8e6" stroke="none" />
<g color="#1f5f8b"><use href="#ico-ai" x="754" y="215" width="38" height="38"/></g>
<text x="802" y="227.5" class="node" text-anchor="start">AI 调用方</text>
<text x="802" y="267.5" class="desc" text-anchor="start">只描述语义数据</text>
<rect x="1145" y="176" width="391" height="116" rx="9" fill="#ffffff" stroke="#cbd8e6" filter="url(#shadow)"/>
<rect x="1145" y="185" width="4" height="98" rx="2" fill="#cbd8e6" stroke="none" />
<g color="#1f5f8b"><use href="#ico-workflow" x="1161" y="215" width="38" height="38"/></g>
<text x="1209" y="227.5" class="node" text-anchor="start">bid-tool</text>
<text x="1209" y="267.5" class="desc" text-anchor="start">作为适配调用方</text>
<rect x="42" y="329" width="1520" height="198" rx="12" fill="#ffffff" stroke="#cbd8e6" filter="url(#shadow)"/>
<rect x="42" y="329" width="255" height="198" rx="12" fill="#f6f9fc" stroke="#cbd8e6" />
<text x="66" y="376" class="section" text-anchor="start">外部接口层</text>
<text x="66" y="406" class="section-en" text-anchor="start"></text>
<rect x="317" y="357" width="399" height="128" rx="9" fill="#ffffff" stroke="#cbd8e6" filter="url(#shadow)"/>
<rect x="317" y="366" width="4" height="110" rx="2" fill="#cbd8e6" stroke="none" />
<g color="#1f5f8b"><use href="#ico-terminal" x="333" y="402" width="38" height="38"/></g>
<text x="381" y="414.5" class="node" text-anchor="start">独立命令行</text>
<text x="381" y="454.5" class="desc" text-anchor="start">bid-illustrate</text>
<rect x="730" y="357" width="399" height="128" rx="9" fill="#ffffff" stroke="#cbd8e6" filter="url(#shadow)"/>
<rect x="730" y="366" width="4" height="110" rx="2" fill="#cbd8e6" stroke="none" />
<g color="#1f5f8b"><use href="#ico-api" x="746" y="402" width="38" height="38"/></g>
<text x="794" y="414.5" class="node" text-anchor="start">Python 接口</text>
<text x="794" y="454.5" class="desc" text-anchor="start">api 模块</text>
<rect x="1143" y="357" width="399" height="128" rx="9" fill="#ffffff" stroke="#cbd8e6" filter="url(#shadow)"/>
<rect x="1143" y="366" width="4" height="110" rx="2" fill="#cbd8e6" stroke="none" />
<g color="#1f5f8b"><use href="#ico-server" x="1159" y="402" width="38" height="38"/></g>
<text x="1207" y="414.5" class="node" text-anchor="start">独立工具包</text>
<text x="1207" y="454.5" class="desc" text-anchor="start">解压即用</text>
<rect x="42" y="541" width="1520" height="198" rx="12" fill="#ffffff" stroke="#cbd8e6" filter="url(#shadow)"/>
<rect x="42" y="541" width="255" height="198" rx="12" fill="#f6f9fc" stroke="#cbd8e6" />
<text x="66" y="588" class="section" text-anchor="start">平台核心层</text>
<text x="66" y="618" class="section-en" text-anchor="start"></text>
<rect x="317" y="569" width="399" height="128" rx="9" fill="#ffffff" stroke="#cbd8e6" filter="url(#shadow)"/>
<rect x="317" y="578" width="4" height="110" rx="2" fill="#cbd8e6" stroke="none" />
<g color="#1f5f8b"><use href="#ico-check" x="333" y="614" width="38" height="38"/></g>
<text x="381" y="626.5" class="node" text-anchor="start">协议校验</text>
<text x="381" y="666.5" class="desc" text-anchor="start">Schema</text>
<rect x="730" y="569" width="399" height="128" rx="9" fill="#ffffff" stroke="#cbd8e6" filter="url(#shadow)"/>
<rect x="730" y="578" width="4" height="110" rx="2" fill="#cbd8e6" stroke="none" />
<g color="#1f5f8b"><use href="#ico-workflow" x="746" y="614" width="38" height="38"/></g>
<text x="794" y="645.5" class="node" text-anchor="start">渲染规划</text>
<rect x="1143" y="569" width="399" height="128" rx="9" fill="#ffffff" stroke="#cbd8e6" filter="url(#shadow)"/>
<rect x="1143" y="578" width="4" height="110" rx="2" fill="#cbd8e6" stroke="none" />
<g color="#1f5f8b"><use href="#ico-report" x="1159" y="614" width="38" height="38"/></g>
<text x="1207" y="626.5" class="node" text-anchor="start">清单汇总</text>
<text x="1207" y="666.5" class="desc" text-anchor="start">Manifest</text>
<rect x="42" y="753" width="1520" height="198" rx="12" fill="#ffffff" stroke="#cbd8e6" filter="url(#shadow)"/>
<rect x="42" y="753" width="255" height="198" rx="12" fill="#f6f9fc" stroke="#cbd8e6" />
<text x="66" y="800" class="section" text-anchor="start">渲染器层</text>
<text x="66" y="830" class="section-en" text-anchor="start"></text>
<rect x="317" y="781" width="295" height="128" rx="9" fill="#ffffff" stroke="#cbd8e6" filter="url(#shadow)"/>
<rect x="317" y="790" width="4" height="110" rx="2" fill="#cbd8e6" stroke="none" />
<g color="#1f5f8b"><use href="#ico-browser" x="333" y="826" width="38" height="38"/></g>
<text x="381" y="838.5" class="node" text-anchor="start">网页图</text>
<text x="381" y="878.5" class="desc" text-anchor="start">HTML/CSS</text>
<rect x="626" y="781" width="295" height="128" rx="9" fill="#ffffff" stroke="#cbd8e6" filter="url(#shadow)"/>
<rect x="626" y="790" width="4" height="110" rx="2" fill="#cbd8e6" stroke="none" />
<g color="#1f5f8b"><use href="#ico-form" x="642" y="826" width="38" height="38"/></g>
<text x="690" y="838.5" class="node" text-anchor="start">矢量图</text>
<text x="690" y="878.5" class="desc" text-anchor="start">SVG</text>
<rect x="935" y="781" width="295" height="128" rx="9" fill="#ffffff" stroke="#cbd8e6" filter="url(#shadow)"/>
<rect x="935" y="790" width="4" height="110" rx="2" fill="#cbd8e6" stroke="none" />
<g color="#1f5f8b"><use href="#ico-chart" x="951" y="826" width="38" height="38"/></g>
<text x="999" y="838.5" class="node" text-anchor="start">数据图</text>
<text x="999" y="878.5" class="desc" text-anchor="start">ECharts</text>
<rect x="1244" y="781" width="295" height="128" rx="9" fill="#ffffff" stroke="#cbd8e6" filter="url(#shadow)"/>
<rect x="1244" y="790" width="4" height="110" rx="2" fill="#cbd8e6" stroke="none" />
<g color="#1f5f8b"><use href="#ico-network" x="1260" y="826" width="38" height="38"/></g>
<text x="1308" y="838.5" class="node" text-anchor="start">关系图</text>
<text x="1308" y="878.5" class="desc" text-anchor="start">Mermaid/Gr…</text>
<path d="M802 315V325" stroke="#526173" stroke-width="1.5" stroke-dasharray="4 3" marker-end="url(#arrow)"/>
<path d="M802 529V537" stroke="#526173" stroke-width="1.5" stroke-dasharray="4 3" marker-end="url(#arrow)"/>
<path d="M802 741V749" stroke="#526173" stroke-width="1.5" stroke-dasharray="4 3" marker-end="url(#arrow)"/>
<rect x="42" y="1002" width="1516" height="60" rx="8" fill="#f6f9fc" stroke="#cbd8e6" />
<text x="59" y="1040" class="note" text-anchor="start">注：该示例只验证绘图工具自身闭环，不读取任何 S1-S9 标书阶段目录。</text>
</svg>