<svg xmlns="http://www.w3.org/2000/svg" width="1600" height="1120" viewBox="0 0 1600 1120">
<defs>
  <linearGradient id="header" x2="1"><stop stop-color="#7c2d12"/><stop offset="1" stop-color="#ea580c"/></linearGradient>
  <filter id="shadow" x="-8%" y="-12%" width="116%" height="130%"><feDropShadow dx="0" dy="1" stdDeviation="1.5" flood-color="#183652" flood-opacity=".035"/></filter>
  <pattern id="grid" width="32" height="32" patternUnits="userSpaceOnUse"><circle cx="16" cy="16" r="1" fill="#fed7aa" opacity=".35"/></pattern>
  <marker id="arrow" markerWidth="9" markerHeight="9" refX="8" refY="4.5" orient="auto"><path d="M0 0L9 4.5L0 9Z" fill="#7c4a2d"/></marker>
  <marker id="arrow-flow" markerWidth="10" markerHeight="10" refX="8.5" refY="5" orient="auto"><path d="M0 0L10 5L0 10Z" fill="#f97316"/></marker>
  <marker id="arrow-data" markerWidth="10" markerHeight="10" refX="8.5" refY="5" orient="auto"><path d="M0 0L10 5L0 10Z" fill="#0f766e"/></marker>
  <marker id="arrow-control" markerWidth="10" markerHeight="10" refX="8.5" refY="5" orient="auto"><path d="M0 0L10 5L0 10Z" fill="#7c3aed"/></marker>
  <marker id="arrow-alert" markerWidth="10" markerHeight="10" refX="8.5" refY="5" orient="auto"><path d="M0 0L10 5L0 10Z" fill="#dc2626"/></marker>
  <marker id="arrow-sync" markerWidth="10" markerHeight="10" refX="8.5" refY="5" orient="auto"><path d="M0 0L10 5L0 10Z" fill="#ca8a04"/></marker>
  <symbol id="ico-government" viewBox="0 0 24 24" fill="none" stroke="currentColor" stroke-width="1.8" stroke-linecap="round" stroke-linejoin="round"><path d="M3 9h18M5 9V7l7-4 7 4v2M6 20h12M7 9v9M12 9v9M17 9v9"/></symbol>
  <symbol id="ico-organization" viewBox="0 0 24 24" fill="none" stroke="currentColor" stroke-width="1.8" stroke-linecap="round" stroke-linejoin="round"><path d="M4 21V5h10v16M14 10h6v11M8 9h2M8 13h2M8 17h2M17 14h1M17 18h1"/></symbol>
  <symbol id="ico-user" viewBox="0 0 24 24" fill="none" stroke="currentColor" stroke-width="1.8" stroke-linecap="round" stroke-linejoin="round"><circle cx="12" cy="7.5" r="3.5"/><path d="M5 21v-2.5a7 7 0 0 1 14 0V21"/></symbol>
  <symbol id="ico-admin" viewBox="0 0 24 24" fill="none" stroke="currentColor" stroke-width="1.8" stroke-linecap="round" stroke-linejoin="round"><circle cx="10" cy="7.5" r="3.2"/><path d="M3.5 19a6.5 6.5 0 0 1 10.5-5.1"/><path d="M18 14v7M14.5 17.5h7"/></symbol>
  <symbol id="ico-radiation" viewBox="0 0 24 24" fill="none" stroke="currentColor" stroke-width="1.8" stroke-linecap="round" stroke-linejoin="round"><circle cx="12" cy="12" r="2.2"/><path d="M12 9V3a6 6 0 0 1 5.2 3l-5.2 3ZM9.4 13.5l-5.2 3a6 6 0 0 1 0-6l5.2 3Zm5.2 0 5.2 3a6 6 0 0 1-5.2 3v-6Z"/></symbol>
  <symbol id="ico-location" viewBox="0 0 24 24" fill="none" stroke="currentColor" stroke-width="1.8" stroke-linecap="round" stroke-linejoin="round"><path d="M12 21s7-6.1 7-12A7 7 0 0 0 5 9c0 5.9 7 12 7 12Z"/><circle cx="12" cy="9" r="2.5"/></symbol>
  <symbol id="ico-map" viewBox="0 0 24 24" fill="none" stroke="currentColor" stroke-width="1.8" stroke-linecap="round" stroke-linejoin="round"><path d="M3 6.5 9 4l6 2.5L21 4v14l-6 2.5L9 18l-6 2.5v-14ZM9 4v14M15 6.5v14"/></symbol>
  <symbol id="ico-workflow" viewBox="0 0 24 24" fill="none" stroke="currentColor" stroke-width="1.8" stroke-linecap="round" stroke-linejoin="round"><rect x="3" y="4" width="7" height="5" rx="1"/><rect x="14" y="4" width="7" height="5" rx="1"/><rect x="9" y="15" width="7" height="5" rx="1"/><path d="M10 6.5h4M17.5 9v3.5H12v2.5"/></symbol>
  <symbol id="ico-dashboard" viewBox="0 0 24 24" fill="none" stroke="currentColor" stroke-width="1.8" stroke-linecap="round" stroke-linejoin="round"><path d="M4 20V10h4v10M10 20V4h4v16M16 20v-8h4v8M3 20h18"/></symbol>
  <symbol id="ico-report" viewBox="0 0 24 24" fill="none" stroke="currentColor" stroke-width="1.8" stroke-linecap="round" stroke-linejoin="round"><path d="M6 3h8l4 4v14H6V3Z"/><path d="M14 3v5h5M9 12h6M9 16h6"/></symbol>
  <symbol id="ico-form" viewBox="0 0 24 24" fill="none" stroke="currentColor" stroke-width="1.8" stroke-linecap="round" stroke-linejoin="round"><rect x="4" y="3" width="16" height="18" rx="2"/><path d="M8 8h8M8 12h8M8 16h4"/></symbol>
  <symbol id="ico-database" viewBox="0 0 24 24" fill="none" stroke="currentColor" stroke-width="1.8" stroke-linecap="round" stroke-linejoin="round"><ellipse cx="12" cy="6" rx="7" ry="3"/><path d="M5 6v12c0 1.7 3.1 3 7 3s7-1.3 7-3V6M5 12c0 1.7 3.1 3 7 3s7-1.3 7-3"/></symbol>
  <symbol id="ico-shield" viewBox="0 0 24 24" fill="none" stroke="currentColor" stroke-width="1.8" stroke-linecap="round" stroke-linejoin="round"><path d="M12 3 20 6v6c0 4.6-3.1 7.5-8 9-4.9-1.5-8-4.4-8-9V6l8-3Z"/><path d="m9 12 2 2 4-5"/></symbol>
  <symbol id="ico-server" viewBox="0 0 24 24" fill="none" stroke="currentColor" stroke-width="1.8" stroke-linecap="round" stroke-linejoin="round"><rect x="4" y="4" width="16" height="7" rx="2"/><rect x="4" y="13" width="16" height="7" rx="2"/><path d="M8 7h.1M8 16h.1M11 7h5M11 16h5"/></symbol>
  <symbol id="ico-api" viewBox="0 0 24 24" fill="none" stroke="currentColor" stroke-width="1.8" stroke-linecap="round" stroke-linejoin="round"><path d="M8 8 4 12l4 4M16 8l4 4-4 4M14 4 10 20"/></symbol>
  <symbol id="ico-message" viewBox="0 0 24 24" fill="none" stroke="currentColor" stroke-width="1.8" stroke-linecap="round" stroke-linejoin="round"><path d="M4 5h16v11H9l-5 4V5Z"/><path d="M8 9h8M8 12h5"/></symbol>
  <symbol id="ico-terminal" viewBox="0 0 24 24" fill="none" stroke="currentColor" stroke-width="1.8" stroke-linecap="round" stroke-linejoin="round"><rect x="6" y="3" width="12" height="18" rx="2"/><path d="M10 6h4M10 18h4"/></symbol>
  <symbol id="ico-settings" viewBox="0 0 24 24" fill="none" stroke="currentColor" stroke-width="1.8" stroke-linecap="round" stroke-linejoin="round"><circle cx="12" cy="12" r="3"/><path d="M12 2v4M12 18v4M2 12h4M18 12h4M4.9 4.9l2.8 2.8M16.3 16.3l2.8 2.8M19.1 4.9l-2.8 2.8M7.7 16.3l-2.8 2.8"/></symbol>
  <symbol id="ico-alert" viewBox="0 0 24 24" fill="none" stroke="currentColor" stroke-width="1.8" stroke-linecap="round" stroke-linejoin="round"><path d="M12 3 22 20H2L12 3Z"/><path d="M12 9v5M12 17h.1"/></symbol>
  <symbol id="ico-check" viewBox="0 0 24 24" fill="none" stroke="currentColor" stroke-width="1.8" stroke-linecap="round" stroke-linejoin="round"><circle cx="12" cy="12" r="9"/><path d="m8 12 3 3 5-7"/></symbol>
  <symbol id="ico-vehicle" viewBox="0 0 24 24" fill="none" stroke="currentColor" stroke-width="1.8" stroke-linecap="round" stroke-linejoin="round"><path d="M4 16V9h12l4 4v3M6 16h12"/><circle cx="7" cy="17" r="2"/><circle cx="17" cy="17" r="2"/></symbol>
  <symbol id="ico-sensor" viewBox="0 0 24 24" fill="none" stroke="currentColor" stroke-width="1.8" stroke-linecap="round" stroke-linejoin="round"><path d="M12 18v3M8 21h8"/><circle cx="12" cy="12" r="2"/><path d="M8.5 8.5a5 5 0 0 0 0 7M15.5 8.5a5 5 0 0 1 0 7M5.5 5.5a9 9 0 0 0 0 13M18.5 5.5a9 9 0 0 1 0 13"/></symbol>
  <symbol id="ico-cloud" viewBox="0 0 24 24" fill="none" stroke="currentColor" stroke-width="1.8" stroke-linecap="round" stroke-linejoin="round"><path d="M7 18a4 4 0 0 1-.5-8A6 6 0 0 1 18 8.5 4 4 0 1 1 18 18H7Z"/></symbol>
  <symbol id="ico-network" viewBox="0 0 24 24" fill="none" stroke="currentColor" stroke-width="1.8" stroke-linecap="round" stroke-linejoin="round"><circle cx="5" cy="12" r="2"/><circle cx="12" cy="5" r="2"/><circle cx="19" cy="12" r="2"/><circle cx="12" cy="19" r="2"/><path d="M6.5 10.5 10.5 6.5M13.5 6.5l4 4M17.5 13.5l-4 4M10.5 17.5l-4-4"/></symbol>
  <symbol id="ico-lock" viewBox="0 0 24 24" fill="none" stroke="currentColor" stroke-width="1.8" stroke-linecap="round" stroke-linejoin="round"><rect x="5" y="10" width="14" height="11" rx="2"/><path d="M8 10V7a4 4 0 0 1 8 0v3M12 14v3"/></symbol>
  <symbol id="ico-audit" viewBox="0 0 24 24" fill="none" stroke="currentColor" stroke-width="1.8" stroke-linecap="round" stroke-linejoin="round"><path d="M6 3h10l3 3v15H6V3Z"/><path d="M9 10h6M9 14h4"/><circle cx="16.5" cy="16.5" r="3"/><path d="m19 19 2 2"/></symbol>
  <symbol id="ico-ai" viewBox="0 0 24 24" fill="none" stroke="currentColor" stroke-width="1.8" stroke-linecap="round" stroke-linejoin="round"><path d="M8 3v4M16 3v4M5 9h14v10H5V9Z"/><path d="M3 12h2M19 12h2M9 13h.1M15 13h.1M9 16h6"/></symbol>
  <symbol id="ico-browser" viewBox="0 0 24 24" fill="none" stroke="currentColor" stroke-width="1.8" stroke-linecap="round" stroke-linejoin="round"><rect x="3" y="4" width="18" height="16" rx="2"/><path d="M3 9h18M7 6.5h.1M10 6.5h.1"/></symbol>
  <symbol id="ico-mobile" viewBox="0 0 24 24" fill="none" stroke="currentColor" stroke-width="1.8" stroke-linecap="round" stroke-linejoin="round"><rect x="7" y="2.5" width="10" height="19" rx="2"/><path d="M10 5h4M11 18.5h2"/></symbol>
  <symbol id="ico-camera" viewBox="0 0 24 24" fill="none" stroke="currentColor" stroke-width="1.8" stroke-linecap="round" stroke-linejoin="round"><path d="M4 7h5l2-2h4l2 2h3v12H4V7Z"/><circle cx="12" cy="13" r="4"/></symbol>
  <symbol id="ico-gps" viewBox="0 0 24 24" fill="none" stroke="currentColor" stroke-width="1.8" stroke-linecap="round" stroke-linejoin="round"><circle cx="12" cy="12" r="3"/><path d="M12 2v6M12 16v6M2 12h6M16 12h6M5 5l4 4M15 15l4 4M19 5l-4 4M9 15l-4 4"/></symbol>
  <symbol id="ico-gateway" viewBox="0 0 24 24" fill="none" stroke="currentColor" stroke-width="1.8" stroke-linecap="round" stroke-linejoin="round"><path d="M3 12h18M12 3v18"/><path d="m7 8 5-5 5 5M7 16l5 5 5-5"/></symbol>
  <symbol id="ico-queue" viewBox="0 0 24 24" fill="none" stroke="currentColor" stroke-width="1.8" stroke-linecap="round" stroke-linejoin="round"><rect x="3" y="5" width="18" height="4" rx="1"/><rect x="3" y="11" width="14" height="4" rx="1"/><rect x="3" y="17" width="10" height="4" rx="1"/></symbol>
  <symbol id="ico-file" viewBox="0 0 24 24" fill="none" stroke="currentColor" stroke-width="1.8" stroke-linecap="round" stroke-linejoin="round"><path d="M6 3h9l4 4v14H6V3Z"/><path d="M15 3v5h4M9 12h7M9 16h7"/></symbol>
  <symbol id="ico-search" viewBox="0 0 24 24" fill="none" stroke="currentColor" stroke-width="1.8" stroke-linecap="round" stroke-linejoin="round"><circle cx="10" cy="10" r="6"/><path d="m15 15 6 6"/></symbol>
  <symbol id="ico-chart" viewBox="0 0 24 24" fill="none" stroke="currentColor" stroke-width="1.8" stroke-linecap="round" stroke-linejoin="round"><path d="M4 20h17M5 20V10h4v10M11 20V5h4v15M17 20v-8h4"/></symbol>
  <symbol id="ico-calendar" viewBox="0 0 24 24" fill="none" stroke="currentColor" stroke-width="1.8" stroke-linecap="round" stroke-linejoin="round"><rect x="4" y="5" width="16" height="15" rx="2"/><path d="M8 3v5M16 3v5M4 10h16M8 14h3M13 14h3"/></symbol>
  <symbol id="ico-bell" viewBox="0 0 24 24" fill="none" stroke="currentColor" stroke-width="1.8" stroke-linecap="round" stroke-linejoin="round"><path d="M5 17h14l-2-3V9a5 5 0 0 0-10 0v5l-2 3ZM10 20h4"/></symbol>
  <symbol id="ico-email" viewBox="0 0 24 24" fill="none" stroke="currentColor" stroke-width="1.8" stroke-linecap="round" stroke-linejoin="round"><rect x="3" y="5" width="18" height="14" rx="2"/><path d="m4 7 8 6 8-6"/></symbol>
  <symbol id="ico-key" viewBox="0 0 24 24" fill="none" stroke="currentColor" stroke-width="1.8" stroke-linecap="round" stroke-linejoin="round"><circle cx="8" cy="12" r="5"/><path d="M13 12h8M18 12v4M15 12v3"/></symbol>
  <symbol id="ico-firewall" viewBox="0 0 24 24" fill="none" stroke="currentColor" stroke-width="1.8" stroke-linecap="round" stroke-linejoin="round"><path d="M4 5h16v14H4V5ZM4 10h16M4 15h16M9 5v5M15 10v5M9 15v4"/></symbol>
  <symbol id="ico-backup" viewBox="0 0 24 24" fill="none" stroke="currentColor" stroke-width="1.8" stroke-linecap="round" stroke-linejoin="round"><ellipse cx="10" cy="7" rx="6" ry="3"/><path d="M4 7v8c0 1.7 2.7 3 6 3M16 7v4"/><path d="M14 17a4 4 0 1 0 1-4M14 13v4h4"/></symbol>
  <symbol id="ico-cluster" viewBox="0 0 24 24" fill="none" stroke="currentColor" stroke-width="1.8" stroke-linecap="round" stroke-linejoin="round"><rect x="3" y="4" width="8" height="6" rx="1"/><rect x="13" y="4" width="8" height="6" rx="1"/><rect x="8" y="15" width="8" height="6" rx="1"/><path d="M7 10v2h10v-2M12 12v3"/></symbol>
  <symbol id="ico-monitor" viewBox="0 0 24 24" fill="none" stroke="currentColor" stroke-width="1.8" stroke-linecap="round" stroke-linejoin="round"><rect x="3" y="4" width="18" height="12" rx="2"/><path d="M8 21h8M12 16v5M6 11h3l2-4 3 6 2-3h2"/></symbol>
  <symbol id="ico-upload" viewBox="0 0 24 24" fill="none" stroke="currentColor" stroke-width="1.8" stroke-linecap="round" stroke-linejoin="round"><path d="M12 16V3M7 8l5-5 5 5M4 16v5h16v-5"/></symbol>
  <symbol id="ico-download" viewBox="0 0 24 24" fill="none" stroke="currentColor" stroke-width="1.8" stroke-linecap="round" stroke-linejoin="round"><path d="M12 3v13M7 11l5 5 5-5M4 16v5h16v-5"/></symbol>
  <symbol id="ico-contract" viewBox="0 0 24 24" fill="none" stroke="currentColor" stroke-width="1.8" stroke-linecap="round" stroke-linejoin="round"><path d="M6 3h12v18H6V3Z"/><path d="M9 8h6M9 12h6M9 16h3M14 17l3-3"/></symbol>
  <style>
    .fm { font-family:"SimHei","Microsoft YaHei","Noto Sans SC",sans-serif; }
    .title { font-weight:700; font-size:56px; font-family:"SimHei","Microsoft YaHei","Noto Sans SC",sans-serif; fill:#fff; letter-spacing:1px; }
    .subtitle { font-weight:500; font-size:28px; font-family:"SimHei","Microsoft YaHei","Noto Sans SC",sans-serif; fill:#e8f2fb; }
    .section { font-weight:700; font-size:39px; font-family:"SimHei","Microsoft YaHei","Noto Sans SC",sans-serif; fill:#431407; }
    .section-en { font-weight:600; font-size:23px; font-family:Arial,sans-serif; fill:#7c4a2d; letter-spacing:1.3px; }
    .node { font-weight:600; font-size:38px; font-family:"SimHei","Microsoft YaHei","Noto Sans SC",sans-serif; fill:#431407; }
    .node-lg { font-weight:700; font-size:45px; font-family:"SimHei","Microsoft YaHei","Noto Sans SC",sans-serif; fill:#431407; }
    .desc { font-weight:500; font-size:28px; font-family:"SimHei","Microsoft YaHei","Noto Sans SC",sans-serif; fill:#7c4a2d; }
    .dark-node { font-weight:600; font-size:38px; font-family:"SimHei","Microsoft YaHei","Noto Sans SC",sans-serif; fill:#fff; }
    .note { font-weight:500; font-size:24px; font-family:"SimHei","Microsoft YaHei","Noto Sans SC",sans-serif; fill:#7c4a2d; }
    .edge-label { font-weight:700; font-size:28px; font-family:"SimHei","Microsoft YaHei","Noto Sans SC",sans-serif; fill:#431407; }
  </style>
</defs>
<rect x="0" y="0" width="1600" height="1120" rx="0" fill="#ffffff" stroke="none" />
<rect width="1600" height="1120" fill="url(#grid)" opacity="0"/>
<rect x="0" y="0" width="1600" height="116" rx="0" fill="url(#header)" stroke="none" />
<rect x="0" y="114" width="1600" height="3" rx="0" fill="#f97316" stroke="none" />
<text x="50" y="57" class="title" text-anchor="start">故障分级响应与问题闭环流程</text>
<text x="52" y="92" class="subtitle" text-anchor="start">分级标准、响应时限、处置时限与持续改进</text>

<style>
  .title { font-size:46px; letter-spacing:0; }
  .subtitle { font-size:24px; }
  .section { font-size:28px; }
  .node-lg { font-size:28px; }
  .node { font-size:24px; }
  .desc { font-size:20px; }
  .dark-node { font-size:26px; }
  .note { font-size:18px; }
  .edge-label { font-size:21px; }
</style>
<style>.desc{font-size:17px}.note{font-size:16px}.node{font-size:22px}.section{font-size:27px}</style>
<text x="44" y="148" class="section" text-anchor="start">【一】故障分级响应标准</text>
<rect x="44" y="166" width="146" height="46" rx="0" fill="#7c2d12" stroke="#7c2d12" />
<text x="117" y="197" class="dark-node" text-anchor="middle">级别</text>
<rect x="190" y="166" width="202" height="46" rx="0" fill="#7c2d12" stroke="#7c2d12" />
<text x="291" y="197" class="dark-node" text-anchor="middle">故障定义</text>
<rect x="392" y="166" width="368" height="46" rx="0" fill="#7c2d12" stroke="#7c2d12" />
<text x="576" y="197" class="dark-node" text-anchor="middle">典型场景示例</text>
<rect x="760" y="166" width="180" height="46" rx="0" fill="#7c2d12" stroke="#7c2d12" />
<text x="850" y="197" class="dark-node" text-anchor="middle">响应时限</text>
<rect x="940" y="166" width="180" height="46" rx="0" fill="#7c2d12" stroke="#7c2d12" />
<text x="1030" y="197" class="dark-node" text-anchor="middle">处理时限</text>
<rect x="1120" y="166" width="230" height="46" rx="0" fill="#7c2d12" stroke="#7c2d12" />
<text x="1235" y="197" class="dark-node" text-anchor="middle">服务方式</text>
<rect x="1350" y="166" width="206" height="46" rx="0" fill="#7c2d12" stroke="#7c2d12" />
<text x="1453" y="197" class="dark-node" text-anchor="middle">升级条件</text>
<rect x="44" y="212" width="146" height="116" rx="0" fill="#fef2f2" stroke="#fed7aa" />
<rect x="190" y="212" width="202" height="116" rx="0" fill="#ffffff" stroke="#fed7aa" />
<rect x="392" y="212" width="368" height="116" rx="0" fill="#ffffff" stroke="#fed7aa" />
<rect x="760" y="212" width="180" height="116" rx="0" fill="#ffffff" stroke="#fed7aa" />
<rect x="940" y="212" width="180" height="116" rx="0" fill="#ffffff" stroke="#fed7aa" />
<rect x="1120" y="212" width="230" height="116" rx="0" fill="#ffffff" stroke="#fed7aa" />
<rect x="1350" y="212" width="206" height="116" rx="0" fill="#ffffff" stroke="#fed7aa" />
<g color="#dc2626"><use href="#ico-alert" x="62" y="246" width="42" height="42"/></g>
<text x="136" y="258" class="node" text-anchor="middle">一级</text>
<text x="136" y="290" class="node" text-anchor="middle">较重大问题</text>
<text x="208" y="246" class="desc" text-anchor="start">导致监管业务中断</text>
<text x="208" y="270" class="desc" text-anchor="start">或大量数据中断，</text>
<text x="208" y="294" class="desc" text-anchor="start">存在较高安全风险</text>
<text x="410" y="246" class="desc" text-anchor="start">• 平台完全不可访问</text>
<text x="410" y="270" class="desc" text-anchor="start">• 大量终端数据中断</text>
<text x="410" y="294" class="desc" text-anchor="start">• 上级平台上报中断</text>
<text x="778" y="246" class="desc" text-anchor="start">2小时内响应</text>
<text x="958" y="246" class="desc" text-anchor="start">4小时内恢复或提</text>
<text x="958" y="270" class="desc" text-anchor="start">供临时方案</text>
<text x="1138" y="246" class="desc" text-anchor="start">7x24小时现场</text>
<text x="1138" y="270" class="desc" text-anchor="start">/远程协同处理</text>
<text x="1368" y="246" class="desc" text-anchor="start">影响范围扩大或超</text>
<text x="1368" y="270" class="desc" text-anchor="start">时未恢复</text>
<rect x="44" y="328" width="146" height="116" rx="0" fill="#fff7ed" stroke="#fed7aa" />
<rect x="190" y="328" width="202" height="116" rx="0" fill="#ffffff" stroke="#fed7aa" />
<rect x="392" y="328" width="368" height="116" rx="0" fill="#ffffff" stroke="#fed7aa" />
<rect x="760" y="328" width="180" height="116" rx="0" fill="#ffffff" stroke="#fed7aa" />
<rect x="940" y="328" width="180" height="116" rx="0" fill="#ffffff" stroke="#fed7aa" />
<rect x="1120" y="328" width="230" height="116" rx="0" fill="#ffffff" stroke="#fed7aa" />
<rect x="1350" y="328" width="206" height="116" rx="0" fill="#ffffff" stroke="#fed7aa" />
<g color="#ea580c"><use href="#ico-bell" x="62" y="362" width="42" height="42"/></g>
<text x="136" y="374" class="node" text-anchor="middle">二级</text>
<text x="136" y="406" class="node" text-anchor="middle">一般异常</text>
<text x="208" y="362" class="desc" text-anchor="start">部分功能异常或数</text>
<text x="208" y="386" class="desc" text-anchor="start">据异常，未造成监</text>
<text x="208" y="410" class="desc" text-anchor="start">管业务中断</text>
<text x="410" y="362" class="desc" text-anchor="start">• 部分模块异常</text>
<text x="410" y="386" class="desc" text-anchor="start">• 终端数据延迟</text>
<text x="410" y="410" class="desc" text-anchor="start">• 接口返回异常</text>
<text x="778" y="362" class="desc" text-anchor="start">1个工作日内响应</text>
<text x="958" y="362" class="desc" text-anchor="start">2个工作日内处理</text>
<text x="958" y="386" class="desc" text-anchor="start">完成</text>
<text x="1138" y="362" class="desc" text-anchor="start">工作时间内远程支</text>
<text x="1138" y="386" class="desc" text-anchor="start">持为主</text>
<text x="1368" y="362" class="desc" text-anchor="start">问题升级为一级故</text>
<text x="1368" y="386" class="desc" text-anchor="start">障</text>
<rect x="44" y="444" width="146" height="116" rx="0" fill="#f0fdf4" stroke="#fed7aa" />
<rect x="190" y="444" width="202" height="116" rx="0" fill="#ffffff" stroke="#fed7aa" />
<rect x="392" y="444" width="368" height="116" rx="0" fill="#ffffff" stroke="#fed7aa" />
<rect x="760" y="444" width="180" height="116" rx="0" fill="#ffffff" stroke="#fed7aa" />
<rect x="940" y="444" width="180" height="116" rx="0" fill="#ffffff" stroke="#fed7aa" />
<rect x="1120" y="444" width="230" height="116" rx="0" fill="#ffffff" stroke="#fed7aa" />
<rect x="1350" y="444" width="206" height="116" rx="0" fill="#ffffff" stroke="#fed7aa" />
<g color="#16a34a"><use href="#ico-check" x="62" y="478" width="42" height="42"/></g>
<text x="136" y="490" class="node" text-anchor="middle">三级</text>
<text x="136" y="522" class="node" text-anchor="middle">普通事项</text>
<text x="208" y="478" class="desc" text-anchor="start">咨询、优化建议或</text>
<text x="208" y="502" class="desc" text-anchor="start">轻微问题，不影响</text>
<text x="208" y="526" class="desc" text-anchor="start">系统正常运行</text>
<text x="410" y="478" class="desc" text-anchor="start">• 操作咨询</text>
<text x="410" y="502" class="desc" text-anchor="start">• 界面显示优化建议</text>
<text x="410" y="526" class="desc" text-anchor="start">• 日志查询、数据核对</text>
<text x="778" y="478" class="desc" text-anchor="start">2个工作日内响应</text>
<text x="958" y="478" class="desc" text-anchor="start">5个工作日内处理</text>
<text x="958" y="502" class="desc" text-anchor="start">完成</text>
<text x="1138" y="478" class="desc" text-anchor="start">远程支持工单处理</text>
<text x="1368" y="478" class="desc" text-anchor="start">问题演变为二级或</text>
<text x="1368" y="502" class="desc" text-anchor="start">一级</text>
<text x="44" y="606" class="section" text-anchor="start">【二】问题闭环处理流程</text>
<rect x="44" y="640" width="162" height="218" rx="10" fill="#fef2f2" stroke="#dc2626" filter="url(#shadow)"/>
<text x="125" y="674" class="node" text-anchor="middle">1.问题发现</text>
<circle cx="125" cy="722" r="30" fill="#dc2626"/>
<g color="#ffffff"><use href="#ico-search" x="107" y="704" width="36" height="36"/></g>
<text x="62" y="772" class="note" text-anchor="start">通过监控告警、</text>
<text x="62" y="797" class="note" text-anchor="start">巡检发现、用户反馈</text>
<text x="62" y="822" class="note" text-anchor="start">等渠道发现问题</text>
<rect x="44" y="824" width="162" height="34" rx="0" fill="#ffffff" stroke="#dc2626" />
<text x="125" y="848" class="note" text-anchor="middle">输出：问题初步信息</text>
<path d="M212 744 H232" fill="none" stroke="#f97316" stroke-width="4" marker-end="url(#arrow-flow)"/>
<rect x="238" y="640" width="162" height="218" rx="10" fill="#fff7ed" stroke="#ea580c" filter="url(#shadow)"/>
<text x="319" y="674" class="node" text-anchor="middle">2.问题登记</text>
<circle cx="319" cy="722" r="30" fill="#ea580c"/>
<g color="#ffffff"><use href="#ico-form" x="301" y="704" width="36" height="36"/></g>
<text x="256" y="772" class="note" text-anchor="start">登记问题信息，</text>
<text x="256" y="797" class="note" text-anchor="start">明确现象、影响范围</text>
<text x="256" y="822" class="note" text-anchor="start">、发生时间等</text>
<rect x="238" y="824" width="162" height="34" rx="0" fill="#ffffff" stroke="#ea580c" />
<text x="319" y="848" class="note" text-anchor="middle">输出：问题工单</text>
<path d="M406 744 H426" fill="none" stroke="#f97316" stroke-width="4" marker-end="url(#arrow-flow)"/>
<rect x="432" y="640" width="162" height="218" rx="10" fill="#fff7ed" stroke="#f97316" filter="url(#shadow)"/>
<text x="513" y="674" class="node" text-anchor="middle">3.分类定位</text>
<circle cx="513" cy="722" r="30" fill="#f97316"/>
<g color="#ffffff"><use href="#ico-gps" x="495" y="704" width="36" height="36"/></g>
<text x="450" y="772" class="note" text-anchor="start">按故障分级标准分类</text>
<text x="450" y="797" class="note" text-anchor="start">，进行初步分析定位</text>
<rect x="432" y="824" width="162" height="34" rx="0" fill="#ffffff" stroke="#f97316" />
<text x="513" y="848" class="note" text-anchor="middle">输出：问题分类结果</text>
<path d="M600 744 H620" fill="none" stroke="#f97316" stroke-width="4" marker-end="url(#arrow-flow)"/>
<rect x="626" y="640" width="162" height="218" rx="10" fill="#ecfdf5" stroke="#0f766e" filter="url(#shadow)"/>
<text x="707" y="674" class="node" text-anchor="middle">4.处理解决</text>
<circle cx="707" cy="722" r="30" fill="#0f766e"/>
<g color="#ffffff"><use href="#ico-settings" x="689" y="704" width="36" height="36"/></g>
<text x="644" y="772" class="note" text-anchor="start">制定处理方案并实施</text>
<text x="644" y="797" class="note" text-anchor="start">解决，必要时协调升</text>
<text x="644" y="822" class="note" text-anchor="start">级处理</text>
<rect x="626" y="824" width="162" height="34" rx="0" fill="#ffffff" stroke="#0f766e" />
<text x="707" y="848" class="note" text-anchor="middle">输出：处理记录</text>
<path d="M794 744 H814" fill="none" stroke="#f97316" stroke-width="4" marker-end="url(#arrow-flow)"/>
<rect x="820" y="640" width="162" height="218" rx="10" fill="#f0f9ff" stroke="#0284c7" filter="url(#shadow)"/>
<text x="901" y="674" class="node" text-anchor="middle">5.复核验证</text>
<circle cx="901" cy="722" r="30" fill="#0284c7"/>
<g color="#ffffff"><use href="#ico-shield" x="883" y="704" width="36" height="36"/></g>
<text x="838" y="772" class="note" text-anchor="start">复核验证问题是否解</text>
<text x="838" y="797" class="note" text-anchor="start">决，功能及数据恢复</text>
<text x="838" y="822" class="note" text-anchor="start">是否正常</text>
<rect x="820" y="824" width="162" height="34" rx="0" fill="#ffffff" stroke="#0284c7" />
<text x="901" y="848" class="note" text-anchor="middle">输出：验证结果</text>
<path d="M988 744 H1008" fill="none" stroke="#f97316" stroke-width="4" marker-end="url(#arrow-flow)"/>
<rect x="1014" y="640" width="162" height="218" rx="10" fill="#ecfdf5" stroke="#0f766e" filter="url(#shadow)"/>
<text x="1095" y="674" class="node" text-anchor="middle">6.关闭归档</text>
<circle cx="1095" cy="722" r="30" fill="#0f766e"/>
<g color="#ffffff"><use href="#ico-file" x="1077" y="704" width="36" height="36"/></g>
<text x="1032" y="772" class="note" text-anchor="start">问题关闭，归档工单</text>
<text x="1032" y="797" class="note" text-anchor="start">、处理记录、</text>
<text x="1032" y="822" class="note" text-anchor="start">日志等资料</text>
<rect x="1014" y="824" width="162" height="34" rx="0" fill="#ffffff" stroke="#0f766e" />
<text x="1095" y="848" class="note" text-anchor="middle">输出：归档记录</text>
<path d="M1182 744 H1202" fill="none" stroke="#f97316" stroke-width="4" marker-end="url(#arrow-flow)"/>
<rect x="1208" y="640" width="162" height="218" rx="10" fill="#f0fdf4" stroke="#16a34a" filter="url(#shadow)"/>
<text x="1289" y="674" class="node" text-anchor="middle">7.总结改进</text>
<circle cx="1289" cy="722" r="30" fill="#16a34a"/>
<g color="#ffffff"><use href="#ico-dashboard" x="1271" y="704" width="36" height="36"/></g>
<text x="1226" y="772" class="note" text-anchor="start">定期汇总分析，</text>
<text x="1226" y="797" class="note" text-anchor="start">形成问题报告并优化</text>
<text x="1226" y="822" class="note" text-anchor="start">流程</text>
<rect x="1208" y="824" width="162" height="34" rx="0" fill="#ffffff" stroke="#16a34a" />
<text x="1289" y="848" class="note" text-anchor="middle">输出：改进建议</text>
<path d="M1289 890 H125 V868" fill="none" stroke="#f97316" stroke-width="3" stroke-dasharray="10 7" marker-end="url(#arrow-flow)"/>
<text x="800" y="914" class="edge-label" text-anchor="middle">持续改进，形成闭环</text>
<rect x="44" y="980" width="1512" height="74" rx="8" fill="#fff7ed" stroke="#fed7aa" />
<rect x="70" y="998" width="154" height="38" rx="5" fill="#f97316" stroke="#f97316" />
<text x="147" y="1025" class="dark-node" text-anchor="middle">关键保障措施</text>
<g color="#f97316"><use href="#ico-user" x="286" y="1000" width="36" height="36"/></g>
<text x="336" y="1018" class="node" text-anchor="start">专人负责</text>
<text x="336" y="1043" class="note" text-anchor="start">明确责任人与联络人</text>
<g color="#f97316"><use href="#ico-calendar" x="536" y="1000" width="36" height="36"/></g>
<text x="586" y="1018" class="node" text-anchor="start">全程跟踪</text>
<text x="586" y="1043" class="note" text-anchor="start">工单状态实时跟踪</text>
<g color="#f97316"><use href="#ico-audit" x="786" y="1000" width="36" height="36"/></g>
<text x="836" y="1018" class="node" text-anchor="start">留痕可追溯</text>
<text x="836" y="1043" class="note" text-anchor="start">全过程记录可追溯</text>
<g color="#f97316"><use href="#ico-shield" x="1036" y="1000" width="36" height="36"/></g>
<text x="1086" y="1018" class="node" text-anchor="start">合规可审计</text>
<text x="1086" y="1043" class="note" text-anchor="start">满足监管审计要求</text>
<g color="#f97316"><use href="#ico-chart" x="1286" y="1000" width="36" height="36"/></g>
<text x="1336" y="1018" class="node" text-anchor="start">数据支撑</text>
<text x="1336" y="1043" class="note" text-anchor="start">用数据驱动改进</text>
</svg>