<svg xmlns="http://www.w3.org/2000/svg" width="1600" height="1180" viewBox="0 0 1600 1180">
<defs>
  <linearGradient id="header" x2="1"><stop stop-color="#064e3b"/><stop offset="1" stop-color="#047857"/></linearGradient>
  <filter id="shadow" x="-8%" y="-12%" width="116%" height="130%"><feDropShadow dx="0" dy="1" stdDeviation="1.5" flood-color="#183652" flood-opacity=".035"/></filter>
  <pattern id="grid" width="32" height="32" patternUnits="userSpaceOnUse"><circle cx="16" cy="16" r="1" fill="#bbf7d0" opacity=".35"/></pattern>
  <marker id="arrow" markerWidth="9" markerHeight="9" refX="8" refY="4.5" orient="auto"><path d="M0 0L9 4.5L0 9Z" fill="#3f6b63"/></marker>
  <marker id="arrow-flow" markerWidth="10" markerHeight="10" refX="8.5" refY="5" orient="auto"><path d="M0 0L10 5L0 10Z" fill="#047857"/></marker>
  <marker id="arrow-data" markerWidth="10" markerHeight="10" refX="8.5" refY="5" orient="auto"><path d="M0 0L10 5L0 10Z" fill="#0f766e"/></marker>
  <marker id="arrow-control" markerWidth="10" markerHeight="10" refX="8.5" refY="5" orient="auto"><path d="M0 0L10 5L0 10Z" fill="#6d28d9"/></marker>
  <marker id="arrow-alert" markerWidth="10" markerHeight="10" refX="8.5" refY="5" orient="auto"><path d="M0 0L10 5L0 10Z" fill="#dc2626"/></marker>
  <marker id="arrow-sync" markerWidth="10" markerHeight="10" refX="8.5" refY="5" orient="auto"><path d="M0 0L10 5L0 10Z" fill="#a16207"/></marker>
  <symbol id="ico-government" viewBox="0 0 24 24" fill="none" stroke="currentColor" stroke-width="1.8" stroke-linecap="round" stroke-linejoin="round"><path d="M3 9h18M5 9V7l7-4 7 4v2M6 20h12M7 9v9M12 9v9M17 9v9"/></symbol>
  <symbol id="ico-organization" viewBox="0 0 24 24" fill="none" stroke="currentColor" stroke-width="1.8" stroke-linecap="round" stroke-linejoin="round"><path d="M4 21V5h10v16M14 10h6v11M8 9h2M8 13h2M8 17h2M17 14h1M17 18h1"/></symbol>
  <symbol id="ico-user" viewBox="0 0 24 24" fill="none" stroke="currentColor" stroke-width="1.8" stroke-linecap="round" stroke-linejoin="round"><circle cx="12" cy="7.5" r="3.5"/><path d="M5 21v-2.5a7 7 0 0 1 14 0V21"/></symbol>
  <symbol id="ico-admin" viewBox="0 0 24 24" fill="none" stroke="currentColor" stroke-width="1.8" stroke-linecap="round" stroke-linejoin="round"><circle cx="10" cy="7.5" r="3.2"/><path d="M3.5 19a6.5 6.5 0 0 1 10.5-5.1"/><path d="M18 14v7M14.5 17.5h7"/></symbol>
  <symbol id="ico-radiation" viewBox="0 0 24 24" fill="none" stroke="currentColor" stroke-width="1.8" stroke-linecap="round" stroke-linejoin="round"><circle cx="12" cy="12" r="2.2"/><path d="M12 9V3a6 6 0 0 1 5.2 3l-5.2 3ZM9.4 13.5l-5.2 3a6 6 0 0 1 0-6l5.2 3Zm5.2 0 5.2 3a6 6 0 0 1-5.2 3v-6Z"/></symbol>
  <symbol id="ico-location" viewBox="0 0 24 24" fill="none" stroke="currentColor" stroke-width="1.8" stroke-linecap="round" stroke-linejoin="round"><path d="M12 21s7-6.1 7-12A7 7 0 0 0 5 9c0 5.9 7 12 7 12Z"/><circle cx="12" cy="9" r="2.5"/></symbol>
  <symbol id="ico-map" viewBox="0 0 24 24" fill="none" stroke="currentColor" stroke-width="1.8" stroke-linecap="round" stroke-linejoin="round"><path d="M3 6.5 9 4l6 2.5L21 4v14l-6 2.5L9 18l-6 2.5v-14ZM9 4v14M15 6.5v14"/></symbol>
  <symbol id="ico-workflow" viewBox="0 0 24 24" fill="none" stroke="currentColor" stroke-width="1.8" stroke-linecap="round" stroke-linejoin="round"><rect x="3" y="4" width="7" height="5" rx="1"/><rect x="14" y="4" width="7" height="5" rx="1"/><rect x="9" y="15" width="7" height="5" rx="1"/><path d="M10 6.5h4M17.5 9v3.5H12v2.5"/></symbol>
  <symbol id="ico-dashboard" viewBox="0 0 24 24" fill="none" stroke="currentColor" stroke-width="1.8" stroke-linecap="round" stroke-linejoin="round"><path d="M4 20V10h4v10M10 20V4h4v16M16 20v-8h4v8M3 20h18"/></symbol>
  <symbol id="ico-report" viewBox="0 0 24 24" fill="none" stroke="currentColor" stroke-width="1.8" stroke-linecap="round" stroke-linejoin="round"><path d="M6 3h8l4 4v14H6V3Z"/><path d="M14 3v5h5M9 12h6M9 16h6"/></symbol>
  <symbol id="ico-form" viewBox="0 0 24 24" fill="none" stroke="currentColor" stroke-width="1.8" stroke-linecap="round" stroke-linejoin="round"><rect x="4" y="3" width="16" height="18" rx="2"/><path d="M8 8h8M8 12h8M8 16h4"/></symbol>
  <symbol id="ico-database" viewBox="0 0 24 24" fill="none" stroke="currentColor" stroke-width="1.8" stroke-linecap="round" stroke-linejoin="round"><ellipse cx="12" cy="6" rx="7" ry="3"/><path d="M5 6v12c0 1.7 3.1 3 7 3s7-1.3 7-3V6M5 12c0 1.7 3.1 3 7 3s7-1.3 7-3"/></symbol>
  <symbol id="ico-shield" viewBox="0 0 24 24" fill="none" stroke="currentColor" stroke-width="1.8" stroke-linecap="round" stroke-linejoin="round"><path d="M12 3 20 6v6c0 4.6-3.1 7.5-8 9-4.9-1.5-8-4.4-8-9V6l8-3Z"/><path d="m9 12 2 2 4-5"/></symbol>
  <symbol id="ico-server" viewBox="0 0 24 24" fill="none" stroke="currentColor" stroke-width="1.8" stroke-linecap="round" stroke-linejoin="round"><rect x="4" y="4" width="16" height="7" rx="2"/><rect x="4" y="13" width="16" height="7" rx="2"/><path d="M8 7h.1M8 16h.1M11 7h5M11 16h5"/></symbol>
  <symbol id="ico-api" viewBox="0 0 24 24" fill="none" stroke="currentColor" stroke-width="1.8" stroke-linecap="round" stroke-linejoin="round"><path d="M8 8 4 12l4 4M16 8l4 4-4 4M14 4 10 20"/></symbol>
  <symbol id="ico-message" viewBox="0 0 24 24" fill="none" stroke="currentColor" stroke-width="1.8" stroke-linecap="round" stroke-linejoin="round"><path d="M4 5h16v11H9l-5 4V5Z"/><path d="M8 9h8M8 12h5"/></symbol>
  <symbol id="ico-terminal" viewBox="0 0 24 24" fill="none" stroke="currentColor" stroke-width="1.8" stroke-linecap="round" stroke-linejoin="round"><rect x="6" y="3" width="12" height="18" rx="2"/><path d="M10 6h4M10 18h4"/></symbol>
  <symbol id="ico-settings" viewBox="0 0 24 24" fill="none" stroke="currentColor" stroke-width="1.8" stroke-linecap="round" stroke-linejoin="round"><circle cx="12" cy="12" r="3"/><path d="M12 2v4M12 18v4M2 12h4M18 12h4M4.9 4.9l2.8 2.8M16.3 16.3l2.8 2.8M19.1 4.9l-2.8 2.8M7.7 16.3l-2.8 2.8"/></symbol>
  <symbol id="ico-alert" viewBox="0 0 24 24" fill="none" stroke="currentColor" stroke-width="1.8" stroke-linecap="round" stroke-linejoin="round"><path d="M12 3 22 20H2L12 3Z"/><path d="M12 9v5M12 17h.1"/></symbol>
  <symbol id="ico-check" viewBox="0 0 24 24" fill="none" stroke="currentColor" stroke-width="1.8" stroke-linecap="round" stroke-linejoin="round"><circle cx="12" cy="12" r="9"/><path d="m8 12 3 3 5-7"/></symbol>
  <symbol id="ico-vehicle" viewBox="0 0 24 24" fill="none" stroke="currentColor" stroke-width="1.8" stroke-linecap="round" stroke-linejoin="round"><path d="M4 16V9h12l4 4v3M6 16h12"/><circle cx="7" cy="17" r="2"/><circle cx="17" cy="17" r="2"/></symbol>
  <symbol id="ico-sensor" viewBox="0 0 24 24" fill="none" stroke="currentColor" stroke-width="1.8" stroke-linecap="round" stroke-linejoin="round"><path d="M12 18v3M8 21h8"/><circle cx="12" cy="12" r="2"/><path d="M8.5 8.5a5 5 0 0 0 0 7M15.5 8.5a5 5 0 0 1 0 7M5.5 5.5a9 9 0 0 0 0 13M18.5 5.5a9 9 0 0 1 0 13"/></symbol>
  <symbol id="ico-cloud" viewBox="0 0 24 24" fill="none" stroke="currentColor" stroke-width="1.8" stroke-linecap="round" stroke-linejoin="round"><path d="M7 18a4 4 0 0 1-.5-8A6 6 0 0 1 18 8.5 4 4 0 1 1 18 18H7Z"/></symbol>
  <symbol id="ico-network" viewBox="0 0 24 24" fill="none" stroke="currentColor" stroke-width="1.8" stroke-linecap="round" stroke-linejoin="round"><circle cx="5" cy="12" r="2"/><circle cx="12" cy="5" r="2"/><circle cx="19" cy="12" r="2"/><circle cx="12" cy="19" r="2"/><path d="M6.5 10.5 10.5 6.5M13.5 6.5l4 4M17.5 13.5l-4 4M10.5 17.5l-4-4"/></symbol>
  <symbol id="ico-lock" viewBox="0 0 24 24" fill="none" stroke="currentColor" stroke-width="1.8" stroke-linecap="round" stroke-linejoin="round"><rect x="5" y="10" width="14" height="11" rx="2"/><path d="M8 10V7a4 4 0 0 1 8 0v3M12 14v3"/></symbol>
  <symbol id="ico-audit" viewBox="0 0 24 24" fill="none" stroke="currentColor" stroke-width="1.8" stroke-linecap="round" stroke-linejoin="round"><path d="M6 3h10l3 3v15H6V3Z"/><path d="M9 10h6M9 14h4"/><circle cx="16.5" cy="16.5" r="3"/><path d="m19 19 2 2"/></symbol>
  <symbol id="ico-ai" viewBox="0 0 24 24" fill="none" stroke="currentColor" stroke-width="1.8" stroke-linecap="round" stroke-linejoin="round"><path d="M8 3v4M16 3v4M5 9h14v10H5V9Z"/><path d="M3 12h2M19 12h2M9 13h.1M15 13h.1M9 16h6"/></symbol>
  <symbol id="ico-browser" viewBox="0 0 24 24" fill="none" stroke="currentColor" stroke-width="1.8" stroke-linecap="round" stroke-linejoin="round"><rect x="3" y="4" width="18" height="16" rx="2"/><path d="M3 9h18M7 6.5h.1M10 6.5h.1"/></symbol>
  <symbol id="ico-mobile" viewBox="0 0 24 24" fill="none" stroke="currentColor" stroke-width="1.8" stroke-linecap="round" stroke-linejoin="round"><rect x="7" y="2.5" width="10" height="19" rx="2"/><path d="M10 5h4M11 18.5h2"/></symbol>
  <symbol id="ico-camera" viewBox="0 0 24 24" fill="none" stroke="currentColor" stroke-width="1.8" stroke-linecap="round" stroke-linejoin="round"><path d="M4 7h5l2-2h4l2 2h3v12H4V7Z"/><circle cx="12" cy="13" r="4"/></symbol>
  <symbol id="ico-gps" viewBox="0 0 24 24" fill="none" stroke="currentColor" stroke-width="1.8" stroke-linecap="round" stroke-linejoin="round"><circle cx="12" cy="12" r="3"/><path d="M12 2v6M12 16v6M2 12h6M16 12h6M5 5l4 4M15 15l4 4M19 5l-4 4M9 15l-4 4"/></symbol>
  <symbol id="ico-gateway" viewBox="0 0 24 24" fill="none" stroke="currentColor" stroke-width="1.8" stroke-linecap="round" stroke-linejoin="round"><path d="M3 12h18M12 3v18"/><path d="m7 8 5-5 5 5M7 16l5 5 5-5"/></symbol>
  <symbol id="ico-queue" viewBox="0 0 24 24" fill="none" stroke="currentColor" stroke-width="1.8" stroke-linecap="round" stroke-linejoin="round"><rect x="3" y="5" width="18" height="4" rx="1"/><rect x="3" y="11" width="14" height="4" rx="1"/><rect x="3" y="17" width="10" height="4" rx="1"/></symbol>
  <symbol id="ico-file" viewBox="0 0 24 24" fill="none" stroke="currentColor" stroke-width="1.8" stroke-linecap="round" stroke-linejoin="round"><path d="M6 3h9l4 4v14H6V3Z"/><path d="M15 3v5h4M9 12h7M9 16h7"/></symbol>
  <symbol id="ico-search" viewBox="0 0 24 24" fill="none" stroke="currentColor" stroke-width="1.8" stroke-linecap="round" stroke-linejoin="round"><circle cx="10" cy="10" r="6"/><path d="m15 15 6 6"/></symbol>
  <symbol id="ico-chart" viewBox="0 0 24 24" fill="none" stroke="currentColor" stroke-width="1.8" stroke-linecap="round" stroke-linejoin="round"><path d="M4 20h17M5 20V10h4v10M11 20V5h4v15M17 20v-8h4"/></symbol>
  <symbol id="ico-calendar" viewBox="0 0 24 24" fill="none" stroke="currentColor" stroke-width="1.8" stroke-linecap="round" stroke-linejoin="round"><rect x="4" y="5" width="16" height="15" rx="2"/><path d="M8 3v5M16 3v5M4 10h16M8 14h3M13 14h3"/></symbol>
  <symbol id="ico-bell" viewBox="0 0 24 24" fill="none" stroke="currentColor" stroke-width="1.8" stroke-linecap="round" stroke-linejoin="round"><path d="M5 17h14l-2-3V9a5 5 0 0 0-10 0v5l-2 3ZM10 20h4"/></symbol>
  <symbol id="ico-email" viewBox="0 0 24 24" fill="none" stroke="currentColor" stroke-width="1.8" stroke-linecap="round" stroke-linejoin="round"><rect x="3" y="5" width="18" height="14" rx="2"/><path d="m4 7 8 6 8-6"/></symbol>
  <symbol id="ico-key" viewBox="0 0 24 24" fill="none" stroke="currentColor" stroke-width="1.8" stroke-linecap="round" stroke-linejoin="round"><circle cx="8" cy="12" r="5"/><path d="M13 12h8M18 12v4M15 12v3"/></symbol>
  <symbol id="ico-firewall" viewBox="0 0 24 24" fill="none" stroke="currentColor" stroke-width="1.8" stroke-linecap="round" stroke-linejoin="round"><path d="M4 5h16v14H4V5ZM4 10h16M4 15h16M9 5v5M15 10v5M9 15v4"/></symbol>
  <symbol id="ico-backup" viewBox="0 0 24 24" fill="none" stroke="currentColor" stroke-width="1.8" stroke-linecap="round" stroke-linejoin="round"><ellipse cx="10" cy="7" rx="6" ry="3"/><path d="M4 7v8c0 1.7 2.7 3 6 3M16 7v4"/><path d="M14 17a4 4 0 1 0 1-4M14 13v4h4"/></symbol>
  <symbol id="ico-cluster" viewBox="0 0 24 24" fill="none" stroke="currentColor" stroke-width="1.8" stroke-linecap="round" stroke-linejoin="round"><rect x="3" y="4" width="8" height="6" rx="1"/><rect x="13" y="4" width="8" height="6" rx="1"/><rect x="8" y="15" width="8" height="6" rx="1"/><path d="M7 10v2h10v-2M12 12v3"/></symbol>
  <symbol id="ico-monitor" viewBox="0 0 24 24" fill="none" stroke="currentColor" stroke-width="1.8" stroke-linecap="round" stroke-linejoin="round"><rect x="3" y="4" width="18" height="12" rx="2"/><path d="M8 21h8M12 16v5M6 11h3l2-4 3 6 2-3h2"/></symbol>
  <symbol id="ico-upload" viewBox="0 0 24 24" fill="none" stroke="currentColor" stroke-width="1.8" stroke-linecap="round" stroke-linejoin="round"><path d="M12 16V3M7 8l5-5 5 5M4 16v5h16v-5"/></symbol>
  <symbol id="ico-download" viewBox="0 0 24 24" fill="none" stroke="currentColor" stroke-width="1.8" stroke-linecap="round" stroke-linejoin="round"><path d="M12 3v13M7 11l5 5 5-5M4 16v5h16v-5"/></symbol>
  <symbol id="ico-contract" viewBox="0 0 24 24" fill="none" stroke="currentColor" stroke-width="1.8" stroke-linecap="round" stroke-linejoin="round"><path d="M6 3h12v18H6V3Z"/><path d="M9 8h6M9 12h6M9 16h3M14 17l3-3"/></symbol>
  <style>
    .fm { font-family:"SimHei","Microsoft YaHei","Noto Sans SC",sans-serif; }
    .title { font-weight:700; font-size:56px; font-family:"SimHei","Microsoft YaHei","Noto Sans SC",sans-serif; fill:#fff; letter-spacing:1px; }
    .subtitle { font-weight:500; font-size:28px; font-family:"SimHei","Microsoft YaHei","Noto Sans SC",sans-serif; fill:#e8f2fb; }
    .section { font-weight:700; font-size:39px; font-family:"SimHei","Microsoft YaHei","Noto Sans SC",sans-serif; fill:#063b33; }
    .section-en { font-weight:600; font-size:23px; font-family:Arial,sans-serif; fill:#3f6b63; letter-spacing:1.3px; }
    .node { font-weight:600; font-size:38px; font-family:"SimHei","Microsoft YaHei","Noto Sans SC",sans-serif; fill:#063b33; }
    .node-lg { font-weight:700; font-size:45px; font-family:"SimHei","Microsoft YaHei","Noto Sans SC",sans-serif; fill:#063b33; }
    .desc { font-weight:500; font-size:28px; font-family:"SimHei","Microsoft YaHei","Noto Sans SC",sans-serif; fill:#3f6b63; }
    .dark-node { font-weight:600; font-size:38px; font-family:"SimHei","Microsoft YaHei","Noto Sans SC",sans-serif; fill:#fff; }
    .note { font-weight:500; font-size:24px; font-family:"SimHei","Microsoft YaHei","Noto Sans SC",sans-serif; fill:#3f6b63; }
    .edge-label { font-weight:700; font-size:28px; font-family:"SimHei","Microsoft YaHei","Noto Sans SC",sans-serif; fill:#063b33; }
  </style>
</defs>
<rect x="0" y="0" width="1600" height="1180" rx="0" fill="#ffffff" stroke="none" />
<rect width="1600" height="1180" fill="url(#grid)" opacity="0"/>
<rect x="0" y="0" width="1600" height="116" rx="0" fill="url(#header)" stroke="none" />
<rect x="0" y="114" width="1600" height="3" rx="0" fill="#047857" stroke="none" />
<text x="50" y="57" class="title" text-anchor="start">数据安全保密保障体系架构</text>
<text x="52" y="92" class="subtitle" text-anchor="start">五大核心措施 · 多层协同防护 · 全流程闭环管理</text>

<style>
  .title { font-size:46px; letter-spacing:0; }
  .subtitle { font-size:24px; }
  .section { font-size:28px; }
  .node-lg { font-size:28px; }
  .node { font-size:24px; }
  .desc { font-size:20px; }
  .dark-node { font-size:26px; }
  .note { font-size:18px; }
  .edge-label { font-size:21px; }
</style>
<style>.node{font-size:21px}.desc{font-size:18px}.dark-node{font-size:23px}.section{font-size:27px}</style>
<circle cx="800" cy="590" r="360" fill="none" stroke="#047857" stroke-width="18" opacity="0.55"/>
<circle cx="800" cy="590" r="418" fill="none" stroke="#047857" stroke-width="2.4" stroke-dasharray="12 10" opacity="0.75"/>
<rect x="650" y="132" width="300" height="196" rx="14" fill="#ffffff" stroke="#047857" filter="url(#shadow)"/>
<rect x="666" y="148" width="268" height="70" rx="8" fill="#047857" stroke="#047857" />
<circle cx="698" cy="146" r="26" fill="#047857"/>
<text x="698" y="158" class="dark-node" text-anchor="middle">1</text>
<text x="800" y="191" class="dark-node" text-anchor="middle">账号权限与访问控制</text>
<circle cx="692" cy="233" r="4" fill="#047857"/>
<text x="710" y="240" class="desc" text-anchor="start">统一身份认证（SSO）</text>
<circle cx="692" cy="269" r="4" fill="#047857"/>
<text x="710" y="276" class="desc" text-anchor="start">角色分级授权</text>
<circle cx="692" cy="305" r="4" fill="#047857"/>
<text x="710" y="312" class="desc" text-anchor="start">多因素认证（MFA）</text>
<path d="M800 328.0 L800 590" fill="none" stroke="#047857" stroke-width="2.5" stroke-dasharray="8 7" marker-end="url(#arrow-data)"/>
<rect x="1015" y="332" width="300" height="196" rx="14" fill="#ffffff" stroke="#16a34a" filter="url(#shadow)"/>
<rect x="1031" y="348" width="268" height="70" rx="8" fill="#16a34a" stroke="#16a34a" />
<circle cx="1063" cy="346" r="26" fill="#16a34a"/>
<text x="1063" y="358" class="dark-node" text-anchor="middle">2</text>
<text x="1165" y="391" class="dark-node" text-anchor="middle">数据导出、复制使用控制</text>
<circle cx="1057" cy="433" r="4" fill="#16a34a"/>
<text x="1075" y="440" class="desc" text-anchor="start">数据导出分级审批</text>
<circle cx="1057" cy="469" r="4" fill="#16a34a"/>
<text x="1075" y="476" class="desc" text-anchor="start">敏感数据脱敏处理</text>
<circle cx="1057" cy="505" r="4" fill="#16a34a"/>
<text x="1075" y="512" class="desc" text-anchor="start">单次/批量导出限制</text>
<path d="M1165 528.0 L800 590" fill="none" stroke="#16a34a" stroke-width="2.5" stroke-dasharray="8 7" marker-end="url(#arrow-data)"/>
<rect x="885" y="692" width="300" height="196" rx="14" fill="#ffffff" stroke="#d97706" filter="url(#shadow)"/>
<rect x="901" y="708" width="268" height="70" rx="8" fill="#d97706" stroke="#d97706" />
<circle cx="933" cy="706" r="26" fill="#d97706"/>
<text x="933" y="718" class="dark-node" text-anchor="middle">3</text>
<text x="1035" y="751" class="dark-node" text-anchor="middle">接口认证与传输安全</text>
<circle cx="927" cy="793" r="4" fill="#d97706"/>
<text x="945" y="800" class="desc" text-anchor="start">接口认证（JWT/HMAC）</text>
<circle cx="927" cy="829" r="4" fill="#d97706"/>
<text x="945" y="836" class="desc" text-anchor="start">传输加密（TLS 1.2+）</text>
<circle cx="927" cy="865" r="4" fill="#d97706"/>
<text x="945" y="872" class="desc" text-anchor="start">数字签名与防重放</text>
<path d="M1035 692.0 L800 590" fill="none" stroke="#d97706" stroke-width="2.5" stroke-dasharray="8 7" marker-end="url(#arrow-data)"/>
<rect x="415" y="692" width="300" height="196" rx="14" fill="#ffffff" stroke="#6d28d9" filter="url(#shadow)"/>
<rect x="431" y="708" width="268" height="70" rx="8" fill="#6d28d9" stroke="#6d28d9" />
<circle cx="463" cy="706" r="26" fill="#6d28d9"/>
<text x="463" y="718" class="dark-node" text-anchor="middle">4</text>
<text x="565" y="751" class="dark-node" text-anchor="middle">日志审计与行为追溯</text>
<circle cx="457" cy="793" r="4" fill="#6d28d9"/>
<text x="475" y="800" class="desc" text-anchor="start">操作日志全量记录</text>
<circle cx="457" cy="829" r="4" fill="#6d28d9"/>
<text x="475" y="836" class="desc" text-anchor="start">登录/操作/导出审计</text>
<circle cx="457" cy="865" r="4" fill="#6d28d9"/>
<text x="475" y="872" class="desc" text-anchor="start">日志防篡改与留存</text>
<path d="M565 692.0 L800 590" fill="none" stroke="#6d28d9" stroke-width="2.5" stroke-dasharray="8 7" marker-end="url(#arrow-data)"/>
<rect x="285" y="332" width="300" height="196" rx="14" fill="#ffffff" stroke="#0891b2" filter="url(#shadow)"/>
<rect x="301" y="348" width="268" height="70" rx="8" fill="#0891b2" stroke="#0891b2" />
<circle cx="333" cy="346" r="26" fill="#0891b2"/>
<text x="333" y="358" class="dark-node" text-anchor="middle">5</text>
<text x="435" y="391" class="dark-node" text-anchor="middle">监管数据防外泄</text>
<circle cx="327" cy="433" r="4" fill="#0891b2"/>
<text x="345" y="440" class="desc" text-anchor="start">数据分级分类管理</text>
<circle cx="327" cy="469" r="4" fill="#0891b2"/>
<text x="345" y="476" class="desc" text-anchor="start">敏感数据加密存储</text>
<circle cx="327" cy="505" r="4" fill="#0891b2"/>
<text x="345" y="512" class="desc" text-anchor="start">外发数据严格管控</text>
<path d="M435 528.0 L800 590" fill="none" stroke="#0891b2" stroke-width="2.5" stroke-dasharray="8 7" marker-end="url(#arrow-data)"/>
<path d="M800 430 L988 568 L916 786 H684 L612 568 Z" fill="#f2f7ff" stroke="#047857" stroke-width="5" filter="url(#shadow)"/>
<g color="#047857"><use href="#ico-lock" x="746" y="490" width="108" height="108"/></g>
<text x="800" y="610" class="section" text-anchor="middle">数据安全保密</text>
<text x="800" y="654" class="section" text-anchor="middle">保障体系</text>
<text x="800" y="710" class="node" text-anchor="middle">合规为基 · 技术为盾 ·</text>
<text x="800" y="740" class="node" text-anchor="middle">管理为纲 · 闭环可控</text>
<text x="800" y="1032" class="section" text-anchor="middle">管理闭环</text>
<rect x="112" y="1050" width="1376" height="82" rx="10" fill="#ffffff" stroke="#bbf7d0" />
<g color="#047857"><use href="#ico-contract" x="160" y="1074" width="40" height="40"/></g>
<text x="214" y="1098" class="node" text-anchor="start">制度规范</text>
<path d="M324 1092 H356" fill="none" stroke="#047857" stroke-width="3" marker-end="url(#arrow-flow)"/>
<g color="#047857"><use href="#ico-settings" x="378" y="1074" width="40" height="40"/></g>
<text x="432" y="1098" class="node" text-anchor="start">技术防护</text>
<path d="M542 1092 H574" fill="none" stroke="#047857" stroke-width="3" marker-end="url(#arrow-flow)"/>
<g color="#047857"><use href="#ico-monitor" x="596" y="1074" width="40" height="40"/></g>
<text x="650" y="1098" class="node" text-anchor="start">监测审计</text>
<path d="M760 1092 H792" fill="none" stroke="#047857" stroke-width="3" marker-end="url(#arrow-flow)"/>
<g color="#047857"><use href="#ico-shield" x="814" y="1074" width="40" height="40"/></g>
<text x="868" y="1098" class="node" text-anchor="start">风险处置</text>
<path d="M978 1092 H1010" fill="none" stroke="#047857" stroke-width="3" marker-end="url(#arrow-flow)"/>
<g color="#047857"><use href="#ico-report" x="1032" y="1074" width="40" height="40"/></g>
<text x="1086" y="1098" class="node" text-anchor="start">评估优化</text>
</svg>